<svg width="49" height="49" viewBox="0 0 49 49" fill="none" xmlns="http://www.w3.org/2000/svg">
<g clip-path="url(#clip0_3385_15587)">
<path d="M19.3248 5.17471C11.2595 7.3358 8.90292 7.97617 8.45461 8.13706C6.83635 8.71817 5.87628 9.25482 4.90395 10.1143C4.15433 10.7755 3.60576 11.4561 3.11971 12.3343C2.235 13.9355 1.91168 15.7004 2.14148 17.6337C2.25285 18.5723 2.26419 18.7668 3.49317 23.3843C3.90244 24.9236 4.44793 26.9475 5.17563 29.6634C7.33556 37.7243 7.97604 40.079 8.13734 40.5264C8.70272 42.1016 9.22688 43.0474 10.0588 44.0128C11.6497 45.8611 14.0288 46.9312 16.4881 46.9094C17.3394 46.9011 18.2493 46.7784 19.3928 46.5293C19.8768 46.4219 24.757 45.1302 29.6362 43.8228C34.5155 42.5154 39.3931 41.2021 39.8533 41.0533C41.1443 40.6414 41.8762 40.3361 42.6575 39.8941C44.8122 38.6765 46.3083 36.5935 46.7747 34.1621C47.0093 32.9396 46.9933 31.8161 46.7045 30.257C46.6415 29.9171 45.2303 24.6065 43.81 19.3059C42.3895 14.0044 40.958 8.70975 40.8427 8.38385C40.3051 6.86494 39.7596 5.89293 38.9227 4.93525C38.2366 4.15159 37.5627 3.60963 36.6619 3.11225C35.0567 2.23366 33.2945 1.90939 31.36 2.13976C30.4225 2.25108 30.2324 2.26061 25.6125 3.48992L19.3248 5.17471Z" fill="url(#paint0_linear_3385_15587)"/>
<path d="M18.6317 27.5796L22.6235 33.3094C22.6235 33.3094 23.0691 33.8261 23.3759 33.7439C23.6828 33.6617 26.9744 27.691 26.9744 27.691L29.423 16.5286L18.2747 25.9201L18.6317 27.5796Z" fill="#C8DAEA"/>
<path d="M22.1065 28.3923L22.9195 33.1862C22.9195 33.1862 23.1192 34.6683 24.1678 32.8517C25.2163 31.0351 26.2914 29.5628 26.2914 29.5628" fill="#A9C6D8"/>
<path d="M18.7336 27.7948L13.6074 27.522C13.6074 27.522 12.9826 27.4444 13.0252 26.8774C13.0339 26.7605 13.0849 26.6493 13.2683 26.4326C14.1179 25.4246 30.6473 13.9493 30.6473 13.9493C30.6473 13.9493 31.1171 13.6369 31.4527 13.671C31.5343 13.6741 31.6136 13.6989 31.6825 13.7427C31.7514 13.7866 31.8074 13.8479 31.8448 13.9205C31.9142 14.0478 31.9655 14.1842 31.9972 14.3257C32.0282 14.4472 32.0436 14.5633 32.0796 14.7422C32.4498 16.5695 32.7106 30.8775 32.7106 30.8775C32.7106 30.8775 32.7215 31.716 32.014 31.9343C31.8399 31.9871 31.657 32.0042 31.4761 31.9847C31.2953 31.9652 31.1202 31.9095 30.9613 31.8209C29.2357 30.9904 23.5159 29.0318 22.2529 28.6023C22.2243 28.5924 22.1982 28.5764 22.1764 28.5554C22.1545 28.5345 22.1374 28.5091 22.1262 28.481C22.091 28.4095 22.148 28.294 22.148 28.294C22.148 28.294 28.5778 18.5305 28.5913 17.6828C28.5924 17.6171 28.5186 17.6046 28.4376 17.6549C27.9323 18.0114 19.859 26.7519 18.968 27.7165C18.8971 27.7606 18.8168 27.7874 18.7336 27.7948Z" fill="white"/>
</g>
<defs>
<linearGradient id="paint0_linear_3385_15587" x1="29.6712" y1="43.8134" x2="19.3185" y2="5.1764" gradientUnits="userSpaceOnUse">
<stop stop-color="#1D93D2"/>
<stop offset="1" stop-color="#38B0E3"/>
</linearGradient>
<clipPath id="clip0_3385_15587">
<rect width="40" height="40" fill="white" transform="translate(0 10.3528) rotate(-15)"/>
</clipPath>
</defs>
</svg>
