<?xml version="1.0" encoding="UTF-8"?>
<svg id="Layer_2" data-name="Layer 2" xmlns="http://www.w3.org/2000/svg" xmlns:xlink="http://www.w3.org/1999/xlink" viewBox="0 0 49 46.52">
  <defs>
    <style>
      .cls-1 {
        fill: none;
      }

      .cls-2 {
        fill: url(#linear-gradient);
        fill-rule: evenodd;
      }
    </style>
    <linearGradient id="linear-gradient" x1="-885.79" y1="-2817.91" x2="-850.38" y2="-2850.14" gradientTransform="translate(884 -2810.34) scale(1 -1)" gradientUnits="userSpaceOnUse">
      <stop offset="0" stop-color="#000"/>
      <stop offset="1" stop-color="#6b7273"/>
    </linearGradient>
  </defs>
  <g id="Layer_1-2" data-name="Layer 1">
    <g>
      <rect class="cls-1" x="0" width="49" height="46.52"/>
      <path class="cls-2" d="M20.5,0C13.6,0,8,5.6,8,12.5c0,3.74,1.64,7.09,4.24,9.38C5.04,25,0,32.1,0,40.4c0,1.33,1.07,2.4,2.4,2.4s2.4-1.07,2.4-2.4c0-8.48,6.96-15.4,15.6-15.4,4.53,0,8.6,1.9,11.45,4.94,.91,.97,2.43,1.02,3.39,.11s1.02-2.43,.11-3.39c-1.86-1.99-4.12-3.6-6.66-4.72,2.64-2.29,4.31-5.67,4.31-9.44C33,5.6,27.4,0,20.5,0Zm-7.7,12.5c0-4.25,3.45-7.7,7.7-7.7s7.7,3.45,7.7,7.7-3.45,7.7-7.7,7.7-7.7-3.45-7.7-7.7Z"/>
    </g>
  </g>
</svg>