<svg width="24" height="24" viewBox="0 0 24 24" fill="none" xmlns="http://www.w3.org/2000/svg">
<path fill-rule="evenodd" clip-rule="evenodd" d="M19.7778 7H4.22222C2.99492 7 2 8.04467 2 9.33333V11.6667C2 12.4812 2.39753 13.1983 3 13.6157V18C3 20.2091 4.79086 22 7 22H11H17C19.2091 22 21 20.2091 21 18V13.6157C21.6025 13.1983 22 12.4812 22 11.6667V9.33333C22 8.04467 21.0051 7 19.7778 7ZM19 14H13V20H17C18.1046 20 19 19.1046 19 18V14ZM5 14H11V20H7C5.89543 20 5 19.1046 5 18V14ZM4 12V9H20V12H4Z" fill="#03A9F4"/>
<path d="M7.59546 6.61157C8.67346 7.73357 10.3705 7.99957 11.1925 7.99957" stroke="#03A9F4" stroke-width="2" stroke-linecap="round" stroke-linejoin="round"/>
<path d="M11.1927 7.99963C11.1927 7.99963 11.6867 4.88363 10.4717 3.61963" stroke="#03A9F4" stroke-width="2" stroke-linecap="round" stroke-linejoin="round"/>
<path d="M7.5955 6.6115C6.8015 5.7855 6.8015 4.4455 7.5955 3.6195C8.3895 2.7935 9.6765 2.7935 10.4705 3.6195" stroke="#03A9F4" stroke-width="2" stroke-linecap="round" stroke-linejoin="round"/>
<path d="M16.4045 6.61157C15.3265 7.73357 13.6295 7.99957 12.8075 7.99957" stroke="#03A9F4" stroke-width="2" stroke-linecap="round" stroke-linejoin="round"/>
<path d="M12.8073 7.99963C12.8073 7.99963 12.3133 4.88363 13.5283 3.61963" stroke="#03A9F4" stroke-width="2" stroke-linecap="round" stroke-linejoin="round"/>
<path d="M16.4045 6.6115C17.1985 5.7855 17.1985 4.4455 16.4045 3.6195C15.6105 2.7935 14.3235 2.7935 13.5295 3.6195" stroke="#03A9F4" stroke-width="2" stroke-linecap="round" stroke-linejoin="round"/>
</svg>
