<svg width="56" height="57" viewBox="0 0 56 57" fill="none" xmlns="http://www.w3.org/2000/svg">
<path fill-rule="evenodd" clip-rule="evenodd" d="M25.0696 15.6943C26.2106 13.3031 29.6144 13.3031 30.7554 15.6943L33.3419 21.1146L39.2962 21.8995C41.923 22.2458 42.9748 25.483 41.0532 27.3071L36.6974 31.4419L37.791 37.3474C38.2734 39.9526 35.5197 41.9533 33.191 40.6894L27.9125 37.8246L22.634 40.6894C20.3054 41.9533 17.5517 39.9526 18.0341 37.3474L19.1276 31.4419L14.7718 27.3071C12.8502 25.483 13.902 22.2458 16.5288 21.8995L22.4831 21.1146L25.0696 15.6943ZM27.9125 17.8636L25.5601 22.7934C25.1009 23.7557 24.186 24.4205 23.1289 24.5598L17.7134 25.2737L21.675 29.0343C22.4484 29.7684 22.7978 30.8439 22.6037 31.8924L21.6091 37.2634L26.4099 34.6578C27.3471 34.1492 28.478 34.1492 29.4151 34.6578L34.2159 37.2634L33.2214 31.8924C33.0272 30.8439 33.3767 29.7684 34.15 29.0343L38.1116 25.2737L32.6962 24.5598C31.639 24.4205 30.7241 23.7557 30.2649 22.7934L27.9125 17.8636Z" fill="url(#paint0_linear_406_25757)"/>
<path opacity="0.5" fill-rule="evenodd" clip-rule="evenodd" d="M27.9999 8.90002C17.1751 8.90002 8.3999 17.6752 8.3999 28.5C8.3999 39.3248 17.1751 48.1 27.9999 48.1C38.8247 48.1 47.5999 39.3248 47.5999 28.5C47.5999 17.6752 38.8247 8.90002 27.9999 8.90002ZM4.8999 28.5C4.8999 15.7422 15.2421 5.40002 27.9999 5.40002C40.7577 5.40002 51.0999 15.7422 51.0999 28.5C51.0999 41.2578 40.7577 51.6 27.9999 51.6C15.2421 51.6 4.8999 41.2578 4.8999 28.5Z" fill="url(#paint1_linear_406_25757)"/>
<defs>
<linearGradient id="paint0_linear_406_25757" x1="15.2117" y1="16.1976" x2="37.6406" y2="41.4247" gradientUnits="userSpaceOnUse">
<stop/>
<stop offset="1" stop-color="#6B7273"/>
</linearGradient>
<linearGradient id="paint1_linear_406_25757" x1="7.22993" y1="9.30425" x2="45.5025" y2="50.7155" gradientUnits="userSpaceOnUse">
<stop/>
<stop offset="1" stop-color="#6B7273"/>
</linearGradient>
</defs>
</svg>
