<svg width="80" height="80" viewBox="0 0 80 80" fill="none" xmlns="http://www.w3.org/2000/svg">
<g id="button-play-large">
<path id="Subtract" fill-rule="evenodd" clip-rule="evenodd" d="M80 40C80 62.0914 62.0914 80 40 80C17.9086 80 0 62.0914 0 40C0 17.9086 17.9086 0 40 0C62.0914 0 80 17.9086 80 40ZM69 40C69 56.0163 56.0163 69 40 69C23.9837 69 11 56.0163 11 40C11 23.9837 23.9837 11 40 11C56.0163 11 69 23.9837 69 40Z" fill="white"/>
<path id="Combined Shape" fill-rule="evenodd" clip-rule="evenodd" d="M80 40C80 62.0914 62.0914 80 40 80C17.9086 80 0 62.0914 0 40C0 17.9086 17.9086 0 40 0C62.0914 0 80 17.9086 80 40ZM34.323 26.6772C32.8851 25.8268 31.068 26.8632 31.068 28.5338V50.7409C31.068 52.4114 32.8851 53.4479 34.323 52.5975L53.0979 41.494C54.5099 40.6589 54.5099 38.6158 53.0979 37.7807L34.323 26.6772Z" fill="black"/>
</g>
</svg>
