<svg width="146" height="194" viewBox="0 0 146 194" fill="none" xmlns="http://www.w3.org/2000/svg">
<path d="M24.5825 193.355L21.0437 167.964C30.2292 158.139 39.1798 148.431 47.8952 138.84C56.5878 129.084 64.3172 119.63 71.0834 110.477C77.8267 101.161 82.9609 92.3197 86.486 83.9541C89.9883 75.4242 91.224 67.4615 90.1933 60.066C89.5978 55.793 88.2149 51.8811 86.0446 48.3302C83.8743 44.7793 80.9032 42.0939 77.1313 40.2741C73.3594 38.4543 68.6796 37.9337 63.0919 38.7125C57.6685 39.4684 53.1679 41.4359 49.5901 44.6152C46.1537 47.6072 43.7472 51.3771 42.3706 55.9249C41.1583 60.4498 40.9301 65.424 41.686 70.8474L8.40613 75.4856C6.92532 62.4566 8.21891 51.3026 12.2869 42.0237C16.5192 32.7219 22.7864 25.3982 31.0884 20.0527C39.5319 14.52 49.2591 10.9863 60.2703 9.45165C72.5961 7.73377 83.2706 8.59159 92.2935 12.0251C101.458 15.2714 108.726 20.541 114.099 27.834C119.613 34.9398 123.057 43.4231 124.431 53.2838C125.485 60.8436 125.118 68.4339 123.332 76.0544C121.688 83.4878 118.952 90.9056 115.125 98.308C111.298 105.71 106.779 112.958 101.569 120.05C96.5002 126.956 91.0682 133.66 85.2731 140.164C79.6424 146.645 74.0481 152.786 68.4902 158.587L141.706 148.383L145.623 176.486L24.5825 193.355Z" fill="url(#paint0_linear_11_47)"/>
<defs>
<linearGradient id="paint0_linear_11_47" x1="57.3107" y1="-5.06172" x2="86.9887" y2="207.88" gradientUnits="userSpaceOnUse">
<stop stop-color="#E1D08B"/>
<stop offset="1" stop-color="#AF4838"/>
</linearGradient>
</defs>
</svg>
