<svg width="148" height="163" viewBox="0 0 148 163" fill="none" xmlns="http://www.w3.org/2000/svg">
<path opacity="0.9" fill-rule="evenodd" clip-rule="evenodd" d="M39.9415 147.582C47.2291 153.402 55.7953 157.624 65.6403 160.248C77.0779 163.297 87.2653 163.764 96.2026 161.65C105.285 159.574 112.779 155.602 118.685 149.733C124.63 143.719 128.703 136.586 130.902 128.334C132.639 121.819 132.952 115.7 131.842 109.976C130.876 104.292 128.719 99.297 125.369 94.9926C122.058 90.5435 117.734 86.9872 112.396 84.3238C117.087 84.1786 121.72 83.0876 126.295 81.0507C130.869 79.0138 134.841 76.0407 138.209 72.1315C141.76 68.116 144.346 63.068 145.967 56.9873C147.936 49.6035 147.868 42.2972 145.763 35.0682C143.658 27.8393 139.396 21.4309 132.978 15.8431C126.597 10.1106 118.123 5.83559 107.554 3.0182C97.5641 0.35518 88.2502 -0.189346 79.612 1.38462C70.9739 2.95859 63.4845 6.62205 57.1438 12.375C50.9479 18.1666 46.3398 25.8546 43.3197 35.439L72.8546 43.3122C74.8327 37.6369 78.2249 33.3464 83.0312 30.4408C87.8761 27.3904 93.7733 26.7915 100.723 28.6441C106.659 30.2264 110.939 33.0733 113.565 37.1847C116.335 41.3347 117.007 46.0881 115.579 51.445C113.803 58.1048 110.102 62.3905 104.475 64.302C98.8486 66.2135 92.5605 66.243 85.6111 64.3905L74.3184 61.3801L67.6608 86.3545L78.9536 89.3648C84.6 90.87 89.2909 93.0509 93.0264 95.9075C96.9066 98.8027 99.5611 102.224 100.99 106.171C102.602 110.013 102.771 114.322 101.498 119.1C100.378 123.298 98.5063 126.831 95.8813 129.698C93.2949 132.42 89.9942 134.331 85.9792 135.432C82.0027 136.388 77.5533 136.21 72.6308 134.897C67.4188 133.508 63.2201 131.226 60.0347 128.051C56.8494 124.875 54.745 121.136 53.7215 116.831C52.6981 112.526 52.8039 108.058 54.0389 103.425L24.0697 95.4356C21.3103 106.95 21.4076 117.056 24.3618 125.752C27.4608 134.486 32.654 141.763 39.9415 147.582ZM8.27374 80.9332L10.2353 88.2538L45.1324 78.9032L42.9614 70.8008L21.8525 76.4569C23.2722 74.5529 24.6901 72.5479 26.1064 70.4418C27.57 68.3229 28.9198 66.1584 30.1558 63.9482C31.4265 61.6779 32.4887 59.3873 33.3422 57.0765C34.1958 54.7656 34.7286 52.4899 34.9408 50.2493C35.1877 47.9486 35.0191 45.7085 34.4351 43.5289C33.6733 40.686 32.3544 38.3224 30.4784 36.4382C28.637 34.494 26.313 33.2123 23.5063 32.5932C20.7343 31.914 17.5715 32.0505 14.0178 33.0027C10.8432 33.8533 8.11793 35.2437 5.842 37.174C3.60075 39.0441 2.02842 41.4206 1.12499 44.3035C0.268953 47.1736 0.295045 50.493 1.20327 54.2616L10.7982 51.6906C10.3792 50.127 10.2653 48.6594 10.4564 47.2878C10.6949 45.9035 11.2638 44.71 12.1632 43.7073C13.0972 42.6444 14.346 41.9035 15.9097 41.4846C17.5207 41.0529 18.9126 41.0354 20.0853 41.4322C21.2581 41.8289 22.2274 42.5087 22.9932 43.4715C23.7591 44.4344 24.307 45.5317 24.6371 46.7637C25.2085 48.8959 25.1355 51.2769 24.4182 53.9068C23.6882 56.4892 22.5034 59.2697 20.8639 62.2483C19.2116 65.1794 17.2878 68.2341 15.0923 71.4124C12.8842 74.5433 10.6113 77.7169 8.27374 80.9332Z" fill="url(#paint0_linear_0_4)"/>
<defs>
<linearGradient id="paint0_linear_0_4" x1="73.9481" y1="0.507568" x2="73.9481" y2="162.949" gradientUnits="userSpaceOnUse">
<stop stop-color="#411BEB"/>
<stop offset="0.239583" stop-color="#ADE3DC"/>
<stop offset="0.5" stop-color="#DDE787"/>
<stop offset="0.744792" stop-color="#E95842"/>
<stop offset="1" stop-color="#1A1A1A"/>
</linearGradient>
</defs>
</svg>
