<svg width="353" height="187" viewBox="0 0 353 187" fill="none" xmlns="http://www.w3.org/2000/svg">
<g clip-path="url(#clip0_3089_21481)">
<rect width="353" height="187" rx="16" fill="#EE661C"/>
<path d="M319.543 -118.094L309.819 -58.2537V-57.8797L319.543 12.8063H305.892L297.851 -49.2777H297.477V12.8063H283.826V-118.094H297.477V-63.3027H297.851L305.705 -118.094H319.543Z" fill="#EEB1F4"/>
<path d="M265.12 -101.638C265.12 -105.191 264.185 -106.687 261.941 -106.687C259.697 -106.687 258.762 -105.191 258.762 -101.638V-3.64982C258.762 -0.096817 259.697 1.39919 261.941 1.39919C264.185 1.39919 265.12 -0.096817 265.12 -3.64982V-42.5458H278.771V-2.90182C278.771 7.57018 272.039 13.9282 261.941 13.9282C251.843 13.9282 245.111 7.57018 245.111 -2.90182V-102.386C245.111 -112.858 252.03 -119.216 262.128 -119.216C272.039 -119.216 278.771 -112.858 278.771 -102.386V-68.5388H265.12V-101.638Z" fill="#EEB1F4"/>
<path d="M232.924 -118.094L242.835 12.8063H228.062L226.566 -20.4797H219.834L218.338 12.8063H205.061L214.037 -118.094H232.924ZM220.395 -33.0087H226.005L224.135 -70.9697L223.387 -99.9548H223.013L222.265 -70.9697L220.395 -33.0087Z" fill="#EEB1F4"/>
<path d="M202.985 -102.012V-71.5307C202.985 -63.3027 201.863 -59.5627 196.253 -57.5057V-57.1317C201.863 -55.0747 202.985 -51.3347 202.985 -43.1067V-3.46274C202.985 7.75726 197.562 12.8063 186.342 12.8063H169.325V-118.094H186.342C197.562 -118.094 202.985 -113.045 202.985 -102.012ZM189.334 -101.077C189.334 -104.256 188.399 -105.565 186.155 -105.565H182.976V-63.6767H186.155C188.399 -63.6767 189.334 -64.9857 189.334 -68.1647V-101.077ZM189.334 -46.4727C189.334 -49.8387 188.399 -50.9607 186.155 -50.9607H182.976V0.27726H186.155C188.399 0.27726 189.334 -1.03174 189.334 -4.39774V-46.4727Z" fill="#EEB1F4"/>
<path d="M166.844 -118.094L155.25 -30.2037V12.8063H141.599V-30.2037L130.005 -118.094H144.03L147.583 -73.0267L148.331 -54.3267H148.705L149.453 -73.0267L152.819 -118.094H166.844Z" fill="#EEB1F4"/>
<path d="M122.988 -118.094L132.899 12.8063H118.126L116.63 -20.4797H109.898L108.402 12.8063H95.125L104.101 -118.094H122.988ZM110.459 -33.0087H116.069L114.199 -70.9697L113.451 -99.9548H113.077L112.329 -70.9697L110.459 -33.0087Z" fill="#EEB1F4"/>
<path d="M72.1724 -118.094H85.8234V0.27726H93.8644V12.8063H72.1724V-118.094Z" fill="#EEB1F4"/>
<path d="M67.1175 -101.825V-59.7497C67.1175 -49.2777 62.2555 -43.4807 50.4745 -43.4807H47.1085V12.8063H33.4575V-118.094H50.4745C62.4425 -118.094 67.1175 -112.484 67.1175 -101.825ZM53.4665 -100.89C53.4665 -104.443 52.5315 -105.565 50.2875 -105.565H47.1085V-56.1967H50.2875C52.5315 -56.1967 53.4665 -57.3187 53.4665 -60.6847V-100.89Z" fill="#EEB1F4"/>
<path d="M319.543 28.0498L309.819 87.8898V88.2638L319.543 158.95H305.892L297.851 96.8658H297.477V158.95H283.826V28.0498H297.477V82.8408H297.851L305.705 28.0498H319.543Z" fill="#EEB1F4"/>
<path d="M265.12 44.5057C265.12 40.9527 264.185 39.4567 261.941 39.4567C259.697 39.4567 258.762 40.9527 258.762 44.5057V142.494C258.762 146.047 259.697 147.543 261.941 147.543C264.185 147.543 265.12 146.047 265.12 142.494V103.598H278.771V143.242C278.771 153.714 272.039 160.072 261.941 160.072C251.843 160.072 245.111 153.714 245.111 143.242V43.7577C245.111 33.2857 252.03 26.9277 262.128 26.9277C272.039 26.9277 278.771 33.2857 278.771 43.7577V77.6047H265.12V44.5057Z" fill="#EEB1F4"/>
<path d="M232.924 28.0498L242.835 158.95H228.062L226.566 125.664H219.834L218.338 158.95H205.061L214.037 28.0498H232.924ZM220.395 113.135H226.005L224.135 75.1738L223.387 46.1888H223.013L222.265 75.1738L220.395 113.135Z" fill="#EEB1F4"/>
<path d="M202.985 44.1318V74.6128C202.985 82.8408 201.863 86.5808 196.253 88.6378V89.0118C201.863 91.0688 202.985 94.8088 202.985 103.037V142.681C202.985 153.901 197.562 158.95 186.342 158.95H169.325V28.0498H186.342C197.562 28.0498 202.985 33.0988 202.985 44.1318ZM189.334 45.0668C189.334 41.8878 188.399 40.5788 186.155 40.5788H182.976V82.4668H186.155C188.399 82.4668 189.334 81.1578 189.334 77.9788V45.0668ZM189.334 99.6708C189.334 96.3048 188.399 95.1828 186.155 95.1828H182.976V146.421H186.155C188.399 146.421 189.334 145.112 189.334 141.746V99.6708Z" fill="#EEB1F4"/>
<path d="M166.844 28.0498L155.25 115.94V158.95H141.599V115.94L130.005 28.0498H144.03L147.583 73.1168L148.331 91.8168H148.705L149.453 73.1168L152.819 28.0498H166.844Z" fill="#EEB1F4"/>
<path d="M122.988 28.0498L132.899 158.95H118.126L116.63 125.664H109.898L108.402 158.95H95.125L104.101 28.0498H122.988ZM110.459 113.135H116.069L114.199 75.1738L113.451 46.1888H113.077L112.329 75.1738L110.459 113.135Z" fill="#EEB1F4"/>
<path d="M72.1724 28.0498H85.8234V146.421H93.8644V158.95H72.1724V28.0498Z" fill="#EEB1F4"/>
<path d="M67.1175 44.3188V86.3938C67.1175 96.8658 62.2555 102.663 50.4745 102.663H47.1085V158.95H33.4575V28.0498H50.4745C62.4425 28.0498 67.1175 33.6598 67.1175 44.3188ZM53.4665 45.2538C53.4665 41.7008 52.5315 40.5788 50.2875 40.5788H47.1085V89.9468H50.2875C52.5315 89.9468 53.4665 88.8248 53.4665 85.4588V45.2538Z" fill="#EEB1F4"/>
<path d="M319.543 174.194L309.819 234.034V234.408L319.543 305.094H305.892L297.851 243.01H297.477V305.094H283.826V174.194H297.477V228.985H297.851L305.705 174.194H319.543Z" fill="#EEB1F4"/>
<path d="M265.12 190.65C265.12 187.097 264.185 185.601 261.941 185.601C259.697 185.601 258.762 187.097 258.762 190.65V288.638C258.762 292.191 259.697 293.687 261.941 293.687C264.185 293.687 265.12 292.191 265.12 288.638V249.742H278.771V289.386C278.771 299.858 272.039 306.216 261.941 306.216C251.843 306.216 245.111 299.858 245.111 289.386V189.902C245.111 179.43 252.03 173.072 262.128 173.072C272.039 173.072 278.771 179.43 278.771 189.902V223.749H265.12V190.65Z" fill="#EEB1F4"/>
<path d="M232.924 174.194L242.835 305.094H228.062L226.566 271.808H219.834L218.338 305.094H205.061L214.037 174.194H232.924ZM220.395 259.279H226.005L224.135 221.318L223.387 192.333H223.013L222.265 221.318L220.395 259.279Z" fill="#EEB1F4"/>
<path d="M202.985 190.276V220.757C202.985 228.985 201.863 232.725 196.253 234.782V235.156C201.863 237.213 202.985 240.953 202.985 249.181V288.825C202.985 300.045 197.562 305.094 186.342 305.094H169.325V174.194H186.342C197.562 174.194 202.985 179.243 202.985 190.276ZM189.334 191.211C189.334 188.032 188.399 186.723 186.155 186.723H182.976V228.611H186.155C188.399 228.611 189.334 227.302 189.334 224.123V191.211ZM189.334 245.815C189.334 242.449 188.399 241.327 186.155 241.327H182.976V292.565H186.155C188.399 292.565 189.334 291.256 189.334 287.89V245.815Z" fill="#EEB1F4"/>
<path d="M166.844 174.194L155.25 262.084V305.094H141.599V262.084L130.005 174.194H144.03L147.583 219.261L148.331 237.961H148.705L149.453 219.261L152.819 174.194H166.844Z" fill="#EEB1F4"/>
<path d="M122.988 174.194L132.899 305.094H118.126L116.63 271.808H109.898L108.402 305.094H95.125L104.101 174.194H122.988ZM110.459 259.279H116.069L114.199 221.318L113.451 192.333H113.077L112.329 221.318L110.459 259.279Z" fill="#EEB1F4"/>
<path d="M72.1724 174.194H85.8234V292.565H93.8644V305.094H72.1724V174.194Z" fill="#EEB1F4"/>
<path d="M67.1175 190.463V232.538C67.1175 243.01 62.2555 248.807 50.4745 248.807H47.1085V305.094H33.4575V174.194H50.4745C62.4425 174.194 67.1175 179.804 67.1175 190.463ZM53.4665 191.398C53.4665 187.845 52.5315 186.723 50.2875 186.723H47.1085V236.091H50.2875C52.5315 236.091 53.4665 234.969 53.4665 231.603V191.398Z" fill="#EEB1F4"/>
</g>
<defs>
<clipPath id="clip0_3089_21481">
<rect width="353" height="187" rx="16" fill="white"/>
</clipPath>
</defs>
</svg>
