<?xml version="1.0" encoding="UTF-8"?>
<!-- Generated by Pixelmator Pro 3.6.7 -->
<svg width="353" height="187" viewBox="0 0 353 187" xmlns="http://www.w3.org/2000/svg">
    <clipPath id="clipPath1">
        <path d="M 16 0 L 337 0 C 345.836548 0 353 7.163437 353 16 L 353 171 C 353 179.836563 345.836548 187 337 187 L 16 187 C 7.163444 187 0 179.836563 0 171 L 0 16 C 0 7.163437 7.163444 0 16 0 Z"/>
    </clipPath>
    <g id="Group" clip-path="url(#clipPath1)">
        <path id="Path" fill="#ee661c" stroke="none" d="M 16 0 L 337 0 C 345.836548 0 353 7.163437 353 16 L 353 171 C 353 179.836563 345.836548 187 337 187 L 16 187 C 7.163444 187 0 179.836563 0 171 L 0 16 C 0 7.163437 7.163444 0 16 0 Z"/>
        <path id="path1" fill="#eeb1f4" stroke="none" d="M 319.542999 -118.093994 L 309.819 -58.253693 L 309.819 -57.8797 L 319.542999 12.806305 L 305.891998 12.806305 L 297.851013 -49.277695 L 297.47699 -49.277695 L 297.47699 12.806305 L 283.825989 12.806305 L 283.825989 -118.093994 L 297.47699 -118.093994 L 297.47699 -63.302704 L 297.851013 -63.302704 L 305.704987 -118.093994 L 319.542999 -118.093994 Z"/>
        <path id="path2" fill="#eeb1f4" stroke="none" d="M 265.119995 -101.638 C 265.119995 -105.19101 264.184998 -106.687012 261.94101 -106.687012 C 259.696991 -106.687012 258.761993 -105.19101 258.761993 -101.638 L 258.761993 -3.649826 C 258.761993 -0.096817 259.696991 1.399185 261.94101 1.399185 C 264.184998 1.399185 265.119995 -0.096817 265.119995 -3.649826 L 265.119995 -42.545807 L 278.770996 -42.545807 L 278.770996 -2.901825 C 278.770996 7.570175 272.039001 13.928192 261.94101 13.928192 C 251.843002 13.928192 245.110992 7.570175 245.110992 -2.901825 L 245.110992 -102.385986 C 245.110992 -112.858002 252.029999 -119.216003 262.127991 -119.216003 C 272.039001 -119.216003 278.770996 -112.858002 278.770996 -102.385986 L 278.770996 -68.538803 L 265.119995 -68.538803 L 265.119995 -101.638 Z"/>
        <path id="path3" fill="#eeb1f4" stroke="none" d="M 232.923996 -118.093994 L 242.835007 12.806305 L 228.061996 12.806305 L 226.565994 -20.479706 L 219.834 -20.479706 L 218.337997 12.806305 L 205.061005 12.806305 L 214.037003 -118.093994 L 232.923996 -118.093994 Z M 220.395004 -33.008698 L 226.005005 -33.008698 L 224.134995 -70.969696 L 223.386993 -99.954803 L 223.013 -99.954803 L 222.264999 -70.969696 L 220.395004 -33.008698 Z"/>
        <path id="path4" fill="#eeb1f4" stroke="none" d="M 202.985001 -102.011993 L 202.985001 -71.530701 C 202.985001 -63.302704 201.863007 -59.562698 196.253006 -57.505707 L 196.253006 -57.131699 C 201.863007 -55.074707 202.985001 -51.334702 202.985001 -43.106705 L 202.985001 -3.462738 C 202.985001 7.757263 197.561996 12.806305 186.341995 12.806305 L 169.324997 12.806305 L 169.324997 -118.093994 L 186.341995 -118.093994 C 197.561996 -118.093994 202.985001 -113.044983 202.985001 -102.011993 Z M 189.334 -101.076996 C 189.334 -104.255981 188.399002 -105.565002 186.154999 -105.565002 L 182.975998 -105.565002 L 182.975998 -63.676697 L 186.154999 -63.676697 C 188.399002 -63.676697 189.334 -64.985703 189.334 -68.164703 L 189.334 -101.076996 Z M 189.334 -46.472702 C 189.334 -49.838699 188.399002 -50.960693 186.154999 -50.960693 L 182.975998 -50.960693 L 182.975998 0.277267 L 186.154999 0.277267 C 188.399002 0.277267 189.334 -1.031738 189.334 -4.397736 L 189.334 -46.472702 Z"/>
        <path id="path5" fill="#eeb1f4" stroke="none" d="M 166.843994 -118.093994 L 155.25 -30.203705 L 155.25 12.806305 L 141.598999 12.806305 L 141.598999 -30.203705 L 130.005005 -118.093994 L 144.029999 -118.093994 L 147.582993 -73.026703 L 148.330994 -54.326691 L 148.705002 -54.326691 L 149.453003 -73.026703 L 152.819 -118.093994 L 166.843994 -118.093994 Z"/>
        <path id="path6" fill="#eeb1f4" stroke="none" d="M 122.987999 -118.093994 L 132.899002 12.806305 L 118.125999 12.806305 L 116.629997 -20.479706 L 109.898003 -20.479706 L 108.402 12.806305 L 95.125 12.806305 L 104.100998 -118.093994 L 122.987999 -118.093994 Z M 110.459 -33.008698 L 116.069 -33.008698 L 114.198997 -70.969696 L 113.450996 -99.954803 L 113.077003 -99.954803 L 112.329002 -70.969696 L 110.459 -33.008698 Z"/>
        <path id="path7" fill="#eeb1f4" stroke="none" d="M 72.172401 -118.093994 L 85.823402 -118.093994 L 85.823402 0.277267 L 93.864403 0.277267 L 93.864403 12.806305 L 72.172401 12.806305 L 72.172401 -118.093994 Z"/>
        <path id="path8" fill="#eeb1f4" stroke="none" d="M 67.1175 -101.825012 L 67.1175 -59.749695 C 67.1175 -49.277695 62.255501 -43.480698 50.474499 -43.480698 L 47.108501 -43.480698 L 47.108501 12.806305 L 33.4575 12.806305 L 33.4575 -118.093994 L 50.474499 -118.093994 C 62.442501 -118.093994 67.1175 -112.484009 67.1175 -101.825012 Z M 53.466499 -100.890015 C 53.466499 -104.442993 52.531502 -105.565002 50.287498 -105.565002 L 47.108501 -105.565002 L 47.108501 -56.196701 L 50.287498 -56.196701 C 52.531502 -56.196701 53.466499 -57.318695 53.466499 -60.684692 L 53.466499 -100.890015 Z"/>
        <path id="path9" fill="#eeb1f4" stroke="none" d="M 319.542999 28.049805 L 309.819 87.889801 L 309.819 88.263802 L 319.542999 158.949997 L 305.891998 158.949997 L 297.851013 96.865799 L 297.47699 96.865799 L 297.47699 158.949997 L 283.825989 158.949997 L 283.825989 28.049805 L 297.47699 28.049805 L 297.47699 82.840797 L 297.851013 82.840797 L 305.704987 28.049805 L 319.542999 28.049805 Z"/>
        <path id="path10" fill="#eeb1f4" stroke="none" d="M 265.119995 44.505707 C 265.119995 40.952698 264.184998 39.456696 261.94101 39.456696 C 259.696991 39.456696 258.761993 40.952698 258.761993 44.505707 L 258.761993 142.494003 C 258.761993 146.046997 259.696991 147.542999 261.94101 147.542999 C 264.184998 147.542999 265.119995 146.046997 265.119995 142.494003 L 265.119995 103.598 L 278.770996 103.598 L 278.770996 143.242004 C 278.770996 153.714005 272.039001 160.072006 261.94101 160.072006 C 251.843002 160.072006 245.110992 153.714005 245.110992 143.242004 L 245.110992 43.757706 C 245.110992 33.285706 252.029999 26.927704 262.127991 26.927704 C 272.039001 26.927704 278.770996 33.285706 278.770996 43.757706 L 278.770996 77.604698 L 265.119995 77.604698 L 265.119995 44.505707 Z"/>
        <path id="path11" fill="#eeb1f4" stroke="none" d="M 232.923996 28.049805 L 242.835007 158.949997 L 228.061996 158.949997 L 226.565994 125.664001 L 219.834 125.664001 L 218.337997 158.949997 L 205.061005 158.949997 L 214.037003 28.049805 L 232.923996 28.049805 Z M 220.395004 113.135002 L 226.005005 113.135002 L 224.134995 75.173798 L 223.386993 46.188797 L 223.013 46.188797 L 222.264999 75.173798 L 220.395004 113.135002 Z"/>
        <path id="path12" fill="#eeb1f4" stroke="none" d="M 202.985001 44.131805 L 202.985001 74.612801 C 202.985001 82.840797 201.863007 86.580803 196.253006 88.637802 L 196.253006 89.011803 C 201.863007 91.068802 202.985001 94.8088 202.985001 103.037003 L 202.985001 142.681 C 202.985001 153.901001 197.561996 158.949997 186.341995 158.949997 L 169.324997 158.949997 L 169.324997 28.049805 L 186.341995 28.049805 C 197.561996 28.049805 202.985001 33.098801 202.985001 44.131805 Z M 189.334 45.066803 C 189.334 41.887802 188.399002 40.578796 186.154999 40.578796 L 182.975998 40.578796 L 182.975998 82.466797 L 186.154999 82.466797 C 188.399002 82.466797 189.334 81.157799 189.334 77.978798 L 189.334 45.066803 Z M 189.334 99.670799 C 189.334 96.304802 188.399002 95.1828 186.154999 95.1828 L 182.975998 95.1828 L 182.975998 146.421005 L 186.154999 146.421005 C 188.399002 146.421005 189.334 145.112 189.334 141.746002 L 189.334 99.670799 Z"/>
        <path id="path13" fill="#eeb1f4" stroke="none" d="M 166.843994 28.049805 L 155.25 115.940002 L 155.25 158.949997 L 141.598999 158.949997 L 141.598999 115.940002 L 130.005005 28.049805 L 144.029999 28.049805 L 147.582993 73.116798 L 148.330994 91.816803 L 148.705002 91.816803 L 149.453003 73.116798 L 152.819 28.049805 L 166.843994 28.049805 Z"/>
        <path id="path14" fill="#eeb1f4" stroke="none" d="M 122.987999 28.049805 L 132.899002 158.949997 L 118.125999 158.949997 L 116.629997 125.664001 L 109.898003 125.664001 L 108.402 158.949997 L 95.125 158.949997 L 104.100998 28.049805 L 122.987999 28.049805 Z M 110.459 113.135002 L 116.069 113.135002 L 114.198997 75.173798 L 113.450996 46.188797 L 113.077003 46.188797 L 112.329002 75.173798 L 110.459 113.135002 Z"/>
        <path id="path15" fill="#eeb1f4" stroke="none" d="M 72.172401 28.049805 L 85.823402 28.049805 L 85.823402 146.421005 L 93.864403 146.421005 L 93.864403 158.949997 L 72.172401 158.949997 L 72.172401 28.049805 Z"/>
        <path id="path16" fill="#eeb1f4" stroke="none" d="M 67.1175 44.318802 L 67.1175 86.393799 C 67.1175 96.865799 62.255501 102.663002 50.474499 102.663002 L 47.108501 102.663002 L 47.108501 158.949997 L 33.4575 158.949997 L 33.4575 28.049805 L 50.474499 28.049805 C 62.442501 28.049805 67.1175 33.659805 67.1175 44.318802 Z M 53.466499 45.253799 C 53.466499 41.700806 52.531502 40.578796 50.287498 40.578796 L 47.108501 40.578796 L 47.108501 89.9468 L 50.287498 89.9468 C 52.531502 89.9468 53.466499 88.824799 53.466499 85.458801 L 53.466499 45.253799 Z"/>
        <path id="path17" fill="#eeb1f4" stroke="none" d="M 319.542999 174.194 L 309.819 234.033997 L 309.819 234.408005 L 319.542999 305.093994 L 305.891998 305.093994 L 297.851013 243.009995 L 297.47699 243.009995 L 297.47699 305.093994 L 283.825989 305.093994 L 283.825989 174.194 L 297.47699 174.194 L 297.47699 228.985001 L 297.851013 228.985001 L 305.704987 174.194 L 319.542999 174.194 Z"/>
        <path id="path18" fill="#eeb1f4" stroke="none" d="M 265.119995 190.649994 C 265.119995 187.097 264.184998 185.600998 261.94101 185.600998 C 259.696991 185.600998 258.761993 187.097 258.761993 190.649994 L 258.761993 288.638 C 258.761993 292.19101 259.696991 293.687012 261.94101 293.687012 C 264.184998 293.687012 265.119995 292.19101 265.119995 288.638 L 265.119995 249.742004 L 278.770996 249.742004 L 278.770996 289.385986 C 278.770996 299.858002 272.039001 306.216003 261.94101 306.216003 C 251.843002 306.216003 245.110992 299.858002 245.110992 289.385986 L 245.110992 189.901993 C 245.110992 179.429993 252.029999 173.072006 262.127991 173.072006 C 272.039001 173.072006 278.770996 179.429993 278.770996 189.901993 L 278.770996 223.748993 L 265.119995 223.748993 L 265.119995 190.649994 Z"/>
        <path id="path19" fill="#eeb1f4" stroke="none" d="M 232.923996 174.194 L 242.835007 305.093994 L 228.061996 305.093994 L 226.565994 271.808014 L 219.834 271.808014 L 218.337997 305.093994 L 205.061005 305.093994 L 214.037003 174.194 L 232.923996 174.194 Z M 220.395004 259.278992 L 226.005005 259.278992 L 224.134995 221.317993 L 223.386993 192.332993 L 223.013 192.332993 L 222.264999 221.317993 L 220.395004 259.278992 Z"/>
        <path id="path20" fill="#eeb1f4" stroke="none" d="M 202.985001 190.276001 L 202.985001 220.757004 C 202.985001 228.985001 201.863007 232.725006 196.253006 234.781998 L 196.253006 235.156006 C 201.863007 237.212997 202.985001 240.953003 202.985001 249.181 L 202.985001 288.825012 C 202.985001 300.045013 197.561996 305.093994 186.341995 305.093994 L 169.324997 305.093994 L 169.324997 174.194 L 186.341995 174.194 C 197.561996 174.194 202.985001 179.242996 202.985001 190.276001 Z M 189.334 191.210999 C 189.334 188.031998 188.399002 186.723007 186.154999 186.723007 L 182.975998 186.723007 L 182.975998 228.610992 L 186.154999 228.610992 C 188.399002 228.610992 189.334 227.302002 189.334 224.123001 L 189.334 191.210999 Z M 189.334 245.815002 C 189.334 242.449005 188.399002 241.326996 186.154999 241.326996 L 182.975998 241.326996 L 182.975998 292.565002 L 186.154999 292.565002 C 188.399002 292.565002 189.334 291.256012 189.334 287.890015 L 189.334 245.815002 Z"/>
        <path id="path21" fill="#eeb1f4" stroke="none" d="M 166.843994 174.194 L 155.25 262.084015 L 155.25 305.093994 L 141.598999 305.093994 L 141.598999 262.084015 L 130.005005 174.194 L 144.029999 174.194 L 147.582993 219.261002 L 148.330994 237.960999 L 148.705002 237.960999 L 149.453003 219.261002 L 152.819 174.194 L 166.843994 174.194 Z"/>
        <path id="path22" fill="#eeb1f4" stroke="none" d="M 122.987999 174.194 L 132.899002 305.093994 L 118.125999 305.093994 L 116.629997 271.808014 L 109.898003 271.808014 L 108.402 305.093994 L 95.125 305.093994 L 104.100998 174.194 L 122.987999 174.194 Z M 110.459 259.278992 L 116.069 259.278992 L 114.198997 221.317993 L 113.450996 192.332993 L 113.077003 192.332993 L 112.329002 221.317993 L 110.459 259.278992 Z"/>
        <path id="path23" fill="#eeb1f4" stroke="none" d="M 72.172401 174.194 L 85.823402 174.194 L 85.823402 292.565002 L 93.864403 292.565002 L 93.864403 305.093994 L 72.172401 305.093994 L 72.172401 174.194 Z"/>
        <path id="path24" fill="#eeb1f4" stroke="none" d="M 67.1175 190.462997 L 67.1175 232.537994 C 67.1175 243.009995 62.255501 248.807007 50.474499 248.807007 L 47.108501 248.807007 L 47.108501 305.093994 L 33.4575 305.093994 L 33.4575 174.194 L 50.474499 174.194 C 62.442501 174.194 67.1175 179.804001 67.1175 190.462997 Z M 53.466499 191.397995 C 53.466499 187.845001 52.531502 186.723007 50.287498 186.723007 L 47.108501 186.723007 L 47.108501 236.091003 L 50.287498 236.091003 C 52.531502 236.091003 53.466499 234.968994 53.466499 231.602997 L 53.466499 191.397995 Z"/>
    </g>
    <g id="Playback-Sticker-2024">
        <path id="path25" fill="#000000" stroke="none" d="M 141.867004 24.386002 L 137.10701 29.790695 L 141.82901 35.227402 L 135.085999 37.843109 L 137.384003 44.696396 L 130.154709 45.093109 L 130.6763 52.314499 L 123.5186 51.200607 L 122.753799 58.405807 L 115.857903 56.183197 L 114.081596 63.209 L 107.534698 60.102402 L 104.906998 66.855499 L 98.770897 62.999298 L 95.3862 69.406601 L 89.732803 64.872398 L 85.616402 70.836197 L 80.565201 65.6399 L 75.704399 71.012604 L 71.439499 65.155098 L 65.7976 69.6987 L 62.638401 63.1828 L 56.1777 66.454399 L 54.741901 59.371201 L 47.595501 60.477203 L 48.966602 53.407806 L 42.141811 51.1073 L 46.901699 45.701508 L 42.179581 40.264801 L 48.922699 37.649109 L 46.6245 30.796906 L 53.854301 30.400208 L 53.332401 23.177704 L 60.490501 24.292801 L 61.255199 17.087601 L 68.1511 19.310104 L 69.927399 12.284409 L 76.473999 15.389801 L 79.102905 8.636398 L 85.238098 12.494003 L 88.622505 6.085602 L 94.275902 10.619797 L 98.392601 4.657104 L 103.443802 9.8535 L 108.304604 4.480698 L 112.569504 10.338196 L 118.211098 5.793503 L 121.3703 12.309296 L 127.831299 9.03891 L 129.266006 16.122406 L 136.414001 15.016098 L 135.042007 22.084305 L 141.867004 24.386002 Z"/>
        <path id="path26" fill="#ee661c" stroke="none" d="M 75.411499 57.548904 L 74.403999 53.788895 C 73.687599 51.115097 74.310196 47.589996 74.874695 44.349197 C 75.331001 41.540298 75.790398 38.909698 75.320198 37.155106 L 73.696999 31.097305 C 73.585098 30.679504 73.403801 30.504196 73.111298 30.582596 C 72.818901 30.660995 72.749496 30.903397 72.861496 31.321198 L 74.719696 38.256302 L 70.542 39.375702 L 68.7397 32.649506 C 67.9561 29.725098 69.430099 27.539108 72.062096 26.833801 C 74.694099 26.128601 77.158295 27.304108 77.930695 30.186798 L 79.497894 36.035599 C 80.214401 38.709396 79.591698 42.234497 79.027199 45.475296 C 78.506699 48.211899 78.066795 50.747696 78.514595 52.418808 L 78.581696 52.669495 L 83.595001 51.326202 L 84.602501 55.086105 L 75.411499 57.548904 Z M 87.967094 27.497498 L 93.474701 48.052002 C 94.258301 50.976501 92.784302 53.162506 90.110497 53.878906 C 87.436798 54.595398 85.0672 53.439209 84.2836 50.514801 L 78.7761 29.960297 C 78.0037 27.077606 79.549995 24.827408 82.181999 24.122208 C 84.813995 23.417007 87.183495 24.573105 87.967094 27.497498 Z M 83.733398 28.408096 C 83.621498 27.990295 83.440201 27.815002 83.147697 27.893402 C 82.855301 27.971695 82.785896 28.214203 82.897896 28.632004 L 88.517395 49.604202 C 88.629295 50.022003 88.8106 50.197296 89.102997 50.119003 C 89.3955 50.040604 89.464897 49.798096 89.352898 49.380402 L 83.733398 28.408096 Z M 95.4842 52.170395 L 94.4767 48.4104 C 93.7603 45.736694 94.382996 42.211609 94.947395 38.970703 C 95.403801 36.161804 95.863098 33.531204 95.392899 31.776596 L 93.769798 25.718796 C 93.657799 25.301102 93.476501 25.125809 93.184097 25.204102 C 92.891701 25.282501 92.822296 25.525009 92.934196 25.942703 L 94.792496 32.877808 L 90.6147 33.997208 L 88.8125 27.270996 C 88.0289 24.346603 89.502899 22.160599 92.134796 21.455307 C 94.7668 20.750107 97.231094 21.925705 98.003502 24.808304 L 99.570702 30.657104 C 100.287102 33.330902 99.664497 36.856003 99.099998 40.096909 C 98.579498 42.833405 98.139603 45.369202 98.587303 47.040298 L 98.654503 47.291 L 103.667801 45.947708 L 104.675301 49.707703 L 95.4842 52.170395 Z M 103.970802 45.329208 L 102.963303 41.569199 L 99.866898 19.652206 L 106.133499 17.973099 L 111.820099 39.195999 L 112.655701 38.972107 L 113.6632 42.732101 L 112.827599 42.956009 L 113.969398 47.2173 L 109.791702 48.3367 L 108.649902 44.075409 L 103.970802 45.329208 Z M 106.806801 40.539307 L 107.642403 40.315506 L 103.7966 23.121704 L 103.712997 23.144104 L 106.806801 40.539307 Z"/>
    </g>
</svg>
