<?xml version="1.0" encoding="UTF-8"?><svg id="Layer_1" xmlns="http://www.w3.org/2000/svg" xmlns:xlink="http://www.w3.org/1999/xlink" viewBox="0 0 56 56"><defs><linearGradient id="linear-gradient" x1="28" y1="943.07" x2="28" y2="1110.57" gradientTransform="translate(0 -943.07)" gradientUnits="userSpaceOnUse"><stop offset="0" stop-color="#fff"/><stop offset="1" stop-color="#b8c3c9"/></linearGradient></defs><rect width="56" height="56" style="fill:url(#linear-gradient);"/><path d="M17.47,35.5c-.16,.11-.19,.31-.07,.47l-.22-.16c.15,.21,.31,.41,.48,.63,.03,.01,.04,.03,.05,.05,.45,.57,.36,1.41-.21,1.88-.57,.45-1.41,.36-1.86-.21-2.34-2.84-3.63-6.4-3.64-10.07-.04-8.82,7.06-16.03,15.87-16.07,.88-.07,13.91,.59,15.87,13.58,.08,.69-.39,1.33-1.06,1.47-.72,.13-1.41-.33-1.54-1.05-.09-.6-.23-1.17-.4-1.75-.04-.13-.16-.23-.31-.23h-3.72s-.03,0-.04,.01c-.19,.03-.31,.2-.28,.39,.07,.41,.12,.84,.17,1.29,0,.03,0,.05,.01,.09,.05,.75-.51,1.37-1.24,1.43-.74,.05-1.37-.51-1.41-1.24-.07-.59-.15-1.12-.24-1.65-.03-.16-.17-.28-.32-.27h-10.64c-.16-.01-.29,.11-.32,.27-.23,1.23-.35,2.48-.33,3.73,0,1.48,.16,2.94,.49,4.4h0c.04,.15,.17,.25,.33,.27h6.51c.73,0,1.33,.59,1.33,1.33s-.6,1.33-1.33,1.33h-5.38s-.09,0-.12,.03c-.17,.07-.25,.27-.17,.44h0c.04,.09,.08,.19,.13,.28,.32,.67,.05,1.47-.6,1.8-.66,.32-1.46,.05-1.78-.6-.27-.56-.52-1.14-.72-1.71-.05-.13-.17-.21-.31-.21h-2.81c-.08,0-.15,.01-.2,.07Zm2.15-2.75c.17-.04,.29-.21,.27-.39l-.06-.05c-.27-1.41-.4-2.84-.4-4.26-.01-1.21,.08-2.43,.27-3.61,0-.02,0-.03,0-.04,0,0,0-.01,0-.02-.01-.17-.16-.33-.33-.32h-3.72c-.15,0-.27,.09-.31,.24h0c-.8,2.71-.72,5.57,.23,8.22,.05,.13,.17,.21,.32,.23h3.73Zm3.82-11.66c0,.19,.15,.33,.33,.35l8.68-.05s.08,0,.13-.01c.17-.07,.25-.27,.19-.43-.93-2.34-2.47-4.35-4.47-5.84-.12-.09-.28-.09-.39,0-2.01,1.49-3.56,3.52-4.47,5.85-.01,.04-.01,.08-.01,.13Zm15.86,.16c.07-.11,.05-.24,0-.33l-.05-.06c-1.36-2.09-3.27-3.77-5.5-4.84-.11-.05-.24-.04-.33,.04-.15,.11-.17,.31-.07,.47h0c1,1.43,1.78,2.99,2.33,4.65,.04,.15,.17,.23,.32,.24h3.02c.12,0,.23-.07,.29-.17Zm-16.87-5.21h0s-.04-.04-.04-.04c-2.26,1.07-4.17,2.76-5.51,4.86-.04,.05-.07,.12-.05,.19,.01,.17,.16,.33,.35,.33h3c.13,0,.27-.09,.32-.23,.55-1.65,1.32-3.22,2.33-4.64,.08-.11,.08-.23,.04-.33-.08-.16-.28-.23-.44-.15Zm19.57,12.91l1.99,5.33-.11-.11c.05,.16,.09,.31,.09,.48,0,.73-.6,1.33-1.33,1.33-.66-.09-1.33-.27-1.94-.52-.17-.05-.34,.04-.4,.2-1.95,5.08-6.85,8.4-12.27,8.33-2.81,0-5.56-.73-7.98-2.13-.6-.37-.81-1.15-.47-1.76,.35-.64,1.16-.89,1.81-.53h.01c2.02,1.16,4.31,1.77,6.65,1.79,4.24,.11,8.1-2.43,9.7-6.36,0-.01,0-.03,.01-.03,.05-.17-.04-.36-.21-.41l-1.89-.56c-.28-.08-.53-.27-.69-.49-.43-.6-.28-1.43,.32-1.85l4.65-3.33c.33-.24,.77-.32,1.17-.19,.4,.12,.72,.41,.86,.81Z" style="fill:#03a9f4; fill-rule:evenodd;"/></svg>