<svg width="212" height="144" viewBox="0 0 212 144" fill="none" xmlns="http://www.w3.org/2000/svg">
<path fill-rule="evenodd" clip-rule="evenodd" d="M20 140.667C29.2047 140.667 36.6667 133.205 36.6667 124C36.6667 114.795 29.2047 107.333 20 107.333C10.7953 107.333 3.33333 114.795 3.33333 124C3.33333 133.205 10.7953 140.667 20 140.667ZM20 144C31.0457 144 40 135.046 40 124C40 112.954 31.0457 104 20 104C8.9543 104 0 112.954 0 124C0 135.046 8.9543 144 20 144Z" fill="#E0E6EA"/>
<rect x="52" y="120" width="130" height="8" rx="2" fill="#E0E6EA"/>
<rect x="52" y="68" width="160" height="8" rx="2" fill="#33B8F4"/>
<path fill-rule="evenodd" clip-rule="evenodd" d="M20 92C31.0457 92 40 83.0457 40 72C40 60.9543 31.0457 52 20 52C8.9543 52 0 60.9543 0 72C0 83.0457 8.9543 92 20 92ZM27.7432 65.7277C27.0406 65.1332 25.9889 65.2208 25.3944 65.9235L17.3977 75.3741L13.6785 71.6549C13.0276 71.004 11.9724 71.004 11.3215 71.6549C10.6706 72.3057 10.6706 73.361 11.3215 74.0119L17.6023 80.2927L27.939 68.0766C28.5336 67.3739 28.4459 66.3223 27.7432 65.7277Z" fill="#33B8F4"/>
<path fill-rule="evenodd" clip-rule="evenodd" d="M20 36.6667C29.2047 36.6667 36.6667 29.2047 36.6667 20C36.6667 10.7953 29.2047 3.33333 20 3.33333C10.7953 3.33333 3.33333 10.7953 3.33333 20C3.33333 29.2047 10.7953 36.6667 20 36.6667ZM20 40C31.0457 40 40 31.0457 40 20C40 8.9543 31.0457 0 20 0C8.9543 0 0 8.9543 0 20C0 31.0457 8.9543 40 20 40Z" fill="#E0E6EA"/>
<rect x="52" y="16" width="130" height="8" rx="2" fill="#E0E6EA"/>
</svg>
