<svg width="16" height="17" viewBox="0 0 16 17" fill="none" xmlns="http://www.w3.org/2000/svg">
<path fill-rule="evenodd" clip-rule="evenodd" d="M12 10.7857C8.3181 10.7857 5.33333 7.80094 5.33333 4.11904C5.33333 3.23846 5.50379 2.38275 5.83091 1.58675C6.056 1.03904 5.50858 0.491621 4.96088 0.716708C1.98434 1.93996 0 4.84569 0 8.11904C0 12.5373 3.58172 16.119 8 16.119C11.2734 16.119 14.1791 14.1347 15.4023 11.1582C15.6274 10.6105 15.08 10.063 14.5323 10.2881C13.7363 10.6153 12.8806 10.7857 12 10.7857ZM4 4.11904C4 8.53732 7.58172 12.119 12 12.119C12.4832 12.119 12.9607 12.0761 13.4282 11.9918C12.2015 13.7098 10.2005 14.7857 8 14.7857C4.3181 14.7857 1.33333 11.8009 1.33333 8.11904C1.33333 5.91857 2.40924 3.91752 4.12722 2.69083C4.04294 3.15832 4 3.63581 4 4.11904Z" fill="black"/>
<path d="M13.0667 2.93333L15.6766 3.58582C15.8667 3.63333 16 3.8041 16 4C16 4.1959 15.8667 4.36667 15.6766 4.41418L13.0667 5.06667L12.4142 7.67662C12.3667 7.86667 12.1959 8 12 8C11.8041 8 11.6333 7.86667 11.5858 7.67662L10.9333 5.06667L8.32338 4.41418C8.13333 4.36667 8 4.1959 8 4C8 3.8041 8.13333 3.63333 8.32338 3.58582L10.9333 2.93333L11.5858 0.323381C11.6333 0.133328 11.8041 0 12 0C12.1959 0 12.3667 0.133328 12.4142 0.323381L13.0667 2.93333Z" fill="black"/>
</svg>
