<?xml version="1.0" encoding="utf-8"?>
<!-- Generator: Adobe Illustrator 27.8.0, SVG Export Plug-In . SVG Version: 6.00 Build 0)  -->
<svg version="1.1" id="Layer_1" xmlns="http://www.w3.org/2000/svg" xmlns:xlink="http://www.w3.org/1999/xlink" x="0px" y="0px"
	 viewBox="0 0 16 16" style="enable-background:new 0 0 16 16;" xml:space="preserve">
<style type="text/css">
	.st0{fill:#FFFFFF;}
</style>
<path class="st0" d="M14,3.8l-3.4-0.6c-0.3-0.1-0.5-0.4-0.5-0.7c0.1-0.3,0.4-0.5,0.7-0.5l4.7,0.8C16,3,16.2,3.6,15.8,4l-4.6,3.6
	l3.4,0.6c0.3,0.1,0.5,0.4,0.5,0.7c-0.1,0.3-0.4,0.5-0.7,0.5L9.7,8.5C9.2,8.4,9,7.8,9.4,7.5L14,3.8z M7.4,6.5L4.6,7
	C4.3,7,4,6.8,3.9,6.5C3.9,6.2,4.1,5.9,4.4,5.8l4.1-0.7C9,5,9.4,5.5,9.1,6l-2.6,4.3l2.8-0.5C9.6,9.7,10,9.9,10,10.3
	c0.1,0.3-0.2,0.6-0.5,0.7l-4.1,0.7c-0.5,0.1-0.9-0.5-0.6-0.9L7.4,6.5z M0.6,10.3C0.3,10.3,0,10.1,0,9.7c0-0.3,0.2-0.6,0.5-0.6l3-0.3
	C4,8.8,4.3,9.4,4,9.8l-1.9,2.8l1.7-0.1c0.3,0,0.6,0.2,0.6,0.5c0,0.3-0.2,0.6-0.5,0.6l-3,0.3c-0.5,0-0.8-0.5-0.5-0.9l1.9-2.8
	L0.6,10.3z"/>
</svg>
