<svg width="24" height="24" viewBox="0 0 24 24" fill="none" xmlns="http://www.w3.org/2000/svg">
<path fill-rule="evenodd" clip-rule="evenodd" d="M12 20C12.1953 20 12.3895 19.9958 12.5823 19.9876C15.2607 23.8594 19.9951 23.0009 20 23C19.9969 22.9938 18.7998 20.5966 18.7238 18.1235C21.325 16.4774 23 13.8987 23 11C23 6.02944 18.0751 2 12 2C5.92487 2 1 6.02944 1 11C1 15.9706 5.92487 20 12 20ZM16.6897 17.0439L16.7247 18.1849C16.7519 19.0704 16.8923 19.968 17.119 20.8636C16.8185 20.782 16.5203 20.6761 16.2301 20.5426C15.4386 20.1786 14.7675 19.631 14.2271 18.8498L13.5994 17.9424L12.497 17.9894C12.332 17.9965 12.1663 18 12 18C6.95084 18 3 14.7675 3 11C3 7.23251 6.95084 4 12 4C17.0492 4 21 7.23251 21 11C21 13.0989 19.7795 15.0886 17.6543 16.4334L16.6897 17.0439Z" fill="black"/>
<path fill-rule="evenodd" clip-rule="evenodd" d="M12.0263 9.529C11.5146 9.89945 10.921 10.3291 10.921 11.204C10.921 11.399 10.96 11.594 11.051 11.776C11.129 12.088 11.428 12.322 11.766 12.322C12.169 12.322 12.507 11.984 12.546 11.607C12.546 11.5994 12.5471 11.5907 12.5484 11.581C12.5514 11.5572 12.5552 11.5268 12.546 11.49C12.533 11.438 12.533 11.399 12.533 11.36C12.533 10.9333 12.8988 10.6553 13.3088 10.3436C13.3361 10.3229 13.3635 10.302 13.391 10.281C14.002 9.85197 14.704 9.33197 14.704 8.25297C14.704 7.04397 13.677 6.19897 12 6.19897C11.168 6.19897 10.401 6.44597 9.75102 6.92697C9.54302 7.06997 9.40002 7.30397 9.40002 7.58997C9.40002 8.03197 9.76402 8.38297 10.206 8.38297C10.362 8.38297 10.531 8.33097 10.648 8.25297C10.973 7.97997 11.35 7.83697 11.805 7.83697C12.52 7.83697 12.819 8.17497 12.819 8.57797C12.819 8.9659 12.4718 9.21234 12.0715 9.49641L12.065 9.50097C12.0522 9.51028 12.0393 9.51962 12.0263 9.529ZM11.974 13.037C11.402 13.037 10.921 13.518 10.921 14.09C10.921 14.662 11.402 15.143 11.974 15.143C12.546 15.143 13.027 14.662 13.027 14.09C13.027 13.518 12.546 13.037 11.974 13.037Z" fill="black"/>
</svg>
