<svg width="19" height="19" viewBox="0 0 19 19" fill="none" xmlns="http://www.w3.org/2000/svg">
<path fill-rule="evenodd" clip-rule="evenodd" d="M14.5372 2.61053C14.954 2.61053 15.292 2.94848 15.292 3.36537V7.89435H13.7878L13.7825 7.89437H10.7632C10.3463 7.89437 10.0083 7.55642 10.0083 7.13954C10.0083 6.72266 10.3463 6.38471 10.7632 6.38471H12.9818C12.101 5.44157 10.8311 4.87501 9.45517 4.87501C6.8363 4.87501 4.72451 6.90916 4.72451 9.40399C4.72451 11.8988 6.8363 13.933 9.45517 13.933C11.4031 13.933 13.1256 12.7963 13.8421 11.1024C14.0045 10.7184 14.4474 10.5388 14.8314 10.7012C15.2153 10.8636 15.3949 11.3065 15.2325 11.6905C14.2793 13.9441 12.0084 15.4426 9.45517 15.4426C6.01493 15.4426 3.21484 12.7455 3.21484 9.40399C3.21484 6.06248 6.01493 3.36535 9.45517 3.36535C11.1038 3.36535 12.6418 3.98976 13.7823 5.05192V3.36537C13.7823 2.94848 14.1203 2.61053 14.5372 2.61053Z" fill="#1A1A1A"/>
</svg>
