<svg width="21" height="20" viewBox="0 0 21 20" fill="none" xmlns="http://www.w3.org/2000/svg">
<path opacity="0.5" d="M13.8333 9.16667H14.6666C15.1268 9.16667 15.4999 9.53976 15.4999 10V16.6667C15.4999 17.1269 15.1268 17.5 14.6666 17.5H6.33325C5.87301 17.5 5.49992 17.1269 5.49992 16.6667V10C5.49992 9.53976 5.87301 9.16667 6.33325 9.16667H7.16659C7.62682 9.16667 7.99992 8.79357 7.99992 8.33333C7.99992 7.8731 7.62682 7.5 7.16659 7.5H6.33325C4.95254 7.5 3.83325 8.61929 3.83325 10V16.6667C3.83325 18.0474 4.95254 19.1667 6.33325 19.1667H14.6666C16.0473 19.1667 17.1666 18.0474 17.1666 16.6667V10C17.1666 8.61929 16.0473 7.5 14.6666 7.5H13.8333C13.373 7.5 12.9999 7.8731 12.9999 8.33333C12.9999 8.79357 13.373 9.16667 13.8333 9.16667Z" fill="white"/>
<path fill-rule="evenodd" clip-rule="evenodd" d="M14.0059 5.17259C13.6805 5.49803 13.1528 5.49803 12.8274 5.17259L11.3333 3.67851V12.5C11.3333 12.9602 10.9602 13.3333 10.5 13.3333C10.0398 13.3333 9.66667 12.9602 9.66667 12.5V3.67851L8.17259 5.17259C7.84715 5.49803 7.31951 5.49803 6.99408 5.17259C6.66864 4.84716 6.66864 4.31952 6.99408 3.99408L10.5 0.488159L14.0059 3.99408C14.3314 4.31952 14.3314 4.84716 14.0059 5.17259Z" fill="white"/>
</svg>
