<svg width="393" height="255" viewBox="0 0 393 255" fill="none" xmlns="http://www.w3.org/2000/svg">
<g filter="url(#filter0_d_1901_9286)">
<path d="M320.715 115.874V144.42H322.036L324.778 115.874H341.946L335.343 151.429L342.454 186.882H325.185L322.036 158.439H320.715V186.882H304.461V115.874H320.715Z" fill="white"/>
<path d="M281.029 132.433V170.527C281.029 172.965 282.146 173.88 283.467 173.88C284.686 173.88 285.803 172.965 285.803 170.527V153.359H302.057V169.308C302.057 181.498 294.844 188 283.162 188C271.581 188 264.775 181.702 264.775 169.308V133.55C264.775 121.157 271.581 114.96 283.162 114.96C294.844 114.96 302.057 121.462 302.057 133.55V149.601H285.803V132.433C285.803 129.893 284.686 128.979 283.467 128.979C282.146 128.979 281.029 129.893 281.029 132.433Z" fill="white"/>
<path d="M232.865 115.773H258.16L264.255 186.984H248.001L247.189 170.832H243.532L242.719 186.984H226.465L232.865 115.773ZM244.141 156.712H246.478L245.868 143.912H244.852L244.141 156.712Z" fill="white"/>
<path d="M188.787 115.874H206.767C218.754 115.874 225.561 122.071 225.561 133.347V133.855C225.561 144.318 220.075 149.804 215.3 150.109V151.226C219.973 151.429 226.78 157.829 226.78 168.191V169.41C226.78 180.483 219.262 186.984 206.869 186.984H188.787V115.874ZM205.04 129.893V143.607H206.564C208.697 143.607 209.307 142.693 209.307 140.153V133.347C209.307 130.807 208.697 129.893 206.564 129.893H205.04ZM205.04 157.727V172.864H206.767C208.901 172.864 209.612 172.051 209.612 169.41V161.181C209.612 158.642 208.901 157.727 206.666 157.727H205.04Z" fill="white"/>
<path d="M150.177 115.874H166.431L168.158 145.029H169.275L170.9 115.874H187.154L176.691 167.48V186.984H160.437V167.48L150.177 115.874Z" fill="white"/>
<path d="M122.054 115.773H147.349L153.444 186.984H137.19L136.378 170.832H132.721L131.908 186.984H115.654L122.054 115.773ZM133.33 156.712H135.667L135.057 143.912H134.041L133.33 156.712Z" fill="white"/>
<path d="M88.6897 115.874H104.943V172.864H114.899V186.984H88.6897V115.874Z" fill="white"/>
<path d="M50.0001 115.874H68.1838C80.0693 115.874 86.8755 123.696 86.8755 141.068V141.271C86.8755 159.15 80.7804 165.143 67.9806 165.143H66.2537V186.984H50.0001V115.874ZM66.2537 129.995V151.023H67.9806C70.1139 151.023 70.7234 150.007 70.7234 147.264V133.957C70.7234 131.011 70.1139 129.995 67.9806 129.995H66.2537Z" fill="white"/>
<path d="M340.538 80.029H329.55V74.3975C329.55 72.9552 329.001 72.1311 328.039 72.1311C327.009 72.1311 326.46 72.9552 326.46 74.3975V77.9687C326.46 80.3724 326.872 81.0592 332.16 83.8749L334.22 84.8364C339.165 87.3775 340.607 90.5366 340.607 98.3658V99.3273C340.607 107.431 335.937 112.033 327.833 112.033C319.798 112.033 315.403 107.569 315.403 99.3273V94.5886H326.391V100.151C326.391 101.662 327.009 102.486 328.039 102.486C329.069 102.486 329.619 101.662 329.619 100.22V96.5115C329.619 94.0392 329.207 93.4211 324.331 90.88L321.927 89.7125C316.982 87.1714 315.471 83.6689 315.471 75.9084V75.2216C315.471 66.9803 319.867 62.585 327.833 62.585C335.868 62.585 340.538 67.1863 340.538 75.2216V80.029Z" fill="white"/>
<path d="M314.351 63.2712V72.8174H307.758V111.345H296.77V72.8174H290.108V63.2712H314.351Z" fill="white"/>
<path d="M289.031 80.029H278.042V74.3975C278.042 72.9552 277.493 72.1311 276.531 72.1311C275.501 72.1311 274.952 72.9552 274.952 74.3975V77.9687C274.952 80.3724 275.364 81.0592 280.652 83.8749L282.712 84.8364C287.657 87.3775 289.099 90.5366 289.099 98.3658V99.3273C289.099 107.431 284.429 112.033 276.325 112.033C268.29 112.033 263.895 107.569 263.895 99.3273V94.5886H274.883V100.151C274.883 101.662 275.501 102.486 276.531 102.486C277.561 102.486 278.111 101.662 278.111 100.22V96.5115C278.111 94.0392 277.699 93.4211 272.823 90.88L270.419 89.7125C265.474 87.1714 263.963 83.6689 263.963 75.9084V75.2216C263.963 66.9803 268.359 62.585 276.325 62.585C284.361 62.585 289.031 67.1863 289.031 75.2216V80.029Z" fill="white"/>
<path d="M242.322 63.2025H259.422L263.543 111.345H252.555L252.005 100.426H249.533L248.983 111.345H237.995L242.322 63.2025ZM249.945 90.8795H251.525L251.112 82.2261H250.426L249.945 90.8795Z" fill="white"/>
<path d="M223.442 74.4662V100.22C223.442 101.868 224.197 102.487 225.09 102.487C225.914 102.487 226.67 101.868 226.67 100.22V88.6137H237.658V99.396C237.658 107.637 232.782 112.033 224.884 112.033C217.055 112.033 212.453 107.775 212.453 99.396V75.2216C212.453 66.843 217.055 62.6537 224.884 62.6537C232.782 62.6537 237.658 67.049 237.658 75.2216V86.0726H226.67V74.4662C226.67 72.7492 225.914 72.1312 225.09 72.1312C224.197 72.1312 223.442 72.7492 223.442 74.4662Z" fill="white"/>
<path d="M200.068 63.2712V72.8174H193.475V111.345H182.487V72.8174H175.825V63.2712H200.068Z" fill="white"/>
<path d="M174.843 72.8174H168.113V81.3334H174.706V90.8795H168.113V101.799H174.912V111.345H157.125V63.2712H174.843V72.8174Z" fill="white"/>
<path d="M141.489 63.2712V82.5696H142.381L144.236 63.2712H155.842L151.378 87.3083L156.185 111.277H144.51L142.381 92.047H141.489V111.277H130.5V63.2712H141.489Z" fill="white"/>
<path d="M114.658 74.4662V100.22C114.658 101.868 115.414 102.487 116.307 102.487C117.131 102.487 117.886 101.868 117.886 100.22V88.6137H128.875V99.396C128.875 107.637 123.999 112.033 116.101 112.033C108.271 112.033 103.67 107.775 103.67 99.396V75.2216C103.67 66.843 108.271 62.6537 116.101 62.6537C123.999 62.6537 128.875 67.049 128.875 75.2216V86.0726H117.886V74.4662C117.886 72.7492 117.131 72.1312 116.307 72.1312C115.414 72.1312 114.658 72.7492 114.658 74.4662Z" fill="white"/>
<path d="M76.9769 75.2216C76.9769 66.843 81.5782 62.585 89.4075 62.585C97.3053 62.585 102.181 66.9803 102.181 75.2216V99.3273C102.181 107.637 97.3053 112.033 89.4075 112.033C81.5782 112.033 76.9769 107.706 76.9769 99.3273V75.2216ZM87.9652 74.3975V100.22C87.9652 101.868 88.7207 102.486 89.5448 102.486C90.4376 102.486 91.1931 101.868 91.1931 100.22V74.3975C91.1931 72.6805 90.4376 72.1311 89.5448 72.1311C88.7207 72.1311 87.9652 72.6805 87.9652 74.3975Z" fill="white"/>
<path d="M50.8893 63.2712H63.1825C71.2178 63.2712 75.8191 68.5594 75.8191 80.3032V80.4406C75.8191 92.5278 71.6985 96.5797 63.0452 96.5797H61.8776V111.345H50.8893V63.2712ZM61.8776 72.8174V87.0336H63.0452C64.4874 87.0336 64.8995 86.3468 64.8995 84.4925V75.4958C64.8995 73.5042 64.4874 72.8174 63.0452 72.8174H61.8776Z" fill="white"/>
</g>
<defs>
<filter id="filter0_d_1901_9286" x="-14.137" y="0.585845" width="420.728" height="253.689" filterUnits="userSpaceOnUse" color-interpolation-filters="sRGB">
<feFlood flood-opacity="0" result="BackgroundImageFix"/>
<feColorMatrix in="SourceAlpha" type="matrix" values="0 0 0 0 0 0 0 0 0 0 0 0 0 0 0 0 0 0 127 0" result="hardAlpha"/>
<feOffset dy="2.1379"/>
<feGaussianBlur stdDeviation="32.0685"/>
<feColorMatrix type="matrix" values="0 0 0 0 0 0 0 0 0 0 0 0 0 0 0 0 0 0 0.2 0"/>
<feBlend mode="normal" in2="BackgroundImageFix" result="effect1_dropShadow_1901_9286"/>
<feBlend mode="normal" in="SourceGraphic" in2="effect1_dropShadow_1901_9286" result="shape"/>
</filter>
</defs>
</svg>
