<svg width="50" height="50" viewBox="0 0 50 50" fill="none" xmlns="http://www.w3.org/2000/svg">
<g clip-path="url(#clip0_3385_15566)">
<path d="M30.1827 5.6832C22.1174 3.52211 19.7563 2.89839 19.2877 2.81358C17.5956 2.5077 16.4959 2.49242 15.2241 2.75054C14.2443 2.94836 13.4289 3.26349 12.5689 3.78105C11.0021 4.72537 9.83965 6.09213 9.07199 7.88135C8.69914 8.74991 8.61172 8.92399 7.36729 13.5374C6.95209 15.0751 6.41253 17.1006 5.68483 19.8164C3.5249 27.8774 2.90223 30.2368 2.81822 30.7049C2.52027 32.3517 2.50126 33.433 2.73907 34.685C3.19263 37.0811 4.71801 39.1974 6.85869 40.4082C7.60011 40.8266 8.44941 41.1753 9.56426 41.5313C10.0371 41.6803 14.9094 43.0018 19.7886 44.3092C24.6679 45.6165 29.5487 46.918 30.0216 47.0192C31.3455 47.308 32.1321 47.4095 33.0297 47.4175C35.5046 47.4403 37.8417 46.3844 39.4613 44.5119C40.2757 43.5705 40.8236 42.5896 41.3531 41.095C41.4684 40.7691 42.9016 35.4643 44.3219 30.1638C45.7424 24.8623 47.1501 19.5612 47.2131 19.2213C47.507 17.6371 47.5206 16.5226 47.2747 15.2748C47.0724 14.2531 46.7597 13.4468 46.2283 12.5656C45.2774 11.0021 43.9135 9.84021 42.1229 9.07245C41.2554 8.70014 41.086 8.61333 36.4704 7.36799L30.1827 5.6832Z" fill="#27D045"/>
<path d="M22.3887 34.826C27.8013 36.2763 33.3648 33.0642 34.8151 27.6516C36.2654 22.239 33.0533 16.6754 27.6407 15.2251C22.2281 13.7748 16.6646 16.9869 15.2143 22.3995C13.764 27.8122 16.976 33.3757 22.3887 34.826Z" stroke="white" stroke-width="1.74934"/>
<path d="M14.5649 28.2019L11.5344 33.2939L17.6713 33.2359L18.4463 31.5601L14.4119 31.7468L16.3428 28.461L14.5649 28.2019Z" fill="white"/>
<path d="M14.3354 31.7626C14.3444 31.7288 16.5777 28.1255 16.5777 28.1255L18.701 31.5559L14.3354 31.7626Z" fill="#27D045"/>
<path d="M22.0806 19.0355C21.6714 19.1824 21.2954 19.4091 20.9743 19.7023C20.6533 19.9955 20.3936 20.3495 20.2102 20.7438C19.6881 22.0165 20.137 23.5856 20.137 23.5856C20.6317 25.0301 21.3103 26.4049 22.1559 27.6762C22.9188 28.7018 23.8616 29.5803 24.9384 30.269C25.5514 30.727 26.2835 30.9986 27.0469 31.0513C27.7372 31.0471 28.4077 30.8203 28.9588 30.4045C29.119 30.1912 29.2539 29.9599 29.3608 29.7154C29.4594 29.5021 29.5206 29.2735 29.5419 29.0395C29.5715 28.7939 27.4371 27.0267 27.1824 27.0309C26.9277 27.0351 26.6072 27.4201 26.2373 27.7194C25.8673 28.0187 25.7207 28.1605 25.4503 28.0881C25.18 28.0156 24.1239 27.2256 23.2803 25.9129C22.7913 25.1899 22.4796 24.3618 22.3705 23.4959C22.3705 23.4959 22.6367 23.3136 23.0066 23.0143C23.2788 22.8402 23.5042 22.6022 23.6633 22.321C23.7085 22.152 23.4052 19.499 23.1958 19.3343C22.8398 19.1831 22.4645 19.0826 22.0806 19.0355Z" fill="white"/>
</g>
<defs>
<clipPath id="clip0_3385_15566">
<rect width="40" height="40" fill="white" transform="translate(10.8579 0.505127) rotate(15)"/>
</clipPath>
</defs>
</svg>
