<svg width="173" height="164" viewBox="0 0 173 164" fill="none" xmlns="http://www.w3.org/2000/svg">
<path d="M125.611 24.5724L80.3243 12.4379C76.1508 11.3196 71.7552 11.3244 67.5793 12.4517C63.4034 13.5791 59.5943 15.7893 56.535 18.8603L23.337 52.1821C20.2776 55.2531 18.0758 59.0765 16.9526 63.2681C15.8295 67.4597 15.8246 71.8719 16.9386 76.0611L29.028 121.518C30.142 125.707 32.3356 129.525 35.3884 132.59C38.4412 135.654 42.2455 137.856 46.419 138.974L91.7054 151.109C95.8789 152.227 100.275 152.222 104.45 151.095C108.626 149.968 112.435 147.757 115.495 144.686L148.696 111.365C151.755 108.294 153.957 104.471 155.08 100.279C156.203 96.0877 156.208 91.6755 155.094 87.4863L143.005 42.0298C141.891 37.84 139.697 34.0209 136.643 30.9565C133.59 27.892 129.785 25.6902 125.611 24.5724Z" fill="black"/>
<path d="M80.6887 49.0614L65.2324 106.745L54.9317 103.985L61.1692 57.9626L61.0044 57.9185L57.3548 76.813L50.8115 102.881L42.983 100.783L58.4393 43.0997L68.74 45.8597L62.5025 91.8822L62.6673 91.9263L66.3169 73.0318L72.8602 46.9637L80.6887 49.0614ZM95.8891 53.1343L93.9019 60.5508L90.6057 59.6676L86.0571 76.6431L88.9413 77.4159L86.9541 84.8324L84.0699 84.0596L79.1238 102.518L82.8321 103.512L80.8448 110.928L68.8961 107.727L84.3524 50.0431L95.8891 53.1343ZM130.714 62.4655L112.208 119.332L101.084 116.351L110.259 76.5039L112.523 67.3951L112.358 67.351L109.765 76.3714L97.7874 115.468L86.6626 112.487L98.6579 53.8762L108.135 56.4155L97.8612 95.0857L95.1895 105.057L95.3543 105.101L98.3556 95.2182L110.524 57.0558L119.259 59.3963L110.716 98.5302L108.374 108.59L108.539 108.634L111.293 98.6848L121.649 60.0367L130.714 62.4655Z" fill="#EE661C"/>
</svg>
