<svg width="14" height="14" viewBox="0 0 14 14" fill="none" xmlns="http://www.w3.org/2000/svg">
<path fill-rule="evenodd" clip-rule="evenodd" d="M13.364 0.63604C12.9734 0.245516 12.3403 0.245516 11.9497 0.636041L7 5.58579L2.05025 0.63604C1.65973 0.245516 1.02656 0.245516 0.636039 0.63604C0.245514 1.02656 0.245515 1.65973 0.636039 2.05025L5.58579 7L0.636039 11.9497C0.245515 12.3403 0.245514 12.9734 0.636039 13.364C1.02656 13.7545 1.65973 13.7545 2.05025 13.364L7 8.41421L11.9497 13.364C12.3403 13.7545 12.9734 13.7545 13.364 13.364C13.7545 12.9734 13.7545 12.3403 13.364 11.9497L8.41421 7L13.364 2.05025C13.7545 1.65973 13.7545 1.02656 13.364 0.63604Z" fill="white"/>
</svg>
