<?xml version="1.0" encoding="UTF-8"?>
<svg id="Layer_2" data-name="Layer 2" xmlns="http://www.w3.org/2000/svg" viewBox="0 0 22.4 18.93">
  <defs>
    <style>
      .cls-1 {
        fill: #fff;
        fill-rule: evenodd;
      }
    </style>
  </defs>
  <g id="Layer_1-2" data-name="Layer 1">
    <path class="cls-1" d="M0,3.86C0,1.73,1.73,0,3.86,0h2.8c1.89,0,3.46,1.36,3.79,3.15h5.32c1.74,0,3.15,1.41,3.15,3.15v1.05h.32c2.11,0,3.63,2.04,3.02,4.06l-1.57,5.26c-.4,1.34-1.63,2.25-3.02,2.25H2.84c-1.57,0-2.84-1.27-2.84-2.84V3.86ZM2.1,15.77c0,.09,.01,.17,.03,.25,.06,.16,.22,.28,.41,.28s.36-.12,.42-.31l1.51-4.92c.68-2.21,2.72-3.71,5.03-3.71h7.33v-1.05c0-.58-.47-1.05-1.05-1.05h-5.96c-.77,0-1.4-.63-1.4-1.4,0-.97-.78-1.75-1.75-1.75H3.86c-.97,0-1.75,.78-1.75,1.75V15.77Zm4.37-4.08c.41-1.32,1.63-2.23,3.02-2.23h9.75c.7,0,1.21,.68,1.01,1.35l-1.57,5.26c-.13,.45-.54,.75-1.01,.75H4.89c.03-.07,.05-.14,.08-.22l1.51-4.92Z"/>
  </g>
</svg>