<svg width="92" height="81" viewBox="0 0 92 81" fill="none" xmlns="http://www.w3.org/2000/svg">
<path d="M21.0357 11.0109V36.7002C21.0357 43.094 18.0672 46.6334 10.8742 46.6334H8.81903V81H0.484272V1.07766H10.8742C18.1814 1.07766 21.0357 4.50291 21.0357 11.0109ZM12.701 11.5817C12.701 9.41242 12.1301 8.72738 10.76 8.72738H8.81903V38.8695H10.76C12.1301 38.8695 12.701 38.1845 12.701 36.1293V11.5817ZM44.6735 10.8967V29.5072C44.6735 34.5309 43.9884 36.8144 40.5632 38.0703V38.2986C43.9884 39.5546 44.6735 41.8381 44.6735 46.8617V71.0668C44.6735 77.9173 41.3624 81 34.5119 81H24.122V1.07766H34.5119C41.3624 1.07766 44.6735 4.16038 44.6735 10.8967ZM36.3387 11.4676C36.3387 9.5266 35.7678 8.72738 34.3977 8.72738H32.4568V34.3025H34.3977C35.7678 34.3025 36.3387 33.5033 36.3387 31.5623V11.4676ZM36.3387 44.8066C36.3387 42.7515 35.7678 42.0664 34.3977 42.0664H32.4568V73.3503H34.3977C35.7678 73.3503 36.3387 72.5511 36.3387 70.4959V44.8066ZM47.5394 81V72.8936C47.5394 60.6769 51.3072 52.7988 54.7324 45.9483C57.3585 40.468 59.7561 35.5584 59.7561 29.9639V11.2392C59.7561 8.84155 59.1853 8.1565 57.9293 8.1565C56.4451 8.1565 55.8742 9.0699 55.8742 11.125V31.334H47.5394V10.6683C47.5394 4.27456 51.5356 0.392617 57.5868 0.392617C63.8664 0.392617 68.0909 4.73126 68.0909 11.5817V30.0781C68.0909 37.3852 65.2365 43.3223 62.3822 49.1452C59.2994 55.4249 55.8742 62.1612 55.8742 72.6652V73.4645H68.0909V81H47.5394ZM81.3735 81V69.24H69.7277V61.5903L77.2632 1.07766H89.7083V61.5903H91.9918V69.24H89.7083V81H81.3735ZM77.6058 61.5903H81.3735L82.6294 10.2116H82.4011L77.6058 61.5903Z" fill="#EEB1F4"/>
</svg>
