<svg width="307" height="387" viewBox="0 0 307 387" fill="none" xmlns="http://www.w3.org/2000/svg">
<path d="M0.584515 333.772L11.7073 285.621C35.0132 274.262 57.8155 262.951 80.1144 251.688C102.485 240.113 122.914 228.418 141.401 216.603C159.96 204.476 175.295 192.096 187.405 179.464C199.587 166.521 207.297 153.036 210.537 139.012C212.409 130.909 212.614 122.914 211.154 115.026C209.693 107.138 206.194 100.256 200.657 94.3811C195.121 88.5061 187.054 84.3447 176.458 81.897C166.173 79.5212 156.715 79.9627 148.083 83.2214C139.836 86.2404 132.906 91.3694 127.294 98.6085C121.994 105.92 118.156 114.717 115.78 125.002L52.6704 110.424C58.9811 85.9469 68.9947 66.7574 82.7113 52.8551C96.7395 39.0249 113.068 30.1578 131.697 26.254C150.71 22.1106 170.657 22.4506 191.538 27.2741C214.912 32.6735 233.538 41.5722 247.417 53.9701C261.679 66.1284 271.134 80.6231 275.781 97.4543C280.812 114.046 281.168 131.691 276.848 150.391C273.537 164.727 267.648 178.139 259.182 190.628C251.1 202.877 241.064 214.347 229.075 225.037C217.085 235.727 203.957 245.662 189.69 254.841C175.806 263.78 161.408 272.108 146.494 279.825C131.892 287.614 117.589 294.815 103.587 301.429L242.429 333.501L230.118 386.794L0.584515 333.772Z" fill="url(#paint0_linear_11_45)"/>
<defs>
<linearGradient id="paint0_linear_11_45" x1="196.614" y1="-1.7152" x2="126" y2="717" gradientUnits="userSpaceOnUse">
<stop stop-color="#411BEB"/>
<stop offset="0.239583" stop-color="#ADE3DC"/>
<stop offset="0.5" stop-color="#DDE787"/>
<stop offset="0.744792" stop-color="#E95842"/>
<stop offset="1" stop-color="#1A1A1A"/>
</linearGradient>
</defs>
</svg>
