<?xml version="1.0" encoding="UTF-8"?>
<svg id="Layer_2" data-name="Layer 2" xmlns="http://www.w3.org/2000/svg" xmlns:xlink="http://www.w3.org/1999/xlink" viewBox="0 0 22.4 22.4">
  <defs>
    <style>
      .cls-1 {
        fill: none;
      }

      .cls-2 {
        clip-path: url(#clippath);
      }

      .cls-3 {
        fill: #fff;
        fill-rule: evenodd;
      }
    </style>
    <clipPath id="clippath">
      <rect class="cls-1" width="22.4" height="22.4"/>
    </clipPath>
  </defs>
  <g id="Layer_1-2" data-name="Layer 1">
    <g class="cls-2">
      <path class="cls-3" d="M6.62,4.07l.38-2.95c.06-.46,.41-.82,.87-.89l.14-.02C9.79-.07,11.61-.07,13.39,.21l.14,.02c.46,.07,.81,.44,.87,.89l.38,2.95c1.28,.39,2.22,1.58,2.22,2.97,.58,0,1.05,.46,1.05,1.04v1.04c0,.57-.47,1.04-1.05,1.04v5.19c0,1.4-.93,2.58-2.22,2.97l-.38,2.95c-.06,.46-.41,.82-.87,.89l-.14,.02c-1.78,.29-3.59,.29-5.37,0l-.14-.02c-.46-.07-.81-.44-.87-.89l-.38-2.95c-1.28-.39-2.22-1.58-2.22-2.97V7.05c0-1.4,.93-2.58,2.22-2.97Zm-.12,2.97c0-.57,.47-1.04,1.05-1.04h6.3c.58,0,1.05,.46,1.05,1.04V15.35c0,.57-.47,1.04-1.05,1.04H7.55c-.58,0-1.05-.46-1.05-1.04V7.05Z"/>
    </g>
  </g>
</svg>