<svg
    xmlns="http://www.w3.org/2000/svg"
    viewBox="0 0 24 24"
    id="vector">
    <path
        id="path"
        d="M 15.9 5 C 15.73 5 15.58 5.09 15.49 5.23 L 15.42 5.38 L 10.24 17.03 C 10.08 17.32 9.98 17.64 9.98 17.99 C 9.98 19.1 10.88 20 11.99 20 C 12.95 20 13.76 19.32 13.95 18.41 L 13.96 18.38 L 16.4 5.5 C 16.4 5.22 16.18 5 15.9 5 Z M 1 9 L 3 11 C 5.88 8.12 9.79 6.92 13.53 7.38 L 14.72 4.7 C 9.89 3.84 4.74 5.27 1 9 Z M 21 11 L 23 9 C 21.36 7.36 19.45 6.18 17.41 5.43 L 16.88 8.25 C 18.38 8.87 19.78 9.78 21 11 Z M 17 15 L 19 13 C 18.2 12.2 17.3 11.58 16.34 11.11 L 15.79 14.03 C 16.21 14.3 16.62 14.62 17 15 Z M 5 13 L 7 15 C 8.13 13.87 9.56 13.21 11.03 13 L 12.31 10.12 C 9.68 10.04 7.01 10.99 5 13 Z"
        fill="#000000"/>
</svg>
