<svg width="26" height="21" viewBox="0 0 26 21" fill="none" xmlns="http://www.w3.org/2000/svg">
<path d="M4.66164 14.6224C6.66732 16.216 10.3864 19.0701 12.7784 20.2576C12.8602 20.3 12.9495 20.3197 13.0389 20.3197C13.1753 20.3197 13.3101 20.2697 13.4146 20.1803C15.8111 18.9624 19.4407 16.1751 21.4146 14.6072C22.3917 13.8271 23.237 12.9636 23.9202 12.0365C26.8681 8.03863 25.7895 4.85011 24.8821 3.30626C24.0323 1.85956 22.5477 0.890054 20.9118 0.715853C16.9988 0.29625 14.1357 3.63497 13.0316 5.18335C11.9182 3.62457 9.06438 0.312926 5.16347 0.728264C3.5274 0.902472 2.04134 1.87197 1.19314 3.31867C0.290294 4.86232 -0.788302 8.04948 2.15509 12.0489C2.83979 12.9775 3.68509 13.8425 4.66216 14.6226L4.66164 14.6224Z" fill="#EEB1F4"/>
</svg>
