<?xml version="1.0" encoding="utf-8"?>
<!-- Generator: Adobe Illustrator 27.8.0, SVG Export Plug-In . SVG Version: 6.00 Build 0)  -->
<svg version="1.1" id="Layer_4_copy" xmlns="http://www.w3.org/2000/svg" xmlns:xlink="http://www.w3.org/1999/xlink" x="0px"
	 y="0px" viewBox="0 0 72 72" style="enable-background:new 0 0 72 72;" xml:space="preserve">
<style type="text/css">
	.st0{fill:#B8C3C9;fill-opacity:0.85;}
</style>
<path class="st0" d="M64.47,1.47c-4.07,0-6.93,2.47-7.44,6.29c-9.26,5.85-21.91,9.41-31.98,10.47H13.14C4.54,18.23,0,22.67,0,30.96
	v5.13c0,7.58,3.83,11.95,11.09,12.63l7.28,16.1c2.6,5.74,6.94,6.15,10.08,5.18c3.09-0.94,5.03-3.78,4.18-8.09L30.26,49.6
	c9.3,1.62,18.88,4.81,26.8,9.74c0.58,3.7,3.42,6.07,7.41,6.07c4.52,0,7.53-2.99,7.53-7.5V8.99C72,4.48,68.99,1.47,64.47,1.47z
	 M25.59,22.62c11.3-1.26,22.46-4.34,31.36-9.78v41.38c-9.06-5.54-20.14-8.55-31.36-9.81V22.62z M4.52,36.09v-5.13
	c0-5.74,2.63-8.22,8.62-8.22h7.91v21.56h-7.91C7.14,44.31,4.52,41.83,4.52,36.09z M28.52,62.6c0.33,1.76-0.54,2.86-1.76,3.29
	c-1.3,0.46-3.01,0.08-3.9-1.86L15.8,48.82h9.08c0.32,0.04,0.65,0.08,0.97,0.12L28.52,62.6z M67.48,57.9c0,1.79-1.2,2.98-3.01,2.98
	c-1.81,0-2.98-1.2-2.98-2.98V8.99c0-1.81,1.17-3.01,2.98-3.01c1.81,0,3.01,1.2,3.01,3.01V57.9z"/>
<g id="Layer_4">
	<path class="st0" d="M64.47,1.47c-4.07,0-6.93,2.47-7.44,6.29c-9.26,5.85-21.91,9.41-31.98,10.47H13.14C4.54,18.23,0,22.67,0,30.96
		v5.13c0,7.58,3.83,11.95,11.09,12.63l7.28,16.1c2.6,5.74,6.94,6.15,10.08,5.18c3.09-0.94,5.03-3.78,4.18-8.09L30.26,49.6
		c9.3,1.62,18.88,4.81,26.8,9.74c0.58,3.7,3.42,6.07,7.41,6.07c4.52,0,7.53-2.99,7.53-7.5V8.99C72,4.48,68.99,1.47,64.47,1.47z
		 M25.59,22.62c11.3-1.26,22.46-4.34,31.36-9.78v41.38c-9.06-5.54-20.14-8.55-31.36-9.81V22.62z M4.52,36.09v-5.13
		c0-5.74,2.63-8.22,8.62-8.22h7.91v21.56h-7.91C7.14,44.31,4.52,41.83,4.52,36.09z M28.52,62.6c0.33,1.76-0.54,2.86-1.76,3.29
		c-1.3,0.46-3.01,0.08-3.9-1.86L15.8,48.82h9.08c0.32,0.04,0.65,0.08,0.97,0.12L28.52,62.6z M67.48,57.9c0,1.79-1.2,2.98-3.01,2.98
		c-1.81,0-2.98-1.2-2.98-2.98V8.99c0-1.81,1.17-3.01,2.98-3.01c1.81,0,3.01,1.2,3.01,3.01V57.9z"/>
</g>
</svg>
