<svg width="16" height="16" viewBox="0 0 16 16" fill="none" xmlns="http://www.w3.org/2000/svg">
<g clip-path="url(#clip0_34_724)">
<path d="M15.9334 10.8543L15.0334 7.64094V7.64027C14.78 6.7536 13.86 6.2336 12.9734 6.48027L12.4667 6.62027L12.8134 6.18027C13.3867 5.46027 13.2734 4.4136 12.56 3.8336L9.96003 1.74027C9.24003 1.16027 8.19336 1.2736 7.61336 1.98694C7.60669 1.98694 7.60669 1.98694 7.60669 1.98694L6.92003 2.8276C6.86003 2.89427 6.75336 2.9076 6.68003 2.8476C6.64003 2.81427 6.61336 2.7676 6.61336 2.71427V1.6276C6.61336 0.700938 5.86669 -0.0390625 4.94669 -0.0390625H1.61336C0.686694 -0.0390625 -0.053306 0.700938 -0.053306 1.6276V12.4943C-0.0799727 14.2409 1.21336 15.7209 2.95336 15.9409C3.06003 15.9476 3.17336 15.9543 3.28669 15.9543C3.94003 15.9543 3.60669 15.9543 14.7267 12.8609C15.6067 12.6076 16.1267 11.6876 15.88 10.8009L15.9334 10.8543ZM8.67336 2.84094C8.78669 2.69427 8.99336 2.67427 9.14003 2.7876L11.7334 4.87427C11.8734 4.9876 11.8934 5.19427 11.78 5.34094L6.94669 11.3329C6.88669 11.3996 6.78003 11.4129 6.70669 11.3529C6.66669 11.3196 6.64669 11.2729 6.64669 11.2263V5.37427L6.64603 5.37361C6.64603 5.33361 6.65269 5.2936 6.67936 5.26694L8.67336 2.84094ZM3.32003 5.98761C4.05336 5.98761 4.65336 6.58094 4.65336 7.32094C4.65336 8.05427 4.05336 8.65427 3.32003 8.65427C2.58003 8.65427 1.98669 8.05427 1.98669 7.32094C1.98669 6.58094 2.58003 5.98761 3.32003 5.98761ZM1.98669 2.9876C1.98669 2.2476 2.58003 1.65427 3.32003 1.65427C4.05336 1.65427 4.65336 2.2476 4.65336 2.9876C4.65336 3.72094 4.05336 4.32094 3.32003 4.32094C2.58003 4.32094 1.98669 3.72094 1.98669 2.9876ZM3.32003 10.3209C4.05336 10.3209 4.65336 10.9143 4.65336 11.6543C4.65336 12.3876 4.05336 12.9876 3.32003 12.9876C2.58003 12.9876 1.98669 12.3876 1.98669 11.6543C1.98669 10.9143 2.58003 10.3209 3.32003 10.3209ZM14.4094 11.6143L7.20136 13.6276C7.10803 13.6476 7.01469 13.6009 6.99469 13.5076C6.97469 13.4543 6.98803 13.3943 7.02136 13.3543L10.988 8.43427C11.008 8.40094 11.0347 8.38761 11.068 8.37427L13.3214 7.74094C13.4947 7.6876 13.6814 7.79361 13.728 7.96694L14.6214 11.1736C14.668 11.3469 14.568 11.5336 14.388 11.5803C14.3814 11.5803 14.3814 11.5803 14.3814 11.5803L14.4094 11.6143Z" fill="white"/>
</g>
<defs>
<clipPath id="clip0_34_724">
<rect width="16" height="16" fill="white"/>
</clipPath>
</defs>
</svg>
