<?xml version="1.0" encoding="UTF-8"?>
<svg id="Layer_2" data-name="Layer 2" xmlns="http://www.w3.org/2000/svg" viewBox="0 0 22.4 22.4">
  <defs>
    <style>
      .cls-1 {
        opacity: .4;
      }

      .cls-1, .cls-2, .cls-3 {
        isolation: isolate;
      }

      .cls-1, .cls-2, .cls-3, .cls-4 {
        fill: #fff;
        fill-rule: evenodd;
      }

      .cls-2 {
        opacity: .8;
      }

      .cls-3 {
        opacity: .6;
      }
    </style>
  </defs>
  <g id="Layer_1-2" data-name="Layer 1">
    <g>
      <path class="cls-4" d="M.8,0C.36,0,0,.36,0,.8V20c0,1.33,1.08,2.4,2.4,2.4s2.4-1.07,2.4-2.4V.8c0-.44-.36-.8-.8-.8H.8Zm1.6,21.2c.66,0,1.2-.54,1.2-1.2s-.54-1.2-1.2-1.2-1.2,.54-1.2,1.2,.54,1.2,1.2,1.2Z"/>
      <path class="cls-2" d="M4.8,20V11.04L9.92,2.17c.22-.38,.71-.51,1.09-.29l2.77,1.6c.38,.22,.51,.71,.29,1.09L4.5,21.17c.19-.35,.3-.74,.3-1.17Z"/>
      <path class="cls-3" d="M3.4,22.18c-.33,.15-.67,.22-1.01,.22h0c.35,0,.69-.08,1-.22ZM20.23,12.48L3.64,22.06c.34-.2,.63-.49,.84-.86l4.48-7.76,8.87-5.12c.38-.22,.87-.09,1.09,.29l1.6,2.77c.22,.38,.09,.87-.29,1.09Z"/>
      <path class="cls-1" d="M21.6,22.4H2.41c.41,0,.82-.1,1.2-.32l7.76-4.48h10.24c.44,0,.8,.36,.8,.8v3.2c0,.44-.36,.8-.8,.8Z"/>
    </g>
  </g>
</svg>