<svg width="25" height="25" viewBox="0 0 25 25" fill="none" xmlns="http://www.w3.org/2000/svg">
<g id="shuffle">
<path id="shuffle_2" d="M3.68555 16.5234C3.68555 16.0703 4.03711 15.7422 4.52148 15.7422H6.30273C7.16992 15.7422 7.73242 15.4375 8.4043 14.6406L10.3027 12.3828L8.4043 10.125C7.73242 9.32812 7.12305 9.02344 6.24805 9.02344H4.52148C4.03711 9.02344 3.68555 8.69531 3.68555 8.24219C3.68555 7.78906 4.03711 7.46875 4.52148 7.46875H6.31055C7.64648 7.46875 8.49023 7.85938 9.41211 8.94531L11.3027 11.1953L13.123 9.03125C14.1152 7.84375 14.9668 7.46094 16.3574 7.46094H17.9121V5.61719C17.9121 5.23438 18.1387 5.02344 18.5137 5.02344C18.6855 5.02344 18.8418 5.07812 18.9746 5.1875L22.0371 7.74219C22.334 8 22.334 8.375 22.0371 8.61719L18.9746 11.1719C18.8418 11.2734 18.6855 11.3359 18.5137 11.3359C18.1387 11.3359 17.9121 11.1172 17.9121 10.7422V9.02344H16.3496C15.4434 9.02344 14.8965 9.3125 14.2168 10.1172L12.3027 12.3828L14.209 14.6406C14.873 15.4375 15.4746 15.7422 16.3965 15.7422H17.9121V14.0547C17.9121 13.6719 18.1387 13.4609 18.5137 13.4609C18.6855 13.4609 18.8418 13.5156 18.9746 13.625L22.0371 16.1797C22.334 16.4375 22.334 16.8125 22.0371 17.0547L18.9746 19.6094C18.8418 19.7109 18.6855 19.7734 18.5137 19.7734C18.1387 19.7734 17.9121 19.5547 17.9121 19.1797V17.2969H16.3496C15.0059 17.2969 14.1152 16.9062 13.1699 15.7812L11.3027 13.5703L9.41211 15.8203C8.49023 16.9062 7.70117 17.2969 6.35742 17.2969H4.52148C4.03711 17.2969 3.68555 16.9766 3.68555 16.5234Z" fill="#B8C3C9"/>
</g>
</svg>
