<svg width="127" height="133" viewBox="0 0 127 133" fill="none" xmlns="http://www.w3.org/2000/svg">
<g clip-path="url(#clip0_1_5)">
<path fill-rule="evenodd" clip-rule="evenodd" d="M92.1428 87.2786C92.1428 112.487 71.7084 132.921 46.5001 132.921C21.2918 132.921 0.857422 112.487 0.857422 87.2786C0.857422 62.0703 21.2918 41.6359 46.5001 41.6359C71.7084 41.6359 92.1428 62.0703 92.1428 87.2786Z" fill="#B9B9B9"/>
<path fill-rule="evenodd" clip-rule="evenodd" d="M11.0002 87.2786C11.0002 67.6725 26.8941 51.7787 46.5001 51.7787C66.1061 51.7787 81.9999 67.6725 81.9999 87.2786H73.125C73.125 72.574 61.2046 60.6537 46.5001 60.6537C31.7956 60.6537 19.8752 72.574 19.8752 87.2786C19.8752 101.983 31.7956 113.903 46.5001 113.903V122.778C26.8941 122.778 11.0002 106.885 11.0002 87.2786ZM46.5001 108.578C34.7365 108.578 25.2002 99.0422 25.2002 87.2786C25.2002 75.515 34.7365 65.9787 46.5001 65.9787C58.2637 65.9787 67.8 75.515 67.8 87.2786H60.0546C60.0546 79.7926 53.986 73.7241 46.5001 73.7241C39.0142 73.7241 32.9456 79.7926 32.9456 87.2786C32.9456 94.7645 39.0142 100.833 46.5001 100.833V108.578Z" fill="white"/>
</g>
<g clip-path="url(#clip1_1_5)">
<path d="M102.447 34.0837C102.465 34.0605 102.487 34.0318 102.514 33.9983C102.512 33.9993 102.509 34.0007 102.507 34.0017C102.486 34.0284 102.469 34.0521 102.453 34.0723C102.451 34.0763 102.449 34.0797 102.447 34.0837Z" fill="#B9B9B9"/>
<path d="M117.623 42.604C117.53 41.8804 117.037 41.3977 116.368 41.1588C116.185 41.0931 116.003 41.028 115.82 40.9613C115.772 40.944 115.41 40.8127 115.424 40.8216C115.147 40.7101 114.873 40.5867 114.599 40.4692C113.927 40.1814 113.258 39.8873 112.591 39.5876C111.235 38.9781 109.89 38.3448 108.557 37.6868C107.245 37.0402 105.942 36.3743 104.651 35.6848C104.006 35.3398 103.364 34.9898 102.725 34.6339C102.587 34.5574 102.451 34.477 102.313 34.398C102.334 34.3526 102.393 34.1872 102.448 34.0836C102.361 34.1956 102.363 34.1917 102.454 34.0722C102.474 34.0372 102.493 34.0115 102.508 34.0016C102.557 33.938 102.62 33.856 102.698 33.7543C102.755 33.6709 102.811 33.587 102.868 33.5036C102.97 33.3308 103.052 33.1428 103.143 32.9651C103.303 32.6507 103.464 32.3362 103.624 32.0218C104.322 30.6536 104.913 29.2068 105.507 27.7907C106.694 24.9605 107.883 22.1307 109.07 19.3004C109.288 18.7811 109.421 18.3157 109.273 17.749C109.143 17.2505 108.757 16.709 108.29 16.4701C107.474 16.053 106.218 16.1532 105.635 16.9459C104.992 17.0619 104.369 17.2189 103.74 17.403C102.454 17.7791 101.198 18.2357 99.949 18.7224C97.3048 19.7525 94.7208 20.913 92.131 22.0705C91.4389 22.3794 90.7479 22.6884 90.0559 22.9974C89.9863 22.6563 89.9167 22.3172 89.818 21.9826C89.3989 20.5675 88.9907 19.1494 88.5494 17.7406C88.084 16.2554 87.5598 14.7934 86.9452 13.3624C86.6748 12.7316 86.3934 12.0909 86.0104 11.5184C85.731 11.1018 85.425 10.6704 85.0637 10.3219C84.7349 10.005 84.3998 9.79721 83.9541 9.698C83.3795 9.63185 83.3124 9.61902 83.7527 9.6595C83.5848 9.62791 83.416 9.60816 83.2457 9.59977C82.5063 9.55732 81.9362 10.1403 81.7126 10.7824C81.5897 11.1344 81.5414 11.4986 81.572 11.8629C81.5522 11.8994 81.533 11.9364 81.5127 11.9725C81.2052 12.5376 80.9614 13.1319 80.7003 13.7198C80.4392 14.3077 80.1632 14.8906 79.9115 15.4819C79.755 15.8497 79.6119 16.2238 79.4614 16.5945C79.4372 16.6542 79.413 16.714 79.3883 16.7742C79.3853 16.7811 79.3824 16.788 79.3789 16.7964C79.3133 16.9578 79.2471 17.1187 79.1815 17.2801C78.1923 19.6958 77.0926 22.0621 76.0906 24.4718C75.9455 24.8213 75.7969 25.1692 75.6547 25.5197C75.522 25.846 75.4613 26.1999 75.3546 26.5286C75.1286 27.2256 74.746 27.9052 74.4464 28.5741C74.2199 29.079 74.3176 29.6802 74.8319 29.9734C75.3013 30.2404 75.9741 30.081 76.2313 29.5879C76.5284 29.0163 76.8241 28.4442 77.1178 27.8712C77.4243 27.2734 77.8389 26.7492 78.1499 26.153C78.7461 25.0088 79.3009 23.8508 79.8399 22.6791C80.9352 20.2975 82.0873 17.94 83.0651 15.5071C83.0913 15.5649 83.1184 15.6216 83.1436 15.6794C83.2181 15.8477 83.2907 16.017 83.3622 16.1873C83.3726 16.2115 83.383 16.2367 83.3928 16.2613C83.3973 16.2727 83.4027 16.285 83.4072 16.2984C83.5399 16.6444 83.6737 16.9894 83.8001 17.3379C84.0375 17.9919 84.2591 18.6508 84.4738 19.3127C84.9822 20.8794 85.3949 22.4954 86.0158 24.0206C86.1481 24.3454 86.2809 24.6697 86.4127 24.994C86.4971 25.1998 86.4882 25.1791 86.387 24.9328C86.4245 25.1164 86.4941 25.2818 86.5948 25.4299C86.5938 25.4338 86.5923 25.4373 86.5913 25.4412C86.4566 25.956 86.5193 26.6387 86.808 27.0972C87.4823 28.1693 88.7113 28.4714 89.8293 27.9299C94.4341 25.6984 99.0112 23.4007 103.696 21.3414C103.061 22.8168 102.425 24.2926 101.79 25.768C101.141 27.2764 100.476 28.806 99.9224 30.3535C99.6686 31.0633 99.3982 31.773 99.2486 32.511C99.0966 33.2612 98.6898 33.9177 98.6538 34.6586C98.4707 35.0885 98.4677 35.589 98.7407 36.015C99.0778 36.5407 99.446 36.9129 99.9821 37.2406C100.314 37.443 100.668 37.6157 101.011 37.8003C101.655 38.1473 102.303 38.4884 102.953 38.8241C104.254 39.4953 105.566 40.1449 106.891 40.7673C108.216 41.3898 109.553 41.989 110.9 42.565C111.189 42.6884 111.479 42.8103 111.769 42.9318C107.538 44.9604 103.282 46.9378 99.0773 49.0203C98.3404 49.385 97.6025 49.7478 96.863 50.1081C96.7199 50.1782 96.5748 50.2513 96.4297 50.3283C96.3803 50.2809 96.3305 50.235 96.2767 50.1911C96.0792 50.0301 95.8823 49.8697 95.6843 49.7093C95.29 49.388 94.8951 49.0671 94.5007 48.7458C93.7114 48.1036 92.9222 47.4615 92.1334 46.8188C90.5549 45.5345 88.9769 44.2497 87.3984 42.9653C84.2384 40.3937 81.0547 37.8546 77.8651 35.3205C76.8818 34.5397 75.8655 33.7988 74.8615 33.0455C74.4158 32.7114 73.9834 32.3708 73.5007 32.0934C72.7544 31.665 72.0184 31.4483 71.1551 31.6047C70.5875 31.7074 70.1556 32.3348 70.1635 32.8905C70.1813 34.1927 71.1551 35.1547 72.0638 35.9696C72.8181 36.6468 73.5693 37.328 74.327 38.0007C75.8443 39.3483 77.4233 40.6331 78.9707 41.9455C82.0715 44.5754 85.2191 47.1505 88.351 49.7434C89.2123 50.4566 90.0737 51.1699 90.935 51.8831C91.3659 52.24 91.7963 52.5963 92.2272 52.9532C92.4622 53.1477 92.6971 53.3422 92.9321 53.5366C93.0105 53.6013 93.0875 53.6674 93.167 53.7311C93.4701 54.0322 93.8274 54.2375 94.2401 54.3471L94.4997 54.4508C94.8186 54.5781 95.329 54.5357 95.6528 54.4508C95.7381 54.4286 95.8196 54.3995 95.8991 54.3674C96.7767 54.4621 97.6474 54.1729 98.4544 53.819C99.1405 53.5179 99.8222 53.2054 100.504 52.8955C101.846 52.2864 103.172 51.6511 104.493 50.9976C107.156 49.6802 109.768 48.2882 112.36 46.8366C113.839 46.0078 115.314 45.1707 116.781 44.3193C117.382 43.9703 117.711 43.2896 117.623 42.6055L117.623 42.604Z" fill="#B9B9B9"/>
</g>
<defs>
<clipPath id="clip0_1_5">
<rect width="91.2853" height="91.2853" fill="white" transform="translate(0.857422 41.6359)"/>
</clipPath>
<clipPath id="clip1_1_5">
<rect width="48.7678" height="39.504" fill="white" transform="translate(92.0681 0.142548) rotate(45)"/>
</clipPath>
</defs>
</svg>
