<svg width="114" height="124" viewBox="0 0 114 124" fill="none" xmlns="http://www.w3.org/2000/svg">
<g clip-path="url(#clip0_2608_736)">
<path fill-rule="evenodd" clip-rule="evenodd" d="M91.2853 78.136C91.2853 103.344 70.8509 123.779 45.6427 123.779C20.4344 123.779 0 103.344 0 78.136C0 52.9277 20.4344 32.4933 45.6427 32.4933C70.8509 32.4933 91.2853 52.9277 91.2853 78.136Z" fill="#F43E37"/>
<path fill-rule="evenodd" clip-rule="evenodd" d="M10.1428 78.136C10.1428 58.53 26.0366 42.6362 45.6427 42.6362C65.2487 42.6362 81.1425 58.53 81.1425 78.136H72.2676C72.2676 63.4315 60.3472 51.5111 45.6427 51.5111C30.9382 51.5111 19.0178 63.4315 19.0178 78.136C19.0178 92.8405 30.9382 104.761 45.6427 104.761V113.636C26.0366 113.636 10.1428 97.742 10.1428 78.136ZM45.6427 99.4359C33.8791 99.4359 24.3428 89.8996 24.3428 78.136C24.3428 66.3724 33.8791 56.8361 45.6427 56.8361C57.4063 56.8361 66.9426 66.3724 66.9426 78.136H59.1972C59.1972 70.6501 53.1286 64.5815 45.6427 64.5815C38.1567 64.5815 32.0882 70.6501 32.0882 78.136C32.0882 85.622 38.1567 91.6905 45.6427 91.6905V99.4359Z" fill="white"/>
</g>
<path d="M113.766 33.4615C113.673 32.7378 113.179 32.2551 112.511 32.0162C112.328 31.9506 112.145 31.8854 111.962 31.8188C111.914 31.8015 111.553 31.6702 111.567 31.6791C111.289 31.5675 111.016 31.4441 110.742 31.3267C110.07 31.0389 109.4 30.7447 108.734 30.4451C107.378 29.8355 106.033 29.2022 104.699 28.5443C103.387 27.8977 102.085 27.2318 100.794 26.5422C100.149 26.1972 99.5068 25.8473 98.8676 25.4914C98.7299 25.4149 98.5932 25.3344 98.456 25.2554C98.4767 25.21 98.5354 25.0447 98.5907 24.941C98.5034 25.0531 98.5053 25.0491 98.5971 24.9297C98.6164 24.8946 98.6351 24.869 98.6509 24.8591C98.6998 24.7954 98.763 24.7135 98.841 24.6118C98.8977 24.5284 98.954 24.4445 99.0108 24.361C99.1124 24.1883 99.1949 24.0002 99.2857 23.8225C99.4461 23.5081 99.6065 23.1937 99.767 22.8793C100.465 21.511 101.056 20.0643 101.65 18.6482C102.837 15.8179 104.025 12.9881 105.213 10.1578C105.431 9.63859 105.564 9.17313 105.416 8.60648C105.285 8.10795 104.9 7.56647 104.433 7.32757C103.617 6.91048 102.361 7.01069 101.777 7.8034C101.134 7.91939 100.511 8.07636 99.8829 8.26047C98.5966 8.63659 97.3404 9.09316 96.0916 9.57985C93.4475 10.61 90.8635 11.7704 88.2736 12.9279C87.5816 13.2369 86.8905 13.5459 86.1985 13.8549C86.1289 13.5138 86.0593 13.1747 85.9606 12.84C85.5415 11.4249 85.1333 10.0068 84.6921 8.59809C84.2266 7.11286 83.7024 5.65083 83.0879 4.2199C82.8174 3.58908 82.536 2.9484 82.153 2.37583C81.8736 1.95923 81.5676 1.52783 81.2063 1.17935C80.8776 0.862464 80.5424 0.654661 80.0967 0.555449C79.5221 0.489307 79.455 0.476473 79.8953 0.516948C79.7275 0.485357 79.5587 0.465614 79.3884 0.457223C78.649 0.414774 78.0789 0.997709 77.8553 1.63988C77.7324 1.99181 77.684 2.35608 77.7146 2.72036C77.6949 2.75688 77.6756 2.7939 77.6554 2.82993C77.3479 3.3951 77.104 3.98939 76.8429 4.57726C76.5818 5.16513 76.3059 5.74807 76.0542 6.3394C75.8977 6.70712 75.7545 7.08127 75.604 7.45196C75.5798 7.51168 75.5556 7.57141 75.5309 7.63163C75.528 7.63854 75.525 7.64545 75.5216 7.65384C75.4559 7.81525 75.3898 7.97616 75.3241 8.13756C74.335 10.5532 73.2352 12.9195 72.2332 15.3292C72.0881 15.6787 71.9395 16.0267 71.7974 16.3771C71.6646 16.7034 71.6039 17.0573 71.4973 17.3861C71.2712 18.083 70.8887 18.7627 70.5891 19.4315C70.3625 19.9365 70.4602 20.5377 70.9746 20.8309C71.444 21.0979 72.1167 20.9385 72.3739 20.4454C72.671 19.8738 72.9667 19.3017 73.2604 18.7286C73.5669 18.1309 73.9815 17.6067 74.2925 17.0104C74.8888 15.8663 75.4436 14.7083 75.9826 13.5365C77.0779 11.1549 78.2299 8.7975 79.2077 6.36457C79.2339 6.42232 79.261 6.47908 79.2862 6.53683C79.3607 6.70515 79.4333 6.87445 79.5049 7.04474C79.5152 7.06893 79.5256 7.0941 79.5355 7.11878C79.5399 7.13014 79.5453 7.14247 79.5498 7.1558C79.6826 7.50181 79.8163 7.84684 79.9427 8.19531C80.1801 8.84933 80.4017 9.50828 80.6165 10.1702C81.1249 11.7369 81.5375 13.3529 82.1584 14.8781C82.2907 15.2029 82.4235 15.5272 82.5553 15.8515C82.6397 16.0573 82.6308 16.0366 82.5296 15.7903C82.5671 15.9739 82.6367 16.1392 82.7374 16.2873C82.7364 16.2913 82.735 16.2947 82.734 16.2987C82.5992 16.8135 82.6619 17.4961 82.9507 17.9547C83.6249 19.0268 84.854 19.3288 85.972 18.7874C90.5767 16.5558 95.1538 14.2581 99.839 12.1989C99.2038 13.6742 98.568 15.1501 97.9328 16.6254C97.2832 18.1339 96.6183 19.6635 96.065 21.2109C95.8113 21.9207 95.5408 22.6305 95.3912 23.3684C95.2392 24.1187 94.8325 24.7752 94.7965 25.5161C94.6133 25.946 94.6104 26.4465 94.8833 26.8725C95.2204 27.3981 95.5887 27.7703 96.1247 28.0981C96.4564 28.3004 96.8108 28.4732 97.1534 28.6578C97.7975 29.0048 98.4456 29.3459 99.0952 29.6815C100.396 30.3528 101.708 31.0024 103.034 31.6248C104.359 32.2472 105.696 32.8464 107.043 33.4225C107.332 33.5459 107.622 33.6678 107.912 33.7892C103.681 35.8179 99.4249 37.7952 95.22 39.8777C94.483 40.2425 93.7451 40.6053 93.0057 40.9656C92.8625 41.0357 92.7174 41.1087 92.5723 41.1857C92.523 41.1383 92.4731 41.0924 92.4193 41.0485C92.2219 40.8876 92.0249 40.7272 91.827 40.5668C91.4326 40.2454 91.0377 39.9246 90.6433 39.6033C89.8541 38.9611 89.0648 38.3189 88.2761 37.6763C86.6975 36.3919 85.1195 35.1071 83.541 33.8228C80.381 31.2511 77.1973 28.7121 74.0077 26.178C73.0245 25.3971 72.0082 24.6562 71.0042 23.903C70.5585 23.5688 70.1261 23.2282 69.6433 22.9508C68.897 22.5224 68.1611 22.3057 67.2978 22.4622C66.7301 22.5649 66.2982 23.1922 66.3061 23.748C66.3239 25.0501 67.2978 26.0121 68.2065 26.827C68.9607 27.5043 69.7119 28.1854 70.4696 28.8582C71.9869 30.2057 73.5659 31.4905 75.1134 32.803C78.2141 35.4329 81.3618 38.008 84.4936 40.6008C85.355 41.3141 86.2163 42.0273 87.0776 42.7406C87.5085 43.0974 87.9389 43.4538 88.3698 43.8107C88.6048 44.0051 88.8397 44.1996 89.0747 44.3941C89.1532 44.4588 89.2302 44.5249 89.3096 44.5886C89.6127 44.8897 89.9701 45.095 90.3827 45.2046L90.6424 45.3082C90.9612 45.4356 91.4716 45.3931 91.7954 45.3082C91.8808 45.286 91.9622 45.2569 92.0417 45.2248C92.9193 45.3196 93.79 45.0303 94.597 44.6764C95.2831 44.3753 95.9648 44.0629 96.6469 43.7529C97.9885 43.1438 99.3148 42.5086 100.636 41.855C103.299 40.5376 105.911 39.1457 108.503 37.694C109.982 36.8653 111.457 36.0282 112.923 35.1767C113.525 34.8277 113.853 34.1471 113.765 33.4629L113.766 33.4615Z" fill="#F43E37"/>
<defs>
<clipPath id="clip0_2608_736">
<rect width="91.2853" height="91.2853" fill="white" transform="translate(0 32.4933)"/>
</clipPath>
</defs>
</svg>
