<svg width="40" height="40" viewBox="0 0 40 40" fill="none" xmlns="http://www.w3.org/2000/svg">
<path opacity="0.5" fill-rule="evenodd" clip-rule="evenodd" d="M6.92052 27.553C6.44063 28.3046 6.66867 29.296 7.37399 29.7584C7.61699 29.9178 7.89581 30 8.17721 30H31.8237C32.6159 30 33.3335 29.3369 33.3335 28.4254C33.3335 28.1124 33.244 27.8093 33.0804 27.553L21.2571 9.03617C20.7939 8.31067 19.8756 8.13063 19.1972 8.57547C19.0188 8.69247 18.8635 8.8487 18.7438 9.03617L6.92052 27.553ZM4.11106 25.7591C2.65797 28.0349 3.30049 31.0734 5.54617 32.546C6.32997 33.0599 7.24364 33.3333 8.17721 33.3333H31.8237C34.4985 33.3333 36.6668 31.136 36.6668 28.4254C36.6668 27.4793 36.397 26.5534 35.8898 25.7591L24.0666 7.24229C22.6135 4.96656 19.6151 4.31544 17.3694 5.78797C16.7951 6.16459 16.3059 6.66024 15.9343 7.24229L4.11106 25.7591Z" fill="white" fill-opacity="0.5"/>
<path d="M20.0002 13.3333C19.095 13.3333 18.3757 14.0936 18.4259 14.9974L18.8307 22.2838C18.8635 22.8726 19.3504 23.3333 19.9401 23.3333H20.0602C20.6499 23.3333 21.1369 22.8726 21.1696 22.2838L21.5744 14.9974C21.6246 14.0936 20.9053 13.3333 20.0002 13.3333Z" fill="white" fill-opacity="0.5"/>
<path d="M21.7918 26.7611C21.7918 27.7338 21.0177 28.5223 20.0627 28.5223C19.1077 28.5223 18.3335 27.7338 18.3335 26.7611C18.3335 25.7884 19.1077 24.9999 20.0627 24.9999C21.0177 24.9999 21.7918 25.7884 21.7918 26.7611Z" fill="white" fill-opacity="0.5"/>
</svg>
