<svg width="116" height="88" viewBox="0 0 116 88" fill="none" xmlns="http://www.w3.org/2000/svg">
<path d="M107.867 30.386L103.107 35.7907L107.829 41.2274L101.086 43.8431L103.384 50.6964L96.1547 51.0931L96.6763 58.3145L89.5186 57.2006L88.7538 64.4058L81.8579 62.1832L80.0816 69.209L73.5347 66.1024L70.907 72.8555L64.7709 68.9993L61.3862 75.4066L55.7328 70.8724L51.6164 76.8362L46.5652 71.6399L41.7044 77.0126L37.4395 71.1551L31.7976 75.6987L28.6384 69.1828L22.1777 72.4544L20.7419 65.3712L13.5955 66.4772L14.9666 59.4078L8.14181 57.1073L12.9017 51.7015L8.17958 46.2648L14.9227 43.6491L12.6245 36.7969L19.8543 36.4002L19.3324 29.1777L26.4905 30.2928L27.2552 23.0876L34.1511 25.3101L35.9274 18.2844L42.474 21.3898L45.1029 14.6364L51.2381 18.494L54.6225 12.0856L60.2759 16.6198L64.3926 10.6571L69.4438 15.8535L74.3046 10.4807L78.5695 16.3382L84.2111 11.7935L87.3703 18.3093L93.8313 15.0389L95.266 22.1224L102.414 21.0161L101.042 28.0843L107.867 30.386Z" fill="black"/>
<path d="M41.4115 63.5489L40.404 59.7889C39.6876 57.1151 40.3102 53.59 40.8747 50.3492C41.331 47.5403 41.7904 44.9097 41.3202 43.1551L39.697 37.0973C39.5851 36.6795 39.4038 36.5042 39.1113 36.5826C38.8189 36.661 38.7495 36.9034 38.8615 37.3212L40.7197 44.2563L36.542 45.3757L34.7397 38.6495C33.9561 35.7251 35.4301 33.5391 38.0621 32.8338C40.6941 32.1286 43.1583 33.3041 43.9307 36.1868L45.4979 42.0356C46.2144 44.7094 45.5917 48.2345 45.0272 51.4753C44.5067 54.2119 44.0668 56.7477 44.5146 58.4188L44.5817 58.6695L49.595 57.3262L50.6025 61.0861L41.4115 63.5489ZM53.9671 33.4975L59.4747 54.052C60.2583 56.9765 58.7843 59.1625 56.1105 59.8789C53.4368 60.5954 51.0672 59.4392 50.2836 56.5148L44.7761 35.9603C44.0037 33.0776 45.55 30.8274 48.182 30.1222C50.814 29.417 53.1835 30.5731 53.9671 33.4975ZM49.7334 34.4081C49.6215 33.9903 49.4402 33.815 49.1477 33.8934C48.8553 33.9717 48.7859 34.2142 48.8979 34.632L54.5174 55.6042C54.6293 56.022 54.8106 56.1973 55.103 56.119C55.3955 56.0406 55.4649 55.7981 55.3529 55.3804L49.7334 34.4081ZM61.4842 58.1704L60.4767 54.4104C59.7603 51.7367 60.383 48.2116 60.9474 44.9707C61.4038 42.1618 61.8631 39.5312 61.3929 37.7766L59.7698 31.7188C59.6578 31.3011 59.4765 31.1258 59.1841 31.2041C58.8917 31.2825 58.8223 31.525 58.9342 31.9427L60.7925 38.8778L56.6147 39.9972L54.8125 33.271C54.0289 30.3466 55.5029 28.1606 58.1348 27.4553C60.7668 26.7501 63.2311 27.9257 64.0035 30.8083L65.5707 36.6571C66.2871 39.3309 65.6645 42.856 65.1 46.0969C64.5795 48.8334 64.1396 51.3692 64.5873 53.0403L64.6545 53.291L69.6678 51.9477L70.6753 55.7077L61.4842 58.1704ZM69.9708 51.3292L68.9633 47.5692L65.8669 25.6522L72.1335 23.9731L77.8201 45.196L78.6557 44.9721L79.6632 48.7321L78.8276 48.956L79.9694 53.2173L75.7917 54.3367L74.6499 50.0754L69.9708 51.3292ZM72.8068 46.5393L73.6424 46.3155L69.7966 29.1217L69.713 29.1441L72.8068 46.5393Z" fill="#EE661C"/>
</svg>
