<?xml version="1.0" encoding="UTF-8"?>
<svg id="Layer_2" data-name="Layer 2" xmlns="http://www.w3.org/2000/svg" xmlns:xlink="http://www.w3.org/1999/xlink" viewBox="0 0 119.61 24">
  <defs>
    <style>
      .cls-1 {
        fill: none;
      }

      .cls-2 {
        clip-path: url(#clippath);
      }

      .cls-3 {
        fill: #f43e37;
      }

      .cls-3, .cls-4 {
        fill-rule: evenodd;
      }

      .cls-4 {
        fill: #fff;
      }
    </style>
    <clipPath id="clippath">
      <rect class="cls-1" width="23.91" height="24"/>
    </clipPath>
  </defs>
  <g id="Layer_1-2" data-name="Layer 1">
    <g>
      <path class="cls-4" d="M35.09,12.58c1.38,0,2.06-.75,2.06-2.33s-.69-2.24-2.03-2.24h-.67v4.57h.63Zm-3.5,6.1V5.62h3.53c3.18,0,4.89,1.51,4.89,4.54,0,3.38-2.03,4.78-4.82,4.78h-.73v3.75h-2.88Z"/>
      <path class="cls-4" d="M44.22,11.1c-.84,0-1.36,.9-1.36,2.73s.54,2.76,1.39,2.76,1.38-.91,1.38-2.74-.56-2.74-1.41-2.74m.02,7.77c-2.19,0-3.94-1.7-3.94-5s1.77-5.06,3.96-5.06,3.94,1.72,3.94,5.02-1.77,5.04-3.96,5.04"/>
      <path class="cls-4" d="M52.94,18.83c-2.59,0-4.11-1.81-4.11-4.97s1.56-5.02,4.26-5.02c.86,0,1.51,.17,2.14,.41l-.41,2.35c-.45-.21-.97-.37-1.51-.37-1.25,0-1.9,1.08-1.9,2.6,0,1.64,.65,2.61,1.93,2.61,.48,0,.99-.15,1.52-.35l.41,2.26c-.65,.28-1.51,.49-2.34,.49"/>
      <path class="cls-4" d="M58.95,14.05v4.63h-2.7V5.22h2.7v7.97l2.19-4.18h2.96l-2.62,4.63,2.7,5.04h-2.99l-2.23-4.63Z"/>
      <path class="cls-4" d="M68.95,13.2c-.06-1.46-.48-2.32-1.3-2.32s-1.27,.9-1.32,2.32h2.62Zm-5.13,.69c0-3.32,1.69-5.08,3.83-5.08,2.27,0,3.79,1.74,3.79,5.13v.88h-5.12c.09,1.33,.82,1.98,2.01,1.98,.71,0,1.54-.22,2.31-.58l.48,1.9c-.93,.47-2.03,.71-3.07,.71-2.36,0-4.24-1.25-4.24-4.95h0Z"/>
      <path class="cls-4" d="M72.9,15.79v-4.56h-1.04v-2.22h1.04v-2.54h2.68v2.54h2.05v2.22h-2.05v4.16c0,.8,.43,1.14,1.15,1.14,.32,0,.6-.06,.89-.13v2.2c-.41,.13-.99,.21-1.66,.21-2.05,0-3.07-.84-3.07-3.02"/>
      <path class="cls-4" d="M86.68,18.83c-3.39,0-5.51-2.17-5.51-6.67s2.18-6.7,5.52-6.7c1.12,0,2.05,.22,2.77,.5l-.45,2.65c-.58-.24-1.25-.47-2.05-.47-1.79,0-2.85,1.42-2.85,3.98s1,4.01,2.9,4.01c.73,0,1.41-.19,2.01-.45l.46,2.58c-.8,.34-1.79,.56-2.83,.56"/>
      <path class="cls-4" d="M94.82,16.63v-2.3c-.26-.06-.56-.07-.87-.07-.56,0-.87,.11-1.1,.32-.2,.22-.32,.56-.32,1.05,0,.97,.43,1.36,1.17,1.36,.37,0,.76-.15,1.12-.35m-2.23,2.18c-1.51,0-2.57-.97-2.57-3.06,0-.93,.26-1.72,.76-2.2,.54-.56,1.34-.84,2.55-.84,.52,0,1.04,.07,1.49,.17v-.54c0-.82-.37-1.27-1.38-1.27-.78,0-1.62,.22-2.36,.54l-.5-2.05c.97-.39,2.1-.69,3.35-.69,2.44,0,3.53,1.05,3.53,3.27v4.84l.2,1.72h-2.34l-.33-.84c-.71,.62-1.4,.97-2.4,.97"/>
      <path class="cls-4" d="M101.94,18.85c-1.3,0-2.51-.34-3.55-.9l.54-2.18c1.02,.56,2.05,.9,2.98,.9,.69,0,1.06-.3,1.06-.71s-.22-.6-1.53-1.12c-1.81-.73-2.7-1.42-2.7-3.04,0-1.79,1.23-2.95,3.39-2.95,1.1,0,2.1,.26,3.01,.71l-.54,2.18c-.84-.43-1.69-.71-2.47-.71-.58,0-.89,.24-.89,.63s.21,.56,1.49,1.08c2.03,.8,2.73,1.55,2.73,3.08,0,2.02-1.41,3.02-3.51,3.02"/>
      <path class="cls-4" d="M107,15.79v-4.56h-1.04v-2.22h1.04v-2.54h2.68v2.54h2.05v2.22h-2.05v4.16c0,.8,.43,1.14,1.15,1.14,.32,0,.6-.06,.89-.13v2.2c-.41,.13-.99,.21-1.66,.21-2.05,0-3.07-.84-3.07-3.02"/>
      <path class="cls-4" d="M116.1,18.85c-1.3,0-2.51-.34-3.55-.9l.54-2.18c1.02,.56,2.05,.9,2.98,.9,.69,0,1.06-.3,1.06-.71s-.22-.6-1.53-1.12c-1.8-.73-2.7-1.42-2.7-3.04,0-1.79,1.23-2.95,3.38-2.95,1.1,0,2.1,.26,3.01,.71l-.54,2.18c-.84-.43-1.69-.71-2.47-.71-.58,0-.89,.24-.89,.63s.2,.56,1.49,1.08c2.03,.8,2.73,1.55,2.73,3.08,0,2.02-1.41,3.02-3.52,3.02"/>
      <g class="cls-2">
        <g>
          <path class="cls-3" d="M23.91,12c0,6.63-5.35,12-11.96,12S0,18.63,0,12,5.35,0,11.96,0s11.96,5.37,11.96,12Z"/>
          <path class="cls-4" d="M2.66,12C2.66,6.85,6.82,2.67,11.96,2.67s9.3,4.18,9.3,9.33h-2.32c0-3.87-3.12-7-6.97-7s-6.97,3.13-6.97,7,3.12,7,6.97,7v2.33c-5.14,0-9.3-4.18-9.3-9.33Zm9.3,5.6c-3.08,0-5.58-2.51-5.58-5.6s2.5-5.6,5.58-5.6,5.58,2.51,5.58,5.6h-2.03c0-1.97-1.59-3.56-3.55-3.56s-3.55,1.6-3.55,3.56,1.59,3.56,3.55,3.56v2.04Z"/>
        </g>
      </g>
    </g>
  </g>
</svg>