<svg width="24" height="24" viewBox="0 0 24 24" fill="none" xmlns="http://www.w3.org/2000/svg">
<path fill-rule="evenodd" clip-rule="evenodd" d="M12 24C18.6274 24 24 18.6274 24 12C24 5.37258 18.6274 0 12 0C5.37258 0 0 5.37258 0 12C0 18.6274 5.37258 24 12 24ZM16.6459 8.23664C16.2243 7.87989 15.5934 7.93247 15.2366 8.35408L10.4386 14.0244L8.20711 11.7929C7.81658 11.4024 7.18342 11.4024 6.79289 11.7929C6.40237 12.1834 6.40237 12.8166 6.79289 13.2071L10.5614 16.9756L16.7634 9.64596C17.1201 9.22436 17.0676 8.59338 16.6459 8.23664Z" fill="white"/>
</svg>
