<?xml version="1.0" encoding="UTF-8"?>
<svg id="Layer_2" data-name="Layer 2" xmlns="http://www.w3.org/2000/svg" viewBox="0 0 15.46 19">
  <g id="Layer_1-2" data-name="Layer 1">
    <path d="M7.96,4.38c.86,0,1.93-.58,2.57-1.35,.58-.7,1-1.68,1-2.66,0-.13-.01-.27-.04-.37-.95,.04-2.1,.64-2.79,1.45-.54,.62-1.04,1.58-1.04,2.57,0,.14,.02,.29,.04,.34,.06,.01,.16,.02,.25,.02Zm-3.02,14.62c1.17,0,1.69-.79,3.15-.79s1.81,.76,3.12,.76,2.14-1.18,2.95-2.34c.91-1.33,1.28-2.63,1.3-2.69-.08-.02-2.54-1.03-2.54-3.84,0-2.44,1.93-3.54,2.04-3.62-1.28-1.84-3.23-1.88-3.76-1.88-1.44,0-2.61,.87-3.35,.87-.8,0-1.85-.82-3.09-.82C2.4,4.64,0,6.6,0,10.29c0,2.29,.89,4.72,1.99,6.29,.94,1.33,1.76,2.42,2.95,2.42Z"/>
  </g>
</svg>