<svg width="132" height="27" viewBox="0 0 132 27" fill="none" xmlns="http://www.w3.org/2000/svg">
<path fill-rule="evenodd" clip-rule="evenodd" d="M37.9696 13.746C39.4779 13.746 40.232 12.9295 40.232 11.1957C40.232 9.42062 39.4779 8.74749 38.0104 8.74749H37.2761V13.746H37.9696ZM34.1372 20.4171V6.13611H38.0103C41.4962 6.13611 43.3719 7.78834 43.3719 11.0938C43.3719 14.7863 41.1497 16.3166 38.0919 16.3166H37.2965V20.4171H34.1372Z" fill="white"/>
<path fill-rule="evenodd" clip-rule="evenodd" d="M48.0794 12.1339C47.1617 12.1339 46.5915 13.1135 46.5915 15.113C46.5915 17.1324 47.1821 18.1323 48.1202 18.1323C49.0374 18.1323 49.6285 17.1324 49.6285 15.1334C49.6285 13.1135 49.017 12.1339 48.0794 12.1339ZM48.0999 20.6214C45.6943 20.6214 43.7778 18.7642 43.7778 15.1537C43.7778 11.5015 45.7146 9.62445 48.1202 9.62445C50.5055 9.62445 52.4418 11.5015 52.4418 15.113C52.4418 18.7438 50.5055 20.6214 48.0999 20.6214Z" fill="white"/>
<path fill-rule="evenodd" clip-rule="evenodd" d="M57.8009 20.5804C54.9672 20.5804 53.2954 18.6013 53.2954 15.1535C53.2954 11.7874 55.008 9.66553 57.9639 9.66553C58.902 9.66553 59.6149 9.84911 60.3084 10.1143L59.8595 12.6849C59.3703 12.4605 58.8001 12.2769 58.2085 12.2769C56.8424 12.2769 56.1295 13.46 56.1295 15.1127C56.1295 16.9078 56.8424 17.9689 58.2493 17.9689C58.7797 17.9689 59.3296 17.8058 59.9206 17.5814L60.3695 20.0495C59.6557 20.356 58.7186 20.5804 57.8009 20.5804Z" fill="white"/>
<path fill-rule="evenodd" clip-rule="evenodd" d="M64.4862 15.3576V20.4172H61.5303V5.7074H64.4862V14.4188L66.8918 9.84915H70.1331L67.2587 14.9088L70.2146 20.4172H66.9326L64.4862 15.3576Z" fill="white"/>
<path fill-rule="evenodd" clip-rule="evenodd" d="M75.5333 14.419C75.4721 12.8279 75.0028 11.8891 74.1065 11.8891C73.1888 11.8891 72.72 12.8687 72.6584 14.419H75.5333ZM69.9062 15.1741C69.9062 11.5423 71.762 9.62445 74.1065 9.62445C76.5931 9.62445 78.265 11.5219 78.265 15.2353V16.194H72.6584C72.7608 17.6428 73.5557 18.3562 74.8601 18.3562C75.6351 18.3562 76.5524 18.1119 77.388 17.7244L77.9185 19.805C76.8989 20.3154 75.6963 20.5806 74.5544 20.5806C71.9654 20.5806 69.9062 19.2134 69.9062 15.1741Z" fill="white"/>
<path fill-rule="evenodd" clip-rule="evenodd" d="M79.9549 17.2547V12.2772H78.813V9.84931H79.9549V7.07471H82.8904V9.84931H85.133V12.2772H82.8904V16.8264C82.8904 17.704 83.3597 18.0711 84.1541 18.0711C84.5011 18.0711 84.8069 18.0099 85.133 17.9283V20.3358C84.6846 20.4786 84.0522 20.5602 83.3189 20.5602C81.0764 20.5602 79.9549 19.6418 79.9549 17.2547Z" fill="white"/>
<path fill-rule="evenodd" clip-rule="evenodd" d="M95.1616 20.5804C91.451 20.5804 89.127 18.2137 89.127 13.2969C89.127 8.56405 91.5122 5.97302 95.182 5.97302C96.4054 5.97302 97.4245 6.2178 98.2194 6.52377L97.7302 9.42027C97.0984 9.15559 96.3646 8.91081 95.4877 8.91081C93.531 8.91081 92.3687 10.4611 92.3687 13.2561C92.3687 16.1326 93.4699 17.6426 95.5489 17.6426C96.3442 17.6426 97.0984 17.4381 97.7506 17.1525L98.2602 19.9679C97.3837 20.3356 96.3035 20.5804 95.1616 20.5804Z" fill="white"/>
<path fill-rule="evenodd" clip-rule="evenodd" d="M104.19 18.1729V15.6635C103.905 15.6023 103.578 15.5819 103.232 15.5819C102.62 15.5819 102.274 15.7043 102.029 15.9286C101.805 16.1739 101.682 16.5411 101.682 17.0709C101.682 18.1321 102.152 18.5605 102.966 18.5605C103.375 18.5605 103.803 18.3973 104.19 18.1729ZM101.744 20.56C100.093 20.56 98.9307 19.4988 98.9307 17.2137C98.9307 16.1943 99.2165 15.3371 99.7668 14.8063C100.358 14.1948 101.234 13.8889 102.56 13.8889C103.13 13.8889 103.701 13.9704 104.19 14.0724V13.4804C104.19 12.5829 103.783 12.0929 102.682 12.0929C101.826 12.0929 100.908 12.3381 100.093 12.6849L99.5426 10.4406C100.603 10.0123 101.846 9.68591 103.212 9.68591C105.882 9.68591 107.086 10.8282 107.086 13.256V18.5401L107.31 20.4172H104.741L104.374 19.4988C103.599 20.1724 102.845 20.56 101.744 20.56Z" fill="white"/>
<path fill-rule="evenodd" clip-rule="evenodd" d="M112.098 20.6008C110.671 20.6008 109.346 20.2336 108.204 19.6212L108.795 17.2341C109.917 17.8466 111.037 18.2137 112.057 18.2137C112.811 18.2137 113.219 17.8874 113.219 17.4381C113.219 16.9894 112.975 16.7859 111.547 16.2147C109.57 15.4187 108.591 14.6635 108.591 12.8889C108.591 10.9302 109.937 9.66553 112.301 9.66553C113.504 9.66553 114.605 9.9511 115.604 10.4406L115.013 12.8277C114.096 12.3585 113.158 12.0521 112.301 12.0521C111.67 12.0521 111.323 12.3177 111.323 12.7461C111.323 13.1541 111.547 13.358 112.954 13.9297C115.176 14.8063 115.95 15.6227 115.95 17.2953C115.95 19.4988 114.401 20.6008 112.098 20.6008Z" fill="white"/>
<path fill-rule="evenodd" clip-rule="evenodd" d="M117.743 17.2547V12.2772H116.602V9.84931H117.743V7.07471H120.679V9.84931H122.922V12.2772H120.679V16.8264C120.679 17.704 121.148 18.0711 121.943 18.0711C122.29 18.0711 122.595 18.0099 122.922 17.9283V20.3358C122.473 20.4786 121.841 20.5602 121.108 20.5602C118.865 20.5602 117.743 19.6418 117.743 17.2547Z" fill="white"/>
<path fill-rule="evenodd" clip-rule="evenodd" d="M127.812 20.6008C126.386 20.6008 125.06 20.2336 123.919 19.6212L124.51 17.2341C125.632 17.8466 126.752 18.2137 127.772 18.2137C128.526 18.2137 128.934 17.8874 128.934 17.4381C128.934 16.9894 128.689 16.7859 127.262 16.2147C125.285 15.4187 124.306 14.6635 124.306 12.8889C124.306 10.9302 125.652 9.66553 128.016 9.66553C129.219 9.66553 130.32 9.9511 131.319 10.4406L130.728 12.8277C129.81 12.3585 128.873 12.0521 128.016 12.0521C127.384 12.0521 127.038 12.3177 127.038 12.7461C127.038 13.1541 127.262 13.358 128.669 13.9297C130.891 14.8063 131.665 15.6227 131.665 17.2953C131.665 19.4988 130.116 20.6008 127.812 20.6008Z" fill="white"/>
<g clip-path="url(#clip0_1673_9888)">
<path fill-rule="evenodd" clip-rule="evenodd" d="M26.2059 13.113C26.2059 20.3552 20.3396 26.2259 13.1029 26.2259C5.86624 26.2259 0 20.3552 0 13.113C0 5.87072 5.86624 0 13.1029 0C20.3396 0 26.2059 5.87072 26.2059 13.113Z" fill="#F43E37"/>
<path fill-rule="evenodd" clip-rule="evenodd" d="M2.91162 13.113C2.91162 7.48023 7.47437 2.914 13.1028 2.914C18.7312 2.914 23.294 7.48023 23.294 13.113H20.7462C20.7462 8.88842 17.3241 5.46374 13.1028 5.46374C8.88147 5.46374 5.45942 8.88842 5.45942 13.113C5.45942 17.3375 8.88147 20.7622 13.1028 20.7622V23.3119C7.47437 23.3119 2.91162 18.7457 2.91162 13.113ZM13.1028 19.2323C9.72574 19.2323 6.98809 16.4926 6.98809 13.113C6.98809 9.73333 9.72574 6.99359 13.1028 6.99359C16.4799 6.99359 19.2175 9.73333 19.2175 13.113H16.994C16.994 10.9623 15.2518 9.21882 13.1028 9.21882C10.9538 9.21882 9.21162 10.9623 9.21162 13.113C9.21162 15.2636 10.9538 17.0071 13.1028 17.0071V19.2323Z" fill="white"/>
</g>
<defs>
<clipPath id="clip0_1673_9888">
<rect width="26.2059" height="26.2259" fill="white"/>
</clipPath>
</defs>
</svg>
