<?xml version="1.0" encoding="UTF-8"?>
<svg id="Layer_2" data-name="Layer 2" xmlns="http://www.w3.org/2000/svg" viewBox="0 0 23.01 29.24">
  <defs>
    <style>
      .cls-1 {
        isolation: isolate;
        opacity: .5;
      }

      .cls-1, .cls-2 {
        fill: #fff;
        fill-rule: evenodd;
      }
    </style>
  </defs>
  <g id="Layer_1-2" data-name="Layer 1">
    <g>
      <path class="cls-1" d="M18.82,6.05c0-1.24-1.07-2.2-2.3-2.08l-2.2,.22c-1.37,.14-2.45,1.14-2.75,2.42l-7.88,1.33c-1.29,.22-2.31,1.21-2.56,2.5L.04,16.14c-.23,1.18,.58,2.31,1.77,2.47l1.3,.18-.89,3.65c-.3,1.21,.53,2.42,1.77,2.57l2.07,.26c.95,.12,1.86-.42,2.21-1.31l1.68-4.25,1.65,.22c.3,1.28,1.39,2.26,2.74,2.4l2.2,.22c1.23,.12,2.3-.84,2.3-2.08v-2.83l1.79-.67c1.44-.54,2.39-1.92,2.39-3.45s-.95-2.91-2.39-3.45l-1.79-.67v-3.35Zm0,9.36v-3.78l1.06,.4c.62,.23,1.04,.83,1.04,1.49s-.41,1.26-1.04,1.49l-1.06,.4Zm-5.23,3.61v-2.1c0-.58-.47-1.05-1.05-1.05s-1.05,.47-1.05,1.05v.25h0v.64l-9.41-1.28,1.11-5.7c.08-.43,.42-.76,.85-.83l7.45-1.26v3.47c0,.55,.42,1,.96,1.04,.03,0,.06,0,.08,0,.58,0,1.05-.47,1.05-1.05V7.49c0-.16,.04-.39,.1-.64,.15-.32,.47-.55,.84-.59l2.2-.22v14.42l-2.2-.22c-.38-.04-.69-.27-.84-.59-.06-.25-.1-.48-.1-.64Zm-8.41,.12l-.93,3.79,2.06,.26,1.46-3.71-2.6-.34Z"/>
      <path class="cls-2" d="M20.32,.18c.64,.37,.86,1.18,.49,1.82L5.5,28.57c-.37,.64-1.18,.86-1.82,.49-.64-.37-.86-1.18-.49-1.82L18.5,.67c.37-.64,1.18-.86,1.82-.49Z"/>
    </g>
  </g>
</svg>