<svg width="50" height="50" viewBox="0 0 50 50" fill="none" xmlns="http://www.w3.org/2000/svg">
<g clip-path="url(#clip0_3385_15580)">
<path d="M30.1827 5.6832C22.1174 3.52211 19.7564 2.89839 19.2877 2.81358C17.5957 2.5077 16.4959 2.49242 15.2241 2.75054C14.2443 2.94836 13.4289 3.26349 12.5689 3.78105C11.0021 4.72537 9.83967 6.09213 9.07202 7.88135C8.69916 8.74991 8.61174 8.92399 7.36731 13.5374C6.95211 15.0751 6.41255 17.1006 5.68485 19.8164C3.52492 27.8774 2.90226 30.2368 2.81824 30.7049C2.5203 32.3517 2.50129 33.433 2.73909 34.685C3.19265 37.0811 4.71803 39.1974 6.85871 40.4082C7.60013 40.8266 8.44944 41.1753 9.56428 41.5313C10.0371 41.6803 14.9094 43.0018 19.7886 44.3092C24.6679 45.6165 29.5487 46.918 30.0216 47.0192C31.3456 47.308 32.1321 47.4095 33.0297 47.4175C35.5046 47.4403 37.8418 46.3844 39.4614 44.5119C40.2757 43.5705 40.8236 42.5896 41.3531 41.095C41.4685 40.7691 42.9016 35.4643 44.3219 30.1638C45.7424 24.8623 47.1501 19.5612 47.2132 19.2213C47.5071 17.6371 47.5207 16.5226 47.2747 15.2748C47.0724 14.2531 46.7597 13.4468 46.2283 12.5656C45.2774 11.0021 43.9135 9.84021 42.123 9.07245C41.2555 8.70014 41.086 8.61333 36.4704 7.36799L30.1827 5.6832Z" fill="url(#paint0_radial_3385_15580)"/>
<path d="M30.1827 5.6832C22.1174 3.52211 19.7564 2.89839 19.2877 2.81358C17.5957 2.5077 16.4959 2.49242 15.2241 2.75054C14.2443 2.94836 13.4289 3.26349 12.5689 3.78105C11.0021 4.72537 9.83967 6.09213 9.07202 7.88135C8.69916 8.74991 8.61174 8.92399 7.36731 13.5374C6.95211 15.0751 6.41255 17.1006 5.68485 19.8164C3.52492 27.8774 2.90226 30.2368 2.81824 30.7049C2.5203 32.3517 2.50129 33.433 2.73909 34.685C3.19265 37.0811 4.71803 39.1974 6.85871 40.4082C7.60013 40.8266 8.44944 41.1753 9.56428 41.5313C10.0371 41.6803 14.9094 43.0018 19.7886 44.3092C24.6679 45.6165 29.5487 46.918 30.0216 47.0192C31.3456 47.308 32.1321 47.4095 33.0297 47.4175C35.5046 47.4403 37.8418 46.3844 39.4614 44.5119C40.2757 43.5705 40.8236 42.5896 41.3531 41.095C41.4685 40.7691 42.9016 35.4643 44.3219 30.1638C45.7424 24.8623 47.1501 19.5612 47.2132 19.2213C47.5071 17.6371 47.5207 16.5226 47.2747 15.2748C47.0724 14.2531 46.7597 13.4468 46.2283 12.5656C45.2774 11.0021 43.9135 9.84021 42.123 9.07245C41.2555 8.70014 41.086 8.61333 36.4704 7.36799L30.1827 5.6832Z" fill="url(#paint1_radial_3385_15580)"/>
<path d="M30.1827 5.6832C22.1174 3.52211 19.7564 2.89839 19.2877 2.81358C17.5957 2.5077 16.4959 2.49242 15.2241 2.75054C14.2443 2.94836 13.4289 3.26349 12.5689 3.78105C11.0021 4.72537 9.83967 6.09213 9.07202 7.88135C8.69916 8.74991 8.61174 8.92399 7.36731 13.5374C6.95211 15.0751 6.41255 17.1006 5.68485 19.8164C3.52492 27.8774 2.90226 30.2368 2.81824 30.7049C2.5203 32.3517 2.50129 33.433 2.73909 34.685C3.19265 37.0811 4.71803 39.1974 6.85871 40.4082C7.60013 40.8266 8.44944 41.1753 9.56428 41.5313C10.0371 41.6803 14.9094 43.0018 19.7886 44.3092C24.6679 45.6165 29.5487 46.918 30.0216 47.0192C31.3456 47.308 32.1321 47.4095 33.0297 47.4175C35.5046 47.4403 37.8418 46.3844 39.4614 44.5119C40.2757 43.5705 40.8236 42.5896 41.3531 41.095C41.4685 40.7691 42.9016 35.4643 44.3219 30.1638C45.7424 24.8623 47.1501 19.5612 47.2132 19.2213C47.5071 17.6371 47.5207 16.5226 47.2747 15.2748C47.0724 14.2531 46.7597 13.4468 46.2283 12.5656C45.2774 11.0021 43.9135 9.84021 42.123 9.07245C41.2555 8.70014 41.086 8.61333 36.4704 7.36799L30.1827 5.6832Z" fill="url(#paint2_radial_3385_15580)"/>
<path d="M30.1827 5.6832C22.1174 3.52211 19.7564 2.89839 19.2877 2.81358C17.5957 2.5077 16.4959 2.49242 15.2241 2.75054C14.2443 2.94836 13.4289 3.26349 12.5689 3.78105C11.0021 4.72537 9.83967 6.09213 9.07202 7.88135C8.69916 8.74991 8.61174 8.92399 7.36731 13.5374C6.95211 15.0751 6.41255 17.1006 5.68485 19.8164C3.52492 27.8774 2.90226 30.2368 2.81824 30.7049C2.5203 32.3517 2.50129 33.433 2.73909 34.685C3.19265 37.0811 4.71803 39.1974 6.85871 40.4082C7.60013 40.8266 8.44944 41.1753 9.56428 41.5313C10.0371 41.6803 14.9094 43.0018 19.7886 44.3092C24.6679 45.6165 29.5487 46.918 30.0216 47.0192C31.3456 47.308 32.1321 47.4095 33.0297 47.4175C35.5046 47.4403 37.8418 46.3844 39.4614 44.5119C40.2757 43.5705 40.8236 42.5896 41.3531 41.095C41.4685 40.7691 42.9016 35.4643 44.3219 30.1638C45.7424 24.8623 47.1501 19.5612 47.2132 19.2213C47.5071 17.6371 47.5207 16.5226 47.2747 15.2748C47.0724 14.2531 46.7597 13.4468 46.2283 12.5656C45.2774 11.0021 43.9135 9.84021 42.123 9.07245C41.2555 8.70014 41.086 8.61333 36.4704 7.36799L30.1827 5.6832Z" fill="url(#paint3_radial_3385_15580)"/>
<path d="M28.2887 13.4579C25.0914 12.6012 24.6864 12.5077 23.4153 12.2283C22.1466 11.9498 21.238 11.9188 20.4114 12.0092C19.5566 12.1022 18.792 12.3281 17.9624 12.8069C17.1323 13.2854 16.5542 13.8339 16.0453 14.5266C15.5529 15.1967 15.1251 15.9985 14.7332 17.2353C14.3408 18.4751 14.2186 18.8724 13.3625 22.0674C12.5064 25.2624 12.4135 25.6659 12.1342 26.936C11.8562 28.2039 11.8256 29.1119 11.9161 29.9379C12.0097 30.7923 12.2361 31.5564 12.7155 32.3857C13.1943 33.2154 13.7432 33.7943 14.4365 34.3021C15.1076 34.7938 15.9102 35.2213 17.1479 35.6145C18.3884 36.008 18.7857 36.1295 21.9828 36.9861C25.1804 37.8429 25.5842 37.9361 26.8553 38.2155C28.124 38.494 29.0336 38.5252 29.8606 38.435C30.7152 38.342 31.479 38.1148 32.3085 37.6356C33.1386 37.1572 33.7167 36.6087 34.2257 35.916C34.7156 35.2453 35.1434 34.4434 35.5377 33.2073C35.9303 31.9675 36.0522 31.5715 36.9083 28.3765C37.7644 25.1815 37.8571 24.7766 38.137 23.5066C38.4137 22.2384 38.4441 21.3303 38.3551 20.5048C38.2607 19.6502 38.0343 18.886 37.5547 18.0567C37.0752 17.2268 36.528 16.6494 35.8334 16.1415C35.1608 15.6495 34.3579 15.2218 33.12 14.8286C31.8795 14.435 31.4834 14.3139 28.2851 13.457L28.2887 13.4579ZM26.6645 15.295C26.9781 15.3785 27.3278 15.4727 27.7207 15.578C30.8641 16.4202 31.2336 16.5313 32.4598 16.9203C33.5937 17.2803 34.1653 17.6389 34.5372 17.9111C35.0294 18.2716 35.3528 18.6314 35.6543 19.1535C35.956 19.6757 36.106 20.1362 36.1728 20.7425C36.223 21.1999 36.2482 21.8739 35.9931 23.0349C35.7172 24.2901 35.6297 24.666 34.7884 27.8056C33.9472 30.9452 33.8351 31.3144 33.4464 32.5395C33.0865 33.6724 32.7279 34.2435 32.4558 34.6146C32.0953 35.1064 31.735 35.4288 31.2127 35.7299C30.6903 36.0313 30.2308 36.1813 29.624 36.2473C29.1662 36.298 28.4915 36.3221 27.3295 36.067C26.0734 35.7908 25.6973 35.7031 22.5538 34.8609C19.4102 34.0185 19.0409 33.9064 17.815 33.5175C16.6813 33.157 16.1096 32.7984 15.7375 32.5261C15.2453 32.1657 14.9211 31.8056 14.6194 31.2835C14.3177 30.7613 14.1674 30.3018 14.1007 29.6953C14.0505 29.2379 14.0253 28.5639 14.2804 27.4029C14.5563 26.1476 14.6448 25.7721 15.4866 22.6305C16.3284 19.489 16.4389 19.1214 16.8277 17.8964C17.1875 16.7634 17.5461 16.1923 17.8184 15.8208C18.1788 15.3289 18.5395 15.0053 19.0619 14.7039C19.5843 14.4026 20.045 14.2529 20.6517 14.1863C21.11 14.1358 21.7845 14.1116 22.9465 14.3665C24.0457 14.6085 24.4705 14.7066 26.6653 15.292L26.6645 15.295ZM33.4816 19.2152C32.7017 19.0062 31.8996 19.4683 31.6907 20.2479C31.4819 21.0273 31.9453 21.8292 32.7252 22.0382C33.5052 22.2471 34.3074 21.7844 34.5163 21.005C34.7251 20.2256 34.2617 19.4237 33.4818 19.2147L33.4816 19.2152ZM26.7553 19.1808C23.4164 18.2861 19.9846 20.2658 19.0906 23.6022C18.1966 26.9386 20.1792 30.3678 23.518 31.2625C26.8569 32.1571 30.2875 30.1784 31.1815 26.842C32.0755 23.5056 30.094 20.0754 26.7551 19.1807L26.7553 19.1808ZM26.1873 21.3008C28.3545 21.8815 29.6412 24.1079 29.0609 26.2738C28.4806 28.4394 26.253 29.7244 24.0858 29.1437C21.9183 28.5629 20.6319 26.3363 21.2122 24.1707C21.7925 22.0049 24.0198 20.72 26.1873 21.3008Z" fill="white"/>
</g>
<defs>
<radialGradient id="paint0_radial_3385_15580" cx="0" cy="0" r="1" gradientUnits="userSpaceOnUse" gradientTransform="translate(43.3949 28.6333) rotate(179.25) scale(25.5577 18.4131)">
<stop stop-color="#FF005F"/>
<stop offset="1" stop-color="#FC01D8"/>
</radialGradient>
<radialGradient id="paint1_radial_3385_15580" cx="0" cy="0" r="1" gradientUnits="userSpaceOnUse" gradientTransform="translate(9.97041 44.8679) rotate(-75) scale(31.9288 33.8757)">
<stop stop-color="#FFCC00"/>
<stop offset="0.1242" stop-color="#FFCC00"/>
<stop offset="0.5672" stop-color="#FE4A05"/>
<stop offset="0.6942" stop-color="#FF0F3F"/>
<stop offset="1" stop-color="#FE0657" stop-opacity="0"/>
</radialGradient>
<radialGradient id="paint2_radial_3385_15580" cx="0" cy="0" r="1" gradientUnits="userSpaceOnUse" gradientTransform="translate(20.946 44.0353) rotate(-44.8703) scale(13.2028 17.1886)">
<stop stop-color="#FFCC00"/>
<stop offset="1" stop-color="#FFCC00" stop-opacity="0"/>
</radialGradient>
<radialGradient id="paint3_radial_3385_15580" cx="0" cy="0" r="1" gradientUnits="userSpaceOnUse" gradientTransform="translate(15.6785 3.48306) rotate(179.274) scale(25.2742 8.61091)">
<stop stop-color="#780CFF"/>
<stop offset="1" stop-color="#820BFF" stop-opacity="0"/>
</radialGradient>
<clipPath id="clip0_3385_15580">
<rect width="40" height="40" fill="white" transform="translate(10.8579 0.505127) rotate(15)"/>
</clipPath>
</defs>
</svg>
