<?xml version="1.0" encoding="UTF-8"?>
<svg id="Layer_2" data-name="Layer 2" xmlns="http://www.w3.org/2000/svg" viewBox="0 0 40 40">
  <defs>
    <style>
      .cls-1 {
        fill: #fff;
        fill-rule: evenodd;
      }
    </style>
  </defs>
  <g id="Layer_1-2" data-name="Layer 1">
    <path class="cls-1" d="M20,40c11.05,0,20-8.95,20-20S31.05,0,20,0,0,8.95,0,20s8.95,20,20,20Zm0-35.56c-8.59,0-15.56,6.96-15.56,15.56s6.96,15.56,15.56,15.56v-3.89c-6.44,0-11.67-5.22-11.67-11.67s5.22-11.67,11.67-11.67,11.67,5.22,11.67,11.67h3.89c0-8.59-6.96-15.56-15.56-15.56Zm-9.33,15.56c0,5.15,4.18,9.33,9.33,9.33v-3.39c-3.28,0-5.94-2.66-5.94-5.94s2.66-5.94,5.94-5.94,5.94,2.66,5.94,5.94h3.39c0-5.15-4.18-9.33-9.33-9.33s-9.33,4.18-9.33,9.33Z"/>
  </g>
</svg>