<?xml version="1.0" encoding="UTF-8"?>
<svg id="Layer_2" data-name="Layer 2" xmlns="http://www.w3.org/2000/svg" xmlns:xlink="http://www.w3.org/1999/xlink" viewBox="0 0 56 56">
  <defs>
    <style>
      .cls-1 {
        fill: url(#linear-gradient);
      }

      .cls-2 {
        fill: #03a9f4;
        fill-rule: evenodd;
      }
    </style>
    <linearGradient id="linear-gradient" x1="28" y1="56.93" x2="28" y2="-110.57" gradientTransform="translate(0 56.93) scale(1 -1)" gradientUnits="userSpaceOnUse">
      <stop offset="0" stop-color="#fff"/>
      <stop offset="1" stop-color="#b8c3c9"/>
    </linearGradient>
  </defs>
  <g id="Layer_1-2" data-name="Layer 1">
    <rect class="cls-1" width="56" height="56"/>
    <path class="cls-2" d="M15,24.83c0-7.07,5.83-12.83,13-12.83h0c7.17,0,13,5.76,13,12.83,0,4.99-2.9,9.33-7.13,11.45l-.27-2.09c3.24-1.89,5.43-5.39,5.43-9.36,0-6-4.95-10.88-11.02-10.88s-11.02,4.88-11.02,10.88c0,3.97,2.18,7.48,5.43,9.36l-.27,2.09c-4.23-2.12-7.13-6.47-7.13-11.45Zm13-8.35c4.67,0,8.46,3.74,8.46,8.35,0,2.66-1.26,5.05-3.24,6.57l-.31-2.39c.99-1.15,1.57-2.59,1.57-4.18,0-3.54-2.9-6.4-6.48-6.4s-6.48,2.86-6.48,6.4c0,1.58,.58,3.07,1.57,4.18l-.31,2.39c-1.98-1.55-3.24-3.91-3.24-6.57,0-4.61,3.79-8.35,8.46-8.35Zm2.59,14.01c-.78,.37-1.67,.57-2.59,.57s-1.81-.2-2.59-.54l-1.26,9.13c-.31,2.29,1.5,4.35,3.86,4.35s4.16-2.05,3.86-4.35l-1.26-9.16Zm-2.59-1.89c2.11,0,3.82-1.69,3.82-3.77s-1.71-3.77-3.82-3.77-3.82,1.69-3.82,3.77,1.71,3.77,3.82,3.77Z"/>
  </g>
</svg>