<svg width="48" height="48" viewBox="0 0 48 48" fill="none" xmlns="http://www.w3.org/2000/svg">
<path opacity="0.5" d="M9.40088 9.40105C11.6639 9 14.6678 9 19.1997 9H19.7997C26.5204 9 29.8807 9 32.4476 10.3079C34.7056 11.4584 36.5413 13.2942 37.6918 15.5521C38.9997 18.1191 38.9997 21.4794 38.9997 28.2V28.8C38.9997 33.332 38.9997 36.3359 38.5987 38.5989C39.6916 38.4053 40.6117 38.118 41.4477 37.6921C43.7056 36.5416 45.5414 34.7058 46.6919 32.4479C47.9998 29.8809 47.9998 26.5206 47.9998 19.8V19.2C47.9998 12.4794 47.9998 9.11905 46.6919 6.55211C45.5414 4.29417 43.7056 2.4584 41.4477 1.30792C38.8808 0 35.5204 0 28.7998 0H28.1998C21.4792 0 18.1189 0 15.5519 1.30792C13.294 2.4584 11.4582 4.29417 10.3077 6.55211C9.88179 7.38807 9.59457 8.30816 9.40088 9.40105Z" fill="url(#paint0_linear_406_25745)"/>
<path fill-rule="evenodd" clip-rule="evenodd" d="M19.8 13.5H19.2C15.7654 13.5 13.4601 13.5035 11.6849 13.6485C9.96213 13.7893 9.13844 14.0406 8.59507 14.3175C7.18386 15.0365 6.0365 16.1839 5.31745 17.5951C5.04059 18.1384 4.7893 18.9621 4.64855 20.6849C4.5035 22.4601 4.5 24.7654 4.5 28.2V28.8C4.5 32.2346 4.5035 34.5399 4.64855 36.3151C4.7893 38.0379 5.04059 38.8616 5.31745 39.4049C6.0365 40.8161 7.18386 41.9635 8.59507 42.6825C9.13844 42.9594 9.96213 43.2107 11.6849 43.3515C13.4601 43.4965 15.7654 43.5 19.2 43.5H19.8C23.2346 43.5 25.5399 43.4965 27.3151 43.3515C29.0379 43.2107 29.8616 42.9594 30.4049 42.6825C31.8161 41.9635 32.9635 40.8161 33.6825 39.4049C33.9594 38.8616 34.2107 38.0379 34.3515 36.3151C34.4965 34.5399 34.5 32.2346 34.5 28.8V28.2C34.5 24.7654 34.4965 22.4601 34.3515 20.6849C34.2107 18.9621 33.9594 18.1384 33.6825 17.5951C32.9635 16.1839 31.8161 15.0365 30.4049 14.3175C29.8616 14.0406 29.0379 13.7893 27.3151 13.6485C25.5399 13.5035 23.2346 13.5 19.8 13.5ZM1.30792 15.5521C0 18.1191 0 21.4794 0 28.2V28.8C0 35.5206 0 38.8809 1.30792 41.4479C2.4584 43.7058 4.29417 45.5416 6.55211 46.6921C9.11905 48 12.4794 48 19.2 48H19.8C26.5206 48 29.8809 48 32.4479 46.6921C34.7058 45.5416 36.5416 43.7058 37.6921 41.4479C39 38.8809 39 35.5206 39 28.8V28.2C39 21.4794 39 18.1191 37.6921 15.5521C36.5416 13.2942 34.7058 11.4584 32.4479 10.3079C29.8809 9 26.5206 9 19.8 9H19.2C12.4794 9 9.11905 9 6.55211 10.3079C4.29417 11.4584 2.4584 13.2942 1.30792 15.5521Z" fill="url(#paint1_linear_406_25745)"/>
<path fill-rule="evenodd" clip-rule="evenodd" d="M8.25 28.5C8.25 22.2868 13.2868 17.25 19.5 17.25C25.7132 17.25 30.75 22.2868 30.75 28.5H27.9375C27.9375 23.8401 24.1599 20.0625 19.5 20.0625C14.8401 20.0625 11.0625 23.8401 11.0625 28.5C11.0625 33.1599 14.8401 36.9375 19.5 36.9375V39.75C13.2868 39.75 8.25 34.7132 8.25 28.5ZM19.5 35.25C15.7721 35.25 12.75 32.2279 12.75 28.5C12.75 24.7721 15.7721 21.75 19.5 21.75C23.2279 21.75 26.25 24.7721 26.25 28.5H23.7955C23.7955 26.1277 21.8723 24.2045 19.5 24.2045C17.1277 24.2045 15.2045 26.1277 15.2045 28.5C15.2045 30.8723 17.1277 32.7955 19.5 32.7955V35.25Z" fill="url(#paint2_linear_406_25745)"/>
<defs>
<linearGradient id="paint0_linear_406_25745" x1="11.3476" y1="3.26188" x2="43.3234" y2="37.8599" gradientUnits="userSpaceOnUse">
<stop/>
<stop offset="1" stop-color="#6B7273"/>
</linearGradient>
<linearGradient id="paint1_linear_406_25745" x1="1.96691" y1="12.2958" x2="34.2749" y2="47.2533" gradientUnits="userSpaceOnUse">
<stop/>
<stop offset="1" stop-color="#6B7273"/>
</linearGradient>
<linearGradient id="paint2_linear_406_25745" x1="9.38475" y1="19.1514" x2="28.024" y2="39.3192" gradientUnits="userSpaceOnUse">
<stop/>
<stop offset="1" stop-color="#6B7273"/>
</linearGradient>
</defs>
</svg>
