<svg width="24" height="24" viewBox="0 0 24 24" fill="none" xmlns="http://www.w3.org/2000/svg">
<path fill-rule="evenodd" clip-rule="evenodd" d="M8 7.14286C8 4.82808 9.81723 3 12 3C14.1828 3 16 4.82808 16 7.14286V8H8V7.14286ZM6 8V7.14286C6 3.77699 8.65992 1 12 1C15.3401 1 18 3.77699 18 7.14286V8C19.1046 8 20 8.89543 20 10V20C20 21.1046 19.1046 22 18 22H6C4.89543 22 4 21.1046 4 20V10C4 8.89543 4.89543 8 6 8ZM6 20V10H18V20H6ZM14 14C14 14.7403 13.5978 15.3866 13 15.7324V17C13 17.5523 12.5523 18 12 18C11.4477 18 11 17.5523 11 17V15.7324C10.4022 15.3866 10 14.7403 10 14C10 12.8954 10.8954 12 12 12C13.1046 12 14 12.8954 14 14Z" fill="black"/>
</svg>
