<svg width="189" height="211" viewBox="0 0 189 211" fill="none" xmlns="http://www.w3.org/2000/svg">
<path d="M78.6574 196.792C62.4882 193.929 49.2788 187.594 39.0294 177.788C28.7799 167.982 21.7473 155.706 17.9316 140.959C14.1457 126.044 13.8486 109.576 17.0404 91.554C20.2321 73.532 26.152 58.2515 34.8001 45.7124C43.478 33.0049 54.3138 23.8063 67.3076 18.1168C80.3014 12.4273 94.8829 11.0143 111.052 13.878C127.221 16.7416 140.347 23.0615 150.428 32.8376C160.677 42.6436 167.695 55.0041 171.481 69.919C175.296 84.6654 175.608 101.05 172.417 119.072C169.225 137.094 163.29 152.458 154.612 165.166C145.964 177.705 135.143 186.819 122.149 192.509C109.324 198.228 94.8267 199.656 78.6574 196.792ZM84.2952 164.959C92.5482 166.421 100.223 165.261 107.32 161.481C114.417 157.7 120.51 151.743 125.598 143.612C130.716 135.311 134.364 125.013 136.541 112.718C138.719 100.423 138.814 89.5826 136.829 80.1978C134.873 70.6446 131.211 62.874 125.844 56.8858C120.477 50.8977 113.667 47.1728 105.414 45.7111C97.1614 44.2495 89.4864 45.4091 82.3894 49.1898C75.2925 52.9706 69.185 59.0111 64.067 67.3115C58.9789 75.4434 55.346 85.657 53.1685 97.9524C50.9909 110.248 50.8802 121.172 52.8363 130.725C54.8222 140.11 58.4985 147.796 63.8654 153.785C69.2322 159.773 76.0421 163.498 84.2952 164.959Z" fill="url(#paint0_linear_11_48)"/>
<defs>
<linearGradient id="paint0_linear_11_48" x1="114.146" y1="-1.13056" x2="75.6056" y2="216.483" gradientUnits="userSpaceOnUse">
<stop stop-color="#5142D1"/>
<stop offset="1" stop-color="#A1CCBB"/>
</linearGradient>
</defs>
</svg>
