<svg width="71" height="64" viewBox="0 0 71 64" fill="none" xmlns="http://www.w3.org/2000/svg">
<path fill-rule="evenodd" clip-rule="evenodd" d="M35.4998 16.2193L30.371 11.1383C27.9068 8.69715 24.6693 7.27333 21.1591 7.27333C13.9752 7.27333 7.58257 13.4649 7.58257 21.82C7.58257 27.0113 11.3809 33.7631 17.9037 40.9437C23.9231 47.5702 31.0491 53.2553 35.4998 56.5474C39.9506 53.2553 47.0766 47.5702 53.096 40.9437C59.6188 33.7631 63.4171 27.0113 63.4171 21.82C63.4171 13.4649 57.0244 7.27333 49.8406 7.27333C46.3303 7.27333 43.0929 8.69714 40.6287 11.1383L35.4998 16.2193ZM35.4998 5.97458C31.7617 2.27133 26.7139 0 21.1591 0C9.63882 0 0.299805 9.76914 0.299805 21.82C0.299805 38.0582 22.4281 55.9808 31.595 62.7088C33.9407 64.4304 37.0589 64.4304 39.4047 62.7088C48.5715 55.9808 70.6998 38.0582 70.6998 21.82C70.6998 9.76914 61.3608 0 49.8406 0C44.2857 0 39.238 2.27133 35.4998 5.97458Z" fill="white"/>
</svg>
