<svg width="71" height="71" viewBox="0 0 71 71" fill="none" xmlns="http://www.w3.org/2000/svg">
<path fill-rule="evenodd" clip-rule="evenodd" d="M35.4998 19.2193L30.371 14.1383C27.9068 11.6971 24.6693 10.2733 21.1591 10.2733C13.9752 10.2733 7.58257 16.4649 7.58257 24.82C7.58257 30.0113 11.3809 36.7631 17.9037 43.9437C23.9231 50.5702 31.0491 56.2553 35.4998 59.5474C39.9506 56.2553 47.0766 50.5702 53.096 43.9437C59.6188 36.7631 63.4171 30.0113 63.4171 24.82C63.4171 16.4649 57.0244 10.2733 49.8406 10.2733C46.3303 10.2733 43.0929 11.6971 40.6287 14.1383L35.4998 19.2193ZM35.4998 8.97458C31.7617 5.27133 26.7139 3 21.1591 3C9.63882 3 0.299805 12.7691 0.299805 24.82C0.299805 41.0582 22.4281 58.9808 31.595 65.7088C33.9407 67.4304 37.0589 67.4304 39.4047 65.7088C48.5715 58.9808 70.6998 41.0582 70.6998 24.82C70.6998 12.7691 61.3608 3 49.8406 3C44.2857 3 39.238 5.27133 35.4998 8.97458Z" fill="white"/>
</svg>
