<svg width="80" height="80" viewBox="0 0 80 80" fill="none" xmlns="http://www.w3.org/2000/svg">
<g clip-path="url(#clip0_524_19474)">
<path opacity="0.24" d="M40 67.4999C40 67.4999 8.75 49.9999 8.75 28.7499C8.75 19.7749 16.025 12.4999 25 12.4999C31.5594 12.4999 37.475 16.4437 40 22.4999C43.45 14.2156 52.9656 10.2968 61.25 13.7499C67.3031 16.2718 71.25 22.1874 71.25 28.7499C71.25 49.9999 40 67.4999 40 67.4999Z" fill="white"/>
<path d="M41.2188 65.3156C41.1688 65.2875 41.0626 65.225 40.9032 65.1343C40.6282 64.975 40.3095 64.7843 39.9501 64.5656C38.9126 63.9343 37.7532 63.1937 36.5063 62.3531C32.9345 59.9468 29.3626 57.2187 26.0376 54.2281C16.747 45.8656 11.2376 37.1625 11.2376 28.7406C11.2376 21.1437 17.3907 14.9906 24.9876 14.9906C30.5376 14.9906 35.5438 18.3281 37.6782 23.45C38.5313 25.5 41.4376 25.5 42.2907 23.4496C45.2095 16.4371 53.2595 13.1246 60.2688 16.0434C65.3907 18.1778 68.7282 23.184 68.7282 28.734C68.7282 37.1559 63.2188 45.859 53.9282 54.2184C50.6032 57.209 47.0313 59.9371 43.4595 62.3403C42.2095 63.1809 41.0501 63.9184 40.0157 64.5497C39.6532 64.7684 39.3345 64.9559 39.0626 65.1153C38.9032 65.2059 38.797 65.2684 38.747 65.2934H41.1876L41.2188 65.3156ZM38.7751 69.6781C39.5313 70.1 40.4563 70.1 41.2157 69.6781C41.4845 69.525 41.9688 69.2437 42.6345 68.8375C43.7313 68.1656 44.9563 67.3875 46.2688 66.5C50.022 63.9718 53.772 61.1031 57.2845 57.9437C67.5251 48.725 73.7345 38.9125 73.7345 28.7406C73.7345 21.1687 69.1813 14.3437 62.1938 11.4312C52.6345 7.44684 41.6563 11.9656 37.672 21.525L42.2845 21.5246C39.372 14.5371 32.5438 9.98402 24.9751 9.98402C14.6188 9.98402 6.2251 18.3778 6.2251 28.734C6.2251 38.9028 12.4345 48.7153 22.6751 57.934C26.1845 61.0934 29.9376 63.9622 33.6907 66.4872C35.0032 67.3715 36.2251 68.1497 37.3251 68.8215C37.9907 69.2247 38.4751 69.509 38.7438 69.659L38.7751 69.6781Z" fill="white"/>
</g>
<defs>
<clipPath id="clip0_524_19474">
<rect width="80" height="80" fill="white"/>
</clipPath>
</defs>
</svg>
