<svg width="335" height="187" viewBox="0 0 335 187" fill="none" xmlns="http://www.w3.org/2000/svg">
<g clip-path="url(#clip0_1_3)">
<rect width="335" height="187" fill="#161718"/>
<path opacity="0.9" fill-rule="evenodd" clip-rule="evenodd" d="M28.0186 79.8967L23.9599 97.467L107.717 116.815L112.21 97.3683L61.5457 85.6649C66.6553 83.2515 71.8744 80.6237 77.2028 77.7816C82.6449 74.9658 87.899 71.9269 92.9651 68.6649C98.1711 65.3154 102.962 61.6902 107.337 57.7893C111.712 53.8885 115.374 49.7032 118.323 45.2334C121.412 40.6761 123.561 35.7818 124.77 30.5506C126.346 23.7271 126.216 17.2883 124.38 11.2339C122.684 5.09218 119.234 -0.197 114.03 -4.63359C108.965 -9.15764 102.169 -12.4048 93.6394 -14.3751C86.0199 -16.1352 78.7412 -16.2592 71.8034 -14.7473C65.0056 -13.3228 59.0472 -10.0872 53.9282 -5.04045C48.923 0.0325328 45.269 7.03485 42.9662 15.9665L65.9953 21.2862C66.8622 17.5333 68.2627 14.323 70.1967 11.6551C72.2444 9.01354 74.7731 7.14193 77.7828 6.04029C80.9325 4.85119 84.3838 4.6901 88.1366 5.55701C92.0033 6.4502 94.9468 7.9687 96.9672 10.1125C98.9876 12.2563 100.264 14.7674 100.797 17.6457C101.33 20.5241 101.255 23.4417 100.572 26.3985C99.3902 31.5161 96.5765 36.4364 92.1312 41.1596C87.7123 45.7691 82.1167 50.2864 75.3444 54.7116C68.5984 59.0231 61.1438 63.2907 52.9806 67.5144C44.8437 71.6244 36.523 75.7518 28.0186 79.8967ZM200.208 201.079C205.726 205.485 212.211 208.682 219.665 210.669C228.325 212.977 236.038 213.331 242.805 211.73C249.681 210.158 255.355 207.151 259.827 202.707C264.328 198.154 267.412 192.753 269.077 186.505C270.392 181.573 270.629 176.939 269.789 172.606C269.058 168.302 267.424 164.52 264.888 161.261C262.381 157.893 259.107 155.2 255.066 153.184C258.617 153.074 262.125 152.248 265.589 150.706C269.052 149.163 272.059 146.912 274.609 143.953C277.298 140.912 279.256 137.09 280.484 132.486C281.974 126.896 281.922 121.364 280.329 115.891C278.735 110.417 275.508 105.565 270.649 101.335C265.818 96.9945 259.401 93.7577 251.399 91.6246C243.836 89.6083 236.784 89.1961 230.244 90.3878C223.704 91.5795 218.033 94.3532 213.232 98.709C208.541 103.094 205.052 108.915 202.766 116.171L225.127 122.133C226.625 117.836 229.193 114.587 232.833 112.387C236.501 110.078 240.966 109.624 246.227 111.027C250.722 112.225 253.963 114.38 255.951 117.493C258.048 120.635 258.556 124.234 257.475 128.29C256.131 133.332 253.329 136.577 249.069 138.025C244.808 139.472 240.047 139.494 234.786 138.092L226.236 135.812L221.195 154.721L229.745 157C234.02 158.14 237.572 159.791 240.4 161.954C243.338 164.146 245.348 166.737 246.43 169.725C247.65 172.634 247.778 175.896 246.814 179.514C245.967 182.693 244.549 185.367 242.562 187.538C240.603 189.599 238.104 191.046 235.064 191.879C232.054 192.603 228.685 192.468 224.958 191.475C221.012 190.423 217.833 188.695 215.421 186.291C213.009 183.887 211.416 181.055 210.641 177.796C209.866 174.537 209.946 171.153 210.881 167.646L188.191 161.597C186.102 170.315 186.175 177.966 188.412 184.55C190.758 191.163 194.69 196.673 200.208 201.079Z" fill="url(#paint0_linear_1_3)"/>
<g filter="url(#filter0_d_1_3)">
<path d="M228.075 88.1954V102.227H228.724L230.072 88.1954H238.511L235.266 105.673L238.761 123.101H230.272L228.724 109.119H228.075V123.101H220.085V88.1954H228.075Z" fill="white"/>
<path d="M208.566 96.335V115.061C208.566 116.259 209.116 116.709 209.765 116.709C210.364 116.709 210.913 116.259 210.913 115.061V106.622H218.903V114.462C218.903 120.454 215.358 123.65 209.615 123.65C203.922 123.65 200.577 120.554 200.577 114.462V96.8843C200.577 90.7921 203.922 87.746 209.615 87.746C215.358 87.746 218.903 90.9419 218.903 96.8843V104.774H210.913V96.335C210.913 95.0866 210.364 94.6372 209.765 94.6372C209.116 94.6372 208.566 95.0866 208.566 96.335Z" fill="white"/>
<path d="M184.891 88.1454H197.325L200.321 123.151H192.331L191.932 115.211H190.134L189.734 123.151H181.745L184.891 88.1454ZM190.434 108.27H191.582L191.282 101.978H190.783L190.434 108.27Z" fill="white"/>
<path d="M163.223 88.1954H172.062C177.954 88.1954 181.3 91.2414 181.3 96.7843V97.034C181.3 102.177 178.603 104.874 176.256 105.024V105.573C178.554 105.673 181.899 108.819 181.899 113.912V114.512C181.899 119.955 178.204 123.151 172.112 123.151H163.223V88.1954ZM171.213 95.0865V101.828H171.962C173.011 101.828 173.31 101.378 173.31 100.13V96.7843C173.31 95.5359 173.011 95.0865 171.962 95.0865H171.213ZM171.213 108.769V116.209H172.062C173.11 116.209 173.46 115.81 173.46 114.512V110.467C173.46 109.218 173.11 108.769 172.012 108.769H171.213Z" fill="white"/>
<path d="M144.244 88.1954H152.234L153.083 102.527H153.632L154.431 88.1954H162.421L157.277 113.563V123.151H149.287V113.563L144.244 88.1954Z" fill="white"/>
<path d="M130.42 88.1454H142.854L145.85 123.151H137.86L137.461 115.211H135.663L135.263 123.151H127.274L130.42 88.1454ZM135.962 108.27H137.111L136.811 101.978H136.312L135.962 108.27Z" fill="white"/>
<path d="M114.019 88.1954H122.009V116.209H126.902V123.151H114.019V88.1954Z" fill="white"/>
<path d="M95 88.1954H103.939C109.781 88.1954 113.127 92.0404 113.127 100.579V100.679C113.127 109.468 110.131 112.414 103.839 112.414H102.99V123.151H95V88.1954ZM102.99 95.1365V105.473H103.839C104.887 105.473 105.187 104.974 105.187 103.626V97.084C105.187 95.6358 104.887 95.1365 103.839 95.1365H102.99Z" fill="white"/>
<path d="M237.819 70.5749H232.418V67.8066C232.418 67.0977 232.148 66.6926 231.675 66.6926C231.169 66.6926 230.899 67.0977 230.899 67.8066V69.5621C230.899 70.7437 231.101 71.0813 233.701 72.4655L234.714 72.9381C237.144 74.1872 237.853 75.7401 237.853 79.5887V80.0614C237.853 84.045 235.558 86.3069 231.574 86.3069C227.624 86.3069 225.463 84.1125 225.463 80.0614V77.7319H230.865V80.4665C230.865 81.2092 231.169 81.6143 231.675 81.6143C232.182 81.6143 232.452 81.2092 232.452 80.5002V78.6772C232.452 77.4619 232.249 77.158 229.852 75.9089L228.671 75.335C226.24 74.0859 225.497 72.3642 225.497 68.5494V68.2118C225.497 64.1606 227.658 62 231.574 62C235.524 62 237.819 64.2619 237.819 68.2118V70.5749Z" fill="white"/>
<path d="M224.947 62.3374V67.0299H221.706V85.969H216.304V67.0299H213.029V62.3374H224.947Z" fill="white"/>
<path d="M212.5 70.5749H207.098V67.8066C207.098 67.0977 206.828 66.6926 206.355 66.6926C205.849 66.6926 205.579 67.0977 205.579 67.8066V69.5621C205.579 70.7437 205.782 71.0813 208.381 72.4655L209.394 72.9381C211.825 74.1872 212.533 75.7401 212.533 79.5887V80.0614C212.533 84.045 210.238 86.3069 206.254 86.3069C202.304 86.3069 200.144 84.1125 200.144 80.0614V77.7319H205.545V80.4665C205.545 81.2092 205.849 81.6143 206.355 81.6143C206.862 81.6143 207.132 81.2092 207.132 80.5002V78.6772C207.132 77.4619 206.929 77.158 204.532 75.9089L203.351 75.335C200.92 74.0859 200.177 72.3642 200.177 68.5494V68.2118C200.177 64.1606 202.338 62 206.254 62C210.204 62 212.5 64.2619 212.5 68.2118V70.5749Z" fill="white"/>
<path d="M189.539 62.3036H197.945L199.971 85.969H194.569L194.299 80.6013H193.084L192.814 85.969H187.412L189.539 62.3036ZM193.287 75.9087H194.063L193.86 71.655H193.523L193.287 75.9087Z" fill="white"/>
<path d="M180.258 67.8404V80.5002C180.258 81.3105 180.63 81.6143 181.069 81.6143C181.474 81.6143 181.845 81.3105 181.845 80.5002V74.7949H187.247V80.0951C187.247 84.1463 184.85 86.3069 180.967 86.3069C177.119 86.3069 174.857 84.2138 174.857 80.0951V68.2118C174.857 64.0931 177.119 62.0338 180.967 62.0338C184.85 62.0338 187.247 64.1944 187.247 68.2118V73.5458H181.845V67.8404C181.845 66.9964 181.474 66.6926 181.069 66.6926C180.63 66.6926 180.258 66.9964 180.258 67.8404Z" fill="white"/>
<path d="M168.769 62.3374V67.0299H165.528V85.969H160.126V67.0299H156.852V62.3374H168.769Z" fill="white"/>
<path d="M156.369 67.0299H153.061V71.2161H156.302V75.9087H153.061V81.2765H156.403V85.969H147.659V62.3374H156.369V67.0299Z" fill="white"/>
<path d="M139.973 62.3374V71.8238H140.412L141.323 62.3374H147.029L144.834 74.1532L147.197 85.9353H141.458L140.412 76.4826H139.973V85.9353H134.571V62.3374H139.973Z" fill="white"/>
<path d="M126.784 67.8404V80.5002C126.784 81.3105 127.155 81.6143 127.594 81.6143C127.999 81.6143 128.371 81.3105 128.371 80.5002V74.7949H133.772V80.0951C133.772 84.1463 131.375 86.3069 127.493 86.3069C123.644 86.3069 121.382 84.2138 121.382 80.0951V68.2118C121.382 64.0931 123.644 62.0338 127.493 62.0338C131.375 62.0338 133.772 64.1944 133.772 68.2118V73.5458H128.371V67.8404C128.371 66.9964 127.999 66.6926 127.594 66.6926C127.155 66.6926 126.784 66.9964 126.784 67.8404Z" fill="white"/>
<path d="M108.261 68.2118C108.261 64.0931 110.523 62 114.371 62C118.254 62 120.651 64.1606 120.651 68.2118V80.0614C120.651 84.1463 118.254 86.3069 114.371 86.3069C110.523 86.3069 108.261 84.18 108.261 80.0614V68.2118ZM113.662 67.8066V80.5002C113.662 81.3105 114.034 81.6143 114.439 81.6143C114.878 81.6143 115.249 81.3105 115.249 80.5002V67.8066C115.249 66.9627 114.878 66.6926 114.439 66.6926C114.034 66.6926 113.662 66.9627 113.662 67.8066Z" fill="white"/>
<path d="M95.4372 62.3374H101.48C105.43 62.3374 107.692 64.9369 107.692 70.7097V70.7773C107.692 76.7189 105.666 78.7107 101.413 78.7107H100.839V85.969H95.4372V62.3374ZM100.839 67.0299V74.0182H101.413C102.122 74.0182 102.324 73.6806 102.324 72.7691V68.3466C102.324 67.3675 102.122 67.0299 101.413 67.0299H100.839Z" fill="white"/>
</g>
<path fill-rule="evenodd" clip-rule="evenodd" d="M201.341 56.0778C205.867 60.4084 211.701 63.2061 218.842 64.4708C225.983 65.7355 232.385 65.1049 238.05 62.579C243.788 60.0663 248.567 56.0411 252.386 50.5034C256.219 44.8913 258.84 38.1057 260.249 30.1466C261.659 22.1874 261.521 14.9516 259.836 8.43901C258.164 1.85206 255.065 -3.60675 250.538 -7.93742C246.086 -12.2549 240.29 -15.046 233.149 -16.3107C226.008 -17.5754 219.568 -16.9513 213.829 -14.4386C208.091 -11.9259 203.305 -7.86356 199.473 -2.25147C195.654 3.28625 193.039 10.0347 191.63 17.9938C190.22 25.9529 190.351 33.226 192.023 39.8129C193.708 46.3255 196.814 51.7471 201.341 56.0778ZM231.5 48.8758C228.366 50.5455 224.977 51.0576 221.332 50.4121C217.687 49.7666 214.679 48.1216 212.309 45.477C209.939 42.8324 208.315 39.4378 207.438 35.2932C206.575 31.0742 206.623 26.2496 207.585 20.8196C208.547 15.3895 210.151 10.8788 212.398 7.28746C214.659 3.62173 217.356 0.95401 220.49 -0.715713C223.624 -2.38543 227.014 -2.89754 230.659 -2.25202C234.304 -1.60651 237.311 0.0385324 239.681 2.68311C242.051 5.32768 243.669 8.75948 244.532 12.9785C245.409 17.1231 245.367 21.9105 244.405 27.3405C243.444 32.7706 241.833 37.3185 239.572 40.9842C237.325 44.5756 234.635 47.2061 231.5 48.8758ZM80.59 176.8L81.8602 185.913L125.304 179.858L123.898 169.772L97.6195 173.434C99.6144 171.352 101.622 169.148 103.643 166.822C105.723 164.487 107.673 162.081 109.492 159.603C111.362 157.057 112.984 154.456 114.358 151.799C115.731 149.142 116.713 146.479 117.303 143.812C117.944 141.076 118.076 138.352 117.698 135.639C117.204 132.099 115.968 129.055 113.989 126.504C112.061 123.887 109.452 121.995 106.163 120.83C102.924 119.598 99.0932 119.29 94.6692 119.906C90.7171 120.457 87.2258 121.726 84.1953 123.711C81.2155 125.63 78.9661 128.259 77.447 131.597C75.9869 134.928 75.5227 138.931 76.0541 143.607L87.999 141.943C87.7277 139.996 87.8096 138.211 88.2447 136.587C88.7388 134.954 89.6025 133.601 90.8359 132.527C92.12 131.386 93.7354 130.68 95.6819 130.409C97.6875 130.129 99.3672 130.316 100.721 130.969C102.075 131.622 103.141 132.586 103.92 133.861C104.699 135.135 105.195 136.539 105.409 138.073C105.779 140.727 105.336 143.585 104.079 146.647C102.813 149.649 100.971 152.823 98.5503 156.167C96.1217 159.452 93.3475 162.845 90.2276 166.346C87.0994 169.789 83.8869 173.273 80.59 176.8Z" fill="url(#paint1_linear_1_3)"/>
</g>
<defs>
<filter id="filter0_d_1_3" x="63.4723" y="31.5232" width="206.816" height="124.705" filterUnits="userSpaceOnUse" color-interpolation-filters="sRGB">
<feFlood flood-opacity="0" result="BackgroundImageFix"/>
<feColorMatrix in="SourceAlpha" type="matrix" values="0 0 0 0 0 0 0 0 0 0 0 0 0 0 0 0 0 0 127 0" result="hardAlpha"/>
<feOffset dy="1.05092"/>
<feGaussianBlur stdDeviation="15.7638"/>
<feColorMatrix type="matrix" values="0 0 0 0 0 0 0 0 0 0 0 0 0 0 0 0 0 0 0.2 0"/>
<feBlend mode="normal" in2="BackgroundImageFix" result="effect1_dropShadow_1_3"/>
<feBlend mode="normal" in="SourceGraphic" in2="effect1_dropShadow_1_3" result="shape"/>
</filter>
<linearGradient id="paint0_linear_1_3" x1="152.762" y1="-15.7953" x2="152.762" y2="212.713" gradientUnits="userSpaceOnUse">
<stop stop-color="#411BEB"/>
<stop offset="0.239583" stop-color="#ADE3DC"/>
<stop offset="0.5" stop-color="#DDE787"/>
<stop offset="0.744792" stop-color="#E95842"/>
<stop offset="1" stop-color="#1A1A1A"/>
</linearGradient>
<linearGradient id="paint1_linear_1_3" x1="168.527" y1="-16.9458" x2="168.527" y2="185.913" gradientUnits="userSpaceOnUse">
<stop stop-color="#411BEB"/>
<stop offset="0.239583" stop-color="#ADE3DC"/>
<stop offset="0.5" stop-color="#DDE787"/>
<stop offset="0.744792" stop-color="#E95842"/>
<stop offset="1" stop-color="#1A1A1A"/>
</linearGradient>
<clipPath id="clip0_1_3">
<rect width="335" height="187" fill="white"/>
</clipPath>
</defs>
</svg>
