<?xml version="1.0" encoding="UTF-8"?>
<svg id="Layer_2" data-name="Layer 2" xmlns="http://www.w3.org/2000/svg" viewBox="0 0 22.4 20">
  <defs>
    <style>
      .cls-1 {
        fill: #fff;
        fill-rule: evenodd;
      }
    </style>
  </defs>
  <g id="Layer_1-2" data-name="Layer 1">
    <path class="cls-1" d="M0,2.8C0,1.25,1.25,0,2.8,0H19.6c1.55,0,2.8,1.25,2.8,2.8V13.2c0,1.55-1.25,2.8-2.8,2.8h-7.2v1.6h1.6c.66,0,1.2,.54,1.2,1.2s-.54,1.2-1.2,1.2h-5.6c-.66,0-1.2-.54-1.2-1.2s.54-1.2,1.2-1.2h1.6v-1.6H2.8c-1.55,0-2.8-1.25-2.8-2.8V2.8Zm2.8-.4c-.22,0-.4,.18-.4,.4V13.2c0,.22,.18,.4,.4,.4H19.6c.22,0,.4-.18,.4-.4V2.8c0-.22-.18-.4-.4-.4H2.8Z"/>
  </g>
</svg>