<?xml version="1.0" encoding="UTF-8"?>
<svg id="Layer_2" data-name="Layer 2" xmlns="http://www.w3.org/2000/svg" viewBox="0 0 25.5 20.55">
  <defs>
    <style>
      .cls-1 {
        fill: #fff;
        fill-rule: evenodd;
      }
    </style>
  </defs>
  <g id="Layer_1-2" data-name="Layer 1">
    <path class="cls-1" d="M7.13,4.98C8.26,2.07,11.09,0,14.4,0c3.79,0,6.94,2.7,7.65,6.28,2.08,1.4,3.45,3.78,3.45,6.47,0,4.31-3.49,7.8-7.8,7.8H7.8c-4.31,0-7.8-3.49-7.8-7.8,0-4.08,3.13-7.43,7.13-7.77Zm7.27-2.58c-2.52,0-4.63,1.72-5.23,4.05l-.24,.93-.96-.03c-.06,0-.11,0-.17,0-2.98,0-5.4,2.42-5.4,5.4s2.42,5.4,5.4,5.4h9.9c2.98,0,5.4-2.42,5.4-5.4,0-2.01-1.1-3.77-2.74-4.7l-.53-.3-.07-.6c-.32-2.67-2.6-4.75-5.36-4.75Z"/>
  </g>
</svg>