<svg width="311" height="386" viewBox="0 0 311 386" fill="none" xmlns="http://www.w3.org/2000/svg">
<path d="M114.315 356.254C93.9247 350.819 76.1829 342.075 61.0894 330.022C45.996 317.97 35.2401 302.898 28.8217 284.808C22.7033 266.797 22.5016 245.868 28.2167 222.019L90.2869 238.566C87.729 248.161 87.5099 257.416 89.6296 266.332C91.7493 275.247 96.1078 282.993 102.705 289.569C109.302 296.145 117.998 300.872 128.793 303.75C138.988 306.467 148.204 306.836 156.439 304.857C164.755 302.577 171.591 298.618 176.948 292.981C182.385 287.043 186.262 279.727 188.58 271.031C191.218 261.136 190.867 252.21 187.528 244.254C184.569 236.079 179.071 228.993 171.035 222.997C163.298 217.08 153.583 212.563 141.888 209.446L118.5 203.211L132.288 151.486L155.677 157.721C170.07 161.557 183.094 161.496 194.747 157.537C206.401 153.578 214.067 144.702 217.744 130.909C220.701 119.814 219.311 109.969 213.573 101.374C208.135 92.8587 199.269 86.9625 186.975 83.6852C172.582 79.8483 160.368 81.0888 150.334 87.4064C140.379 93.4243 133.354 102.31 129.257 114.065L68.086 97.7583C74.3411 77.9077 83.885 61.9849 96.7175 49.9899C109.85 38.0747 125.361 30.4872 143.252 27.2273C161.143 23.9674 180.433 25.0952 201.123 30.6106C223.013 36.4458 240.565 45.2999 253.779 57.1728C267.073 68.7458 275.9 82.0184 280.259 96.9905C284.618 111.963 284.76 127.095 280.683 142.388C277.326 154.982 271.969 165.437 264.614 173.753C257.638 181.85 249.413 188.007 239.938 192.226C230.463 196.445 220.868 198.704 211.153 199.005C222.208 204.521 231.164 211.887 238.021 221.102C244.958 230.017 249.427 240.361 251.427 252.135C253.727 263.989 253.078 276.663 249.481 290.156C244.925 307.248 236.491 322.021 224.178 334.476C211.945 346.631 196.424 354.858 177.613 359.158C159.103 363.537 138.004 362.569 114.315 356.254Z" fill="url(#paint0_linear_11_46)"/>
<defs>
<linearGradient id="paint0_linear_11_46" x1="179" y1="-279" x2="105.759" y2="391.659" gradientUnits="userSpaceOnUse">
<stop stop-color="#411BEB"/>
<stop offset="0.239583" stop-color="#ADE3DC"/>
<stop offset="0.5" stop-color="#DDE787"/>
<stop offset="0.744792" stop-color="#E95842"/>
<stop offset="1" stop-color="#1A1A1A"/>
</linearGradient>
</defs>
</svg>
