<svg width="24" height="24" viewBox="0 0 24 24" fill="none" xmlns="http://www.w3.org/2000/svg">
<path opacity="0.5" fill-rule="evenodd" clip-rule="evenodd" d="M4 14C4.55228 14 5 14.4477 5 15V20H19V15C19 14.4477 19.4477 14 20 14C20.5523 14 21 14.4477 21 15V21C21 21.5523 20.5523 22 20 22H4C3.44772 22 3 21.5523 3 21V15C3 14.4477 3.44772 14 4 14Z" fill="black"/>
<path fill-rule="evenodd" clip-rule="evenodd" d="M7 17C7 16.4477 7.44772 16 8 16H16C16.5523 16 17 16.4477 17 17C17 17.5523 16.5523 18 16 18H8C7.44772 18 7 17.5523 7 17Z" fill="black"/>
<path fill-rule="evenodd" clip-rule="evenodd" d="M11.2931 13.7071C11.6836 14.0976 12.3168 14.0976 12.7073 13.7071L16.0713 10.3431C16.4618 9.95262 16.4618 9.31946 16.0713 8.92893C15.6807 8.53841 15.0476 8.53841 14.657 8.92893L13.0002 10.5858V3C13.0002 2.44771 12.5525 2 12.0002 2C11.4479 2 11.0002 2.44771 11.0002 3V10.5858L9.34334 8.92893C8.95281 8.53841 8.31965 8.53841 7.92912 8.92893C7.5386 9.31946 7.5386 9.95262 7.92912 10.3431L11.2931 13.7071Z" fill="black"/>
</svg>
