<svg width="24" height="24" viewBox="0 0 24 24" fill="none" xmlns="http://www.w3.org/2000/svg">
<path opacity="0.5" fill-rule="evenodd" clip-rule="evenodd" d="M4 14C4.55228 14 5 14.4477 5 15V20H19V15C19 14.4477 19.4477 14 20 14C20.5523 14 21 14.4477 21 15V21C21 21.5523 20.5523 22 20 22H4C3.44772 22 3 21.5523 3 21V15C3 14.4477 3.44772 14 4 14Z" fill="black"/>
<path fill-rule="evenodd" clip-rule="evenodd" d="M7 17C7 16.4477 7.44772 16 8 16H16C16.5523 16 17 16.4477 17 17C17 17.5523 16.5523 18 16 18H8C7.44772 18 7 17.5523 7 17Z" fill="black"/>
<path fill-rule="evenodd" clip-rule="evenodd" d="M11.2931 2.29289C11.6836 1.90237 12.3168 1.90237 12.7073 2.29289L16.0713 5.65685C16.4618 6.04738 16.4618 6.68054 16.0713 7.07107C15.6807 7.46159 15.0476 7.46159 14.657 7.07107L13.0002 5.41421V13C13.0002 13.5523 12.5525 14 12.0002 14C11.4479 14 11.0002 13.5523 11.0002 13V5.41421L9.34334 7.07107C8.95281 7.46159 8.31965 7.46159 7.92912 7.07107C7.5386 6.68054 7.5386 6.04738 7.92912 5.65685L11.2931 2.29289Z" fill="black"/>
</svg>
